<svg width="1920" height="150" viewBox="0 0 1920 150" fill="none" xmlns="http://www.w3.org/2000/svg">
<path d="M1919.69 21.4125H12.5273V129.363H1919.69V21.4125Z" fill="#787070"/>
<path d="M12.5269 21.4125L0 0H1919.69L1905.11 21.4125H12.5269Z" fill="#B9B5B5"/>
<path d="M1920 0L1905.12 21.4125V129.35L1920 150V0Z" fill="#8D8C8C"/>
<path d="M12.5273 129.362L0.150391 150H1919.69L1905.11 129.35H12.5273V129.362Z" fill="#212121"/>
<path d="M43.459 21.4125L55.1161 28.2625L66.3833 23.1125L82.4792 21.4H43.459V21.4125Z" fill="#B9B5B5"/>
<path d="M43.459 21.4125C43.459 21.4125 54.5462 16.5125 62.9741 16.825C71.402 17.1375 82.4892 21.4125 82.4892 21.4125H43.459Z" fill="#212121"/>
<path d="M176.455 129.35L181.604 142.2L196.63 116.5L176.445 129.35H176.455Z" fill="#212121"/>
<path d="M196.641 116.5L192.622 139.675L181.615 142.2L196.641 116.5Z" fill="#B9B5B5"/>
<path d="M1856.71 111.237C1856.71 111.237 1872.92 108.125 1880.56 108.325C1888.2 108.525 1893.19 109.775 1893.19 109.775L1907.65 108.325L1909.67 112.325L1906.88 110.313L1891.95 111.225H1856.7L1856.71 111.237Z" fill="#212121"/>
<path d="M35.8613 129.35L62.9746 134.438L88.5482 129.35H35.8613Z" fill="#B9B5B5"/>
<path d="M35.8613 129.35L52.6071 124.212L72.7121 126.787H82.4897L88.5482 129.35H35.8613Z" fill="#212121"/>
<path d="M1907.79 40.125L1902.41 38.45L1885 48.175L1896.08 46.4L1915.92 46.125L1907.78 40.125H1907.79Z" fill="#212121"/>
<path d="M1885.01 48.175L1907.17 53.475L1915.94 46.125L1907.17 46.4H1896.1L1885.02 48.175H1885.01Z" fill="#B9B5B5"/>
<path d="M1881.31 100.938L1887.76 99.15L1892.54 100.05L1904.36 98.5625L1919.69 100.95H1881.31V100.938Z" fill="#212121"/>
<path d="M12.5269 21.4125L0 0L0.149963 150L12.5269 129.35V21.4125Z" fill="#454545"/>
<path d="M12.526 50.875C12.526 50.875 16.9049 54.825 23.1734 54.825H39.4193L12.536 57.5L6.26758 61.475L12.536 50.8625L12.526 50.875Z" fill="#212121"/>
</svg>
