<svg width="244" height="74" viewBox="0 0 244 74" fill="none" xmlns="http://www.w3.org/2000/svg">
<g filter="url(#filter0_i_246_47)">
<rect width="244" height="74" rx="6" fill="#564D4D"/>
<g filter="url(#filter1_i_246_47)">
<path d="M38.28 45.16C38.28 45.556 38.352 45.88 38.532 46.132C38.676 46.42 38.892 46.528 39.252 46.528H47.244C47.928 46.528 48.396 46.384 48.684 46.096C48.9 45.844 49.08 45.376 49.224 44.692L51.204 44.296C51.492 44.548 51.852 44.98 52.284 45.556C52.644 46.204 52.968 46.816 53.22 47.464C53.292 47.788 53.328 48.04 53.292 48.256C53.22 48.472 53.076 48.652 52.896 48.796C52.68 48.94 52.464 49.012 52.212 49.048C51.924 49.12 51.636 49.156 51.348 49.156H33.672L32.268 47.896C32.412 47.608 32.556 47.32 32.7 46.996C32.808 46.744 32.916 46.42 33.024 46.06C33.096 45.736 33.132 45.376 33.132 45.016V23.74C33.132 23.632 33.06 23.488 32.988 23.272C32.844 23.128 32.7 22.948 32.556 22.768L33.744 21.94C35.292 22.156 36.444 22.444 37.2 22.804C37.92 23.2 38.28 23.488 38.28 23.668V45.16ZM73.2073 43.864C73.2073 44.656 72.9913 45.34 72.6313 45.988C72.1993 46.672 71.6953 47.248 71.0473 47.716C70.3993 48.22 69.6433 48.58 68.8513 48.832C67.9873 49.12 67.1593 49.264 66.2953 49.264H62.1913C61.3633 49.264 60.5353 49.12 59.7433 48.832C58.9153 48.58 58.1953 48.22 57.5473 47.716C56.8633 47.248 56.3233 46.672 55.9273 45.988C55.4953 45.34 55.2793 44.656 55.2793 43.864V37.276C55.2793 36.628 55.4593 35.98 55.8553 35.368C56.2153 34.792 56.7553 34.288 57.4033 33.82C58.0153 33.388 58.7353 33.064 59.5633 32.776C60.3553 32.56 61.2193 32.416 62.0833 32.416H66.4033C67.2673 32.416 68.0953 32.56 68.9233 32.812C69.7153 33.1 70.4713 33.46 71.1193 33.892C71.7313 34.36 72.2353 34.864 72.6313 35.44C72.9913 36.052 73.2073 36.664 73.2073 37.276V43.864ZM67.8073 36.988C67.8073 36.736 67.7713 36.448 67.6993 36.16C67.5913 35.908 67.4473 35.656 67.3033 35.404C67.0873 35.188 66.8713 34.972 66.6193 34.828C66.3313 34.684 66.0433 34.612 65.6833 34.612H62.9113C62.5513 34.612 62.2633 34.684 62.0113 34.828C61.7233 34.972 61.5073 35.152 61.3273 35.368C61.1113 35.62 60.9673 35.872 60.8953 36.16C60.7513 36.448 60.7153 36.736 60.7153 36.988V44.98C60.7153 45.196 60.7513 45.412 60.8593 45.628C60.9313 45.88 61.0393 46.096 61.2193 46.312C61.3633 46.528 61.5793 46.708 61.8673 46.852C62.1193 46.996 62.4433 47.068 62.8033 47.068H65.7193C66.0793 47.068 66.4033 46.996 66.6913 46.852C66.9433 46.708 67.1593 46.528 67.3393 46.312C67.4833 46.096 67.6273 45.88 67.6993 45.628C67.7713 45.412 67.8073 45.196 67.8073 44.98V36.988ZM89.0451 31.408C89.5491 31.444 90.0531 31.516 90.6291 31.624C91.1331 31.768 91.6371 31.948 92.1051 32.128C92.5371 32.344 92.8971 32.56 93.1851 32.776C93.4371 32.992 93.5811 33.208 93.5811 33.388V49.444C93.5811 50.056 93.4731 50.632 93.2571 51.136C93.0411 51.676 92.7531 52.144 92.4291 52.648C92.0691 53.08 91.6731 53.548 91.2411 53.98C90.8091 54.376 90.3411 54.772 89.9091 55.132C89.4771 55.456 89.0091 55.78 88.4331 56.104C87.8571 56.392 87.2451 56.608 86.6331 56.824C86.1291 56.932 85.6611 57.04 85.1931 57.112C84.6891 57.148 84.1491 57.148 83.5371 57.112C83.3931 57.112 83.2491 57.076 83.0691 57.04C82.8531 56.968 82.6371 56.896 82.4211 56.824C82.2051 56.68 81.9891 56.536 81.8451 56.392C81.6651 56.176 81.5571 55.924 81.5571 55.636L82.9251 54.484C83.1051 54.7 83.3571 54.88 83.6451 54.952C83.8971 55.024 84.1491 55.024 84.3651 54.988C85.0851 54.844 85.6971 54.556 86.2371 54.124C86.7411 53.62 87.2091 53.08 87.5691 52.504C87.8931 51.928 88.1451 51.316 88.3251 50.668C88.4691 50.056 88.5771 49.516 88.5771 49.048V46.816C87.5691 47.464 86.4531 48.04 85.2291 48.472C83.9691 48.94 82.7091 49.156 81.4491 49.156C80.8371 49.156 80.2611 49.012 79.7571 48.724C79.1811 48.436 78.7131 48.076 78.3171 47.572C77.8851 47.104 77.5251 46.564 77.3091 45.952C77.0211 45.376 76.8771 44.8 76.8771 44.152V37.852C76.8771 36.952 77.0931 36.16 77.5611 35.476C77.9931 34.828 78.5331 34.252 79.2171 33.784C79.8651 33.352 80.5851 32.992 81.4131 32.776C82.2051 32.56 82.9611 32.452 83.6811 32.452H85.9491C86.8851 32.452 87.6771 32.56 88.3971 32.74C88.3251 32.452 88.2171 32.272 88.1091 32.128L89.0451 31.408ZM83.0691 46.6C83.5731 46.6 84.0411 46.528 84.5451 46.348C85.0131 46.204 85.4811 45.952 85.9491 45.664C86.3811 45.376 86.8491 45.052 87.2811 44.692C87.7131 44.332 88.1451 43.972 88.5771 43.576V35.764C88.2891 35.512 88.0011 35.296 87.7131 35.08C87.3891 34.936 86.9931 34.828 86.5251 34.828H83.8971C83.2491 34.828 82.7451 35.152 82.4211 35.8C82.0611 36.484 81.9171 37.384 81.9171 38.536V45.484C81.9171 45.808 82.0251 46.06 82.2771 46.276C82.4931 46.492 82.7811 46.6 83.0691 46.6ZM115.184 43.864C115.184 44.656 114.968 45.34 114.608 45.988C114.176 46.672 113.672 47.248 113.024 47.716C112.376 48.22 111.62 48.58 110.828 48.832C109.964 49.12 109.136 49.264 108.272 49.264H104.168C103.34 49.264 102.512 49.12 101.72 48.832C100.892 48.58 100.172 48.22 99.5239 47.716C98.8399 47.248 98.2999 46.672 97.9039 45.988C97.4719 45.34 97.2559 44.656 97.2559 43.864V37.276C97.2559 36.628 97.4359 35.98 97.8319 35.368C98.1919 34.792 98.7319 34.288 99.3799 33.82C99.9919 33.388 100.712 33.064 101.54 32.776C102.332 32.56 103.196 32.416 104.06 32.416H108.38C109.244 32.416 110.072 32.56 110.9 32.812C111.692 33.1 112.448 33.46 113.096 33.892C113.708 34.36 114.212 34.864 114.608 35.44C114.968 36.052 115.184 36.664 115.184 37.276V43.864ZM109.784 36.988C109.784 36.736 109.748 36.448 109.676 36.16C109.568 35.908 109.424 35.656 109.28 35.404C109.064 35.188 108.848 34.972 108.596 34.828C108.308 34.684 108.02 34.612 107.66 34.612H104.888C104.528 34.612 104.24 34.684 103.988 34.828C103.7 34.972 103.484 35.152 103.304 35.368C103.088 35.62 102.944 35.872 102.872 36.16C102.728 36.448 102.692 36.736 102.692 36.988V44.98C102.692 45.196 102.728 45.412 102.836 45.628C102.908 45.88 103.016 46.096 103.196 46.312C103.34 46.528 103.556 46.708 103.844 46.852C104.096 46.996 104.42 47.068 104.78 47.068H107.696C108.056 47.068 108.38 46.996 108.668 46.852C108.92 46.708 109.136 46.528 109.316 46.312C109.46 46.096 109.604 45.88 109.676 45.628C109.748 45.412 109.784 45.196 109.784 44.98V36.988ZM137.25 48.256C137.034 48.436 136.854 48.58 136.71 48.724C136.494 48.868 136.17 49.048 135.702 49.264C135.486 49.336 135.198 49.408 134.766 49.408C134.298 49.48 133.83 49.48 133.362 49.48C132.966 49.48 132.606 49.48 132.318 49.444C131.994 49.444 131.742 49.408 131.598 49.336C130.95 49.084 130.59 48.724 130.518 48.256V45.88C130.086 46.312 129.582 46.744 129.042 47.104C128.466 47.536 127.854 47.86 127.278 48.148C126.63 48.436 126.018 48.688 125.406 48.832C124.758 49.012 124.11 49.084 123.498 49.084C123.066 49.084 122.634 48.94 122.202 48.652C121.734 48.364 121.302 48.004 120.942 47.572C120.546 47.14 120.222 46.672 120.006 46.132C119.718 45.628 119.61 45.16 119.61 44.692V34.504C119.61 34.216 119.502 33.928 119.358 33.604C119.178 33.316 118.998 33.064 118.854 32.848L119.646 32.092C120.438 32.092 121.158 32.164 121.806 32.236C122.418 32.38 122.958 32.488 123.39 32.632C123.786 32.812 124.11 32.992 124.326 33.136C124.542 33.352 124.65 33.496 124.65 33.604V45.448C124.65 45.628 124.686 45.772 124.83 45.844C124.938 45.988 125.082 46.024 125.298 45.952C125.658 45.952 126.162 45.736 126.774 45.376C127.35 45.016 127.926 44.584 128.502 44.08C129.042 43.576 129.51 43.036 129.942 42.46C130.302 41.92 130.518 41.416 130.518 40.948V34.396C130.518 34.072 130.446 33.748 130.302 33.424C130.158 33.136 130.014 32.92 129.87 32.704L130.59 31.948C131.166 31.948 131.778 32.02 132.39 32.128C132.966 32.272 133.506 32.416 134.01 32.56C134.478 32.776 134.874 32.956 135.198 33.136C135.486 33.352 135.63 33.532 135.63 33.676V46.42C135.63 46.744 135.666 46.996 135.774 47.176C135.846 47.392 136.134 47.464 136.566 47.392L137.25 48.256ZM149.445 48.328C149.229 48.544 148.977 48.76 148.725 48.94C148.437 49.156 147.969 49.3 147.357 49.444C146.853 49.516 146.385 49.552 145.917 49.552C145.413 49.552 145.053 49.552 144.801 49.516C143.829 49.444 143.217 49.156 142.965 48.652C142.677 48.22 142.569 47.536 142.569 46.636V34.432H142.101C141.921 34.432 141.813 34.432 141.741 34.432C141.633 34.432 141.525 34.468 141.417 34.504C140.913 34.648 140.301 34.468 139.653 33.964C139.437 33.784 139.293 33.64 139.221 33.496C139.077 33.388 138.969 33.28 138.897 33.136L138.537 32.668L139.293 32.128H142.569V27.268C142.569 27.16 142.533 27.016 142.461 26.8C142.353 26.656 142.245 26.476 142.137 26.296L143.217 25.504C144.729 25.72 145.845 25.972 146.601 26.332C147.321 26.728 147.681 27.016 147.681 27.196V32.128C147.969 32.128 148.221 32.092 148.473 32.02C148.689 31.984 148.869 31.84 149.085 31.552L150.597 31.336C150.813 31.552 150.993 31.804 151.209 32.02C151.353 32.308 151.533 32.56 151.749 32.812C151.857 32.992 151.929 33.136 151.965 33.28C151.965 33.424 151.965 33.568 151.929 33.676C151.857 33.82 151.821 33.892 151.749 33.964C151.641 34.072 151.533 34.144 151.461 34.216C151.281 34.36 151.029 34.396 150.669 34.396C150.273 34.432 149.949 34.432 149.697 34.432H147.717V46.204C147.717 46.492 147.753 46.744 147.897 46.996C148.005 47.284 148.257 47.392 148.689 47.248L149.445 48.328Z" fill="white"/>
</g>
<g filter="url(#filter2_i_246_47)">
<path d="M169 37C169 37.5967 169.237 38.169 169.659 38.591C170.081 39.0129 170.653 39.25 171.25 39.25H188.328L183.152 44.4025C182.942 44.6117 182.774 44.8605 182.66 45.1347C182.546 45.4089 182.487 45.703 182.487 46C182.487 46.297 182.546 46.5911 182.66 46.8653C182.774 47.1395 182.942 47.3883 183.152 47.5975C183.362 47.8084 183.611 47.9758 183.885 48.09C184.159 48.2042 184.453 48.263 184.75 48.263C185.047 48.263 185.341 48.2042 185.615 48.09C185.889 47.9758 186.138 47.8084 186.348 47.5975L195.348 38.5975C195.552 38.3835 195.713 38.1312 195.82 37.855C196.045 37.3072 196.045 36.6928 195.82 36.145C195.713 35.8688 195.552 35.6165 195.348 35.4025L186.348 26.4025C186.138 26.1927 185.889 26.0263 185.615 25.9128C185.34 25.7992 185.047 25.7408 184.75 25.7408C184.453 25.7408 184.16 25.7992 183.885 25.9128C183.611 26.0263 183.362 26.1927 183.152 26.4025C182.943 26.6123 182.776 26.8613 182.663 27.1354C182.549 27.4095 182.491 27.7033 182.491 28C182.491 28.2967 182.549 28.5905 182.663 28.8646C182.776 29.1387 182.943 29.3877 183.152 29.5975L188.328 34.75H171.25C170.653 34.75 170.081 34.9871 169.659 35.409C169.237 35.831 169 36.4033 169 37V37ZM198.25 14.5H175.75C173.96 14.5 172.243 15.2112 170.977 16.477C169.711 17.7429 169 19.4598 169 21.25V28C169 28.5967 169.237 29.169 169.659 29.591C170.081 30.0129 170.653 30.25 171.25 30.25C171.847 30.25 172.419 30.0129 172.841 29.591C173.263 29.169 173.5 28.5967 173.5 28V21.25C173.5 20.6533 173.737 20.081 174.159 19.659C174.581 19.2371 175.153 19 175.75 19H198.25C198.847 19 199.419 19.2371 199.841 19.659C200.263 20.081 200.5 20.6533 200.5 21.25V52.75C200.5 53.3467 200.263 53.919 199.841 54.341C199.419 54.7629 198.847 55 198.25 55H175.75C175.153 55 174.581 54.7629 174.159 54.341C173.737 53.919 173.5 53.3467 173.5 52.75V46C173.5 45.4033 173.263 44.831 172.841 44.409C172.419 43.9871 171.847 43.75 171.25 43.75C170.653 43.75 170.081 43.9871 169.659 44.409C169.237 44.831 169 45.4033 169 46V52.75C169 54.5402 169.711 56.2571 170.977 57.523C172.243 58.7888 173.96 59.5 175.75 59.5H198.25C200.04 59.5 201.757 58.7888 203.023 57.523C204.289 56.2571 205 54.5402 205 52.75V21.25C205 19.4598 204.289 17.7429 203.023 16.477C201.757 15.2112 200.04 14.5 198.25 14.5Z" fill="white"/>
</g>
</g>
<defs>
<filter id="filter0_i_246_47" x="0" y="0" width="246" height="74" filterUnits="userSpaceOnUse" color-interpolation-filters="sRGB">
<feFlood flood-opacity="0" result="BackgroundImageFix"/>
<feBlend mode="normal" in="SourceGraphic" in2="BackgroundImageFix" result="shape"/>
<feColorMatrix in="SourceAlpha" type="matrix" values="0 0 0 0 0 0 0 0 0 0 0 0 0 0 0 0 0 0 127 0" result="hardAlpha"/>
<feOffset dx="2"/>
<feGaussianBlur stdDeviation="1.5"/>
<feComposite in2="hardAlpha" operator="arithmetic" k2="-1" k3="1"/>
<feColorMatrix type="matrix" values="0 0 0 0 0 0 0 0 0 0 0 0 0 0 0 0 0 0 0.25 0"/>
<feBlend mode="normal" in2="shape" result="effect1_innerShadow_246_47"/>
</filter>
<filter id="filter1_i_246_47" x="32.2676" y="21.94" width="121.697" height="35.208" filterUnits="userSpaceOnUse" color-interpolation-filters="sRGB">
<feFlood flood-opacity="0" result="BackgroundImageFix"/>
<feBlend mode="normal" in="SourceGraphic" in2="BackgroundImageFix" result="shape"/>
<feColorMatrix in="SourceAlpha" type="matrix" values="0 0 0 0 0 0 0 0 0 0 0 0 0 0 0 0 0 0 127 0" result="hardAlpha"/>
<feOffset dx="2"/>
<feGaussianBlur stdDeviation="1.5"/>
<feComposite in2="hardAlpha" operator="arithmetic" k2="-1" k3="1"/>
<feColorMatrix type="matrix" values="0 0 0 0 0 0 0 0 0 0 0 0 0 0 0 0 0 0 0.25 0"/>
<feBlend mode="normal" in2="shape" result="effect1_innerShadow_246_47"/>
</filter>
<filter id="filter2_i_246_47" x="169" y="14.5" width="38" height="45" filterUnits="userSpaceOnUse" color-interpolation-filters="sRGB">
<feFlood flood-opacity="0" result="BackgroundImageFix"/>
<feBlend mode="normal" in="SourceGraphic" in2="BackgroundImageFix" result="shape"/>
<feColorMatrix in="SourceAlpha" type="matrix" values="0 0 0 0 0 0 0 0 0 0 0 0 0 0 0 0 0 0 127 0" result="hardAlpha"/>
<feOffset dx="2"/>
<feGaussianBlur stdDeviation="1.5"/>
<feComposite in2="hardAlpha" operator="arithmetic" k2="-1" k3="1"/>
<feColorMatrix type="matrix" values="0 0 0 0 0 0 0 0 0 0 0 0 0 0 0 0 0 0 0.25 0"/>
<feBlend mode="normal" in2="shape" result="effect1_innerShadow_246_47"/>
</filter>
</defs>
</svg>
