<svg width="184" height="54" viewBox="0 0 184 54" fill="none" xmlns="http://www.w3.org/2000/svg">
<g filter="url(#filter0_i_189_574)">
<path d="M8.28 34.66C8.28 35.056 8.352 35.38 8.532 35.632C8.676 35.92 8.892 36.028 9.252 36.028H17.244C17.928 36.028 18.396 35.884 18.684 35.596C18.9 35.344 19.08 34.876 19.224 34.192L21.204 33.796C21.492 34.048 21.852 34.48 22.284 35.056C22.644 35.704 22.968 36.316 23.22 36.964C23.292 37.288 23.328 37.54 23.292 37.756C23.22 37.972 23.076 38.152 22.896 38.296C22.68 38.44 22.464 38.512 22.212 38.548C21.924 38.62 21.636 38.656 21.348 38.656H3.672L2.268 37.396C2.412 37.108 2.556 36.82 2.7 36.496C2.808 36.244 2.916 35.92 3.024 35.56C3.096 35.236 3.132 34.876 3.132 34.516V13.24C3.132 13.132 3.06 12.988 2.988 12.772C2.844 12.628 2.7 12.448 2.556 12.268L3.744 11.44C5.292 11.656 6.444 11.944 7.2 12.304C7.92 12.7 8.28 12.988 8.28 13.168V34.66ZM43.2073 33.364C43.2073 34.156 42.9913 34.84 42.6313 35.488C42.1993 36.172 41.6953 36.748 41.0473 37.216C40.3993 37.72 39.6433 38.08 38.8513 38.332C37.9873 38.62 37.1593 38.764 36.2953 38.764H32.1913C31.3633 38.764 30.5353 38.62 29.7433 38.332C28.9153 38.08 28.1953 37.72 27.5473 37.216C26.8633 36.748 26.3233 36.172 25.9273 35.488C25.4953 34.84 25.2793 34.156 25.2793 33.364V26.776C25.2793 26.128 25.4593 25.48 25.8553 24.868C26.2153 24.292 26.7553 23.788 27.4033 23.32C28.0153 22.888 28.7353 22.564 29.5633 22.276C30.3553 22.06 31.2193 21.916 32.0833 21.916H36.4033C37.2673 21.916 38.0953 22.06 38.9233 22.312C39.7153 22.6 40.4713 22.96 41.1193 23.392C41.7313 23.86 42.2353 24.364 42.6313 24.94C42.9913 25.552 43.2073 26.164 43.2073 26.776V33.364ZM37.8073 26.488C37.8073 26.236 37.7713 25.948 37.6993 25.66C37.5913 25.408 37.4473 25.156 37.3033 24.904C37.0873 24.688 36.8713 24.472 36.6193 24.328C36.3313 24.184 36.0433 24.112 35.6833 24.112H32.9113C32.5513 24.112 32.2633 24.184 32.0113 24.328C31.7233 24.472 31.5073 24.652 31.3273 24.868C31.1113 25.12 30.9673 25.372 30.8953 25.66C30.7513 25.948 30.7153 26.236 30.7153 26.488V34.48C30.7153 34.696 30.7513 34.912 30.8593 35.128C30.9313 35.38 31.0393 35.596 31.2193 35.812C31.3633 36.028 31.5793 36.208 31.8673 36.352C32.1193 36.496 32.4433 36.568 32.8033 36.568H35.7193C36.0793 36.568 36.4033 36.496 36.6913 36.352C36.9433 36.208 37.1593 36.028 37.3393 35.812C37.4833 35.596 37.6273 35.38 37.6993 35.128C37.7713 34.912 37.8073 34.696 37.8073 34.48V26.488ZM59.0451 20.908C59.5491 20.944 60.0531 21.016 60.6291 21.124C61.1331 21.268 61.6371 21.448 62.1051 21.628C62.5371 21.844 62.8971 22.06 63.1851 22.276C63.4371 22.492 63.5811 22.708 63.5811 22.888V38.944C63.5811 39.556 63.4731 40.132 63.2571 40.636C63.0411 41.176 62.7531 41.644 62.4291 42.148C62.0691 42.58 61.6731 43.048 61.2411 43.48C60.8091 43.876 60.3411 44.272 59.9091 44.632C59.4771 44.956 59.0091 45.28 58.4331 45.604C57.8571 45.892 57.2451 46.108 56.6331 46.324C56.1291 46.432 55.6611 46.54 55.1931 46.612C54.6891 46.648 54.1491 46.648 53.5371 46.612C53.3931 46.612 53.2491 46.576 53.0691 46.54C52.8531 46.468 52.6371 46.396 52.4211 46.324C52.2051 46.18 51.9891 46.036 51.8451 45.892C51.6651 45.676 51.5571 45.424 51.5571 45.136L52.9251 43.984C53.1051 44.2 53.3571 44.38 53.6451 44.452C53.8971 44.524 54.1491 44.524 54.3651 44.488C55.0851 44.344 55.6971 44.056 56.2371 43.624C56.7411 43.12 57.2091 42.58 57.5691 42.004C57.8931 41.428 58.1451 40.816 58.3251 40.168C58.4691 39.556 58.5771 39.016 58.5771 38.548V36.316C57.5691 36.964 56.4531 37.54 55.2291 37.972C53.9691 38.44 52.7091 38.656 51.4491 38.656C50.8371 38.656 50.2611 38.512 49.7571 38.224C49.1811 37.936 48.7131 37.576 48.3171 37.072C47.8851 36.604 47.5251 36.064 47.3091 35.452C47.0211 34.876 46.8771 34.3 46.8771 33.652V27.352C46.8771 26.452 47.0931 25.66 47.5611 24.976C47.9931 24.328 48.5331 23.752 49.2171 23.284C49.8651 22.852 50.5851 22.492 51.4131 22.276C52.2051 22.06 52.9611 21.952 53.6811 21.952H55.9491C56.8851 21.952 57.6771 22.06 58.3971 22.24C58.3251 21.952 58.2171 21.772 58.1091 21.628L59.0451 20.908ZM53.0691 36.1C53.5731 36.1 54.0411 36.028 54.5451 35.848C55.0131 35.704 55.4811 35.452 55.9491 35.164C56.3811 34.876 56.8491 34.552 57.2811 34.192C57.7131 33.832 58.1451 33.472 58.5771 33.076V25.264C58.2891 25.012 58.0011 24.796 57.7131 24.58C57.3891 24.436 56.9931 24.328 56.5251 24.328H53.8971C53.2491 24.328 52.7451 24.652 52.4211 25.3C52.0611 25.984 51.9171 26.884 51.9171 28.036V34.984C51.9171 35.308 52.0251 35.56 52.2771 35.776C52.4931 35.992 52.7811 36.1 53.0691 36.1ZM85.1839 33.364C85.1839 34.156 84.9679 34.84 84.6079 35.488C84.1759 36.172 83.6719 36.748 83.0239 37.216C82.3759 37.72 81.6199 38.08 80.8279 38.332C79.9639 38.62 79.1359 38.764 78.2719 38.764H74.1679C73.3399 38.764 72.5119 38.62 71.7199 38.332C70.8919 38.08 70.1719 37.72 69.5239 37.216C68.8399 36.748 68.2999 36.172 67.9039 35.488C67.4719 34.84 67.2559 34.156 67.2559 33.364V26.776C67.2559 26.128 67.4359 25.48 67.8319 24.868C68.1919 24.292 68.7319 23.788 69.3799 23.32C69.9919 22.888 70.7119 22.564 71.5399 22.276C72.3319 22.06 73.1959 21.916 74.0599 21.916H78.3799C79.2439 21.916 80.0719 22.06 80.8999 22.312C81.6919 22.6 82.4479 22.96 83.0959 23.392C83.7079 23.86 84.2119 24.364 84.6079 24.94C84.9679 25.552 85.1839 26.164 85.1839 26.776V33.364ZM79.7839 26.488C79.7839 26.236 79.7479 25.948 79.6759 25.66C79.5679 25.408 79.4239 25.156 79.2799 24.904C79.0639 24.688 78.8479 24.472 78.5959 24.328C78.3079 24.184 78.0199 24.112 77.6599 24.112H74.8879C74.5279 24.112 74.2399 24.184 73.9879 24.328C73.6999 24.472 73.4839 24.652 73.3039 24.868C73.0879 25.12 72.9439 25.372 72.8719 25.66C72.7279 25.948 72.6919 26.236 72.6919 26.488V34.48C72.6919 34.696 72.7279 34.912 72.8359 35.128C72.9079 35.38 73.0159 35.596 73.1959 35.812C73.3399 36.028 73.5559 36.208 73.8439 36.352C74.0959 36.496 74.4199 36.568 74.7799 36.568H77.6959C78.0559 36.568 78.3799 36.496 78.6679 36.352C78.9199 36.208 79.1359 36.028 79.3159 35.812C79.4599 35.596 79.6039 35.38 79.6759 35.128C79.7479 34.912 79.7839 34.696 79.7839 34.48V26.488ZM107.25 37.756C107.034 37.936 106.854 38.08 106.71 38.224C106.494 38.368 106.17 38.548 105.702 38.764C105.486 38.836 105.198 38.908 104.766 38.908C104.298 38.98 103.83 38.98 103.362 38.98C102.966 38.98 102.606 38.98 102.318 38.944C101.994 38.944 101.742 38.908 101.598 38.836C100.95 38.584 100.59 38.224 100.518 37.756V35.38C100.086 35.812 99.5816 36.244 99.0416 36.604C98.4656 37.036 97.8536 37.36 97.2776 37.648C96.6296 37.936 96.0176 38.188 95.4056 38.332C94.7576 38.512 94.1096 38.584 93.4976 38.584C93.0656 38.584 92.6336 38.44 92.2016 38.152C91.7336 37.864 91.3016 37.504 90.9416 37.072C90.5456 36.64 90.2216 36.172 90.0056 35.632C89.7176 35.128 89.6096 34.66 89.6096 34.192V24.004C89.6096 23.716 89.5016 23.428 89.3576 23.104C89.1776 22.816 88.9976 22.564 88.8536 22.348L89.6456 21.592C90.4376 21.592 91.1576 21.664 91.8056 21.736C92.4176 21.88 92.9576 21.988 93.3896 22.132C93.7856 22.312 94.1096 22.492 94.3256 22.636C94.5416 22.852 94.6496 22.996 94.6496 23.104V34.948C94.6496 35.128 94.6856 35.272 94.8296 35.344C94.9376 35.488 95.0816 35.524 95.2976 35.452C95.6576 35.452 96.1616 35.236 96.7736 34.876C97.3496 34.516 97.9256 34.084 98.5016 33.58C99.0416 33.076 99.5096 32.536 99.9416 31.96C100.302 31.42 100.518 30.916 100.518 30.448V23.896C100.518 23.572 100.446 23.248 100.302 22.924C100.158 22.636 100.014 22.42 99.8696 22.204L100.59 21.448C101.166 21.448 101.778 21.52 102.39 21.628C102.966 21.772 103.506 21.916 104.01 22.06C104.478 22.276 104.874 22.456 105.198 22.636C105.486 22.852 105.63 23.032 105.63 23.176V35.92C105.63 36.244 105.666 36.496 105.774 36.676C105.846 36.892 106.134 36.964 106.566 36.892L107.25 37.756ZM119.445 37.828C119.229 38.044 118.977 38.26 118.725 38.44C118.437 38.656 117.969 38.8 117.357 38.944C116.853 39.016 116.385 39.052 115.917 39.052C115.413 39.052 115.053 39.052 114.801 39.016C113.829 38.944 113.217 38.656 112.965 38.152C112.677 37.72 112.569 37.036 112.569 36.136V23.932H112.101C111.921 23.932 111.813 23.932 111.741 23.932C111.633 23.932 111.525 23.968 111.417 24.004C110.913 24.148 110.301 23.968 109.653 23.464C109.437 23.284 109.293 23.14 109.221 22.996C109.077 22.888 108.969 22.78 108.897 22.636L108.537 22.168L109.293 21.628H112.569V16.768C112.569 16.66 112.533 16.516 112.461 16.3C112.353 16.156 112.245 15.976 112.137 15.796L113.217 15.004C114.729 15.22 115.845 15.472 116.601 15.832C117.321 16.228 117.681 16.516 117.681 16.696V21.628C117.969 21.628 118.221 21.592 118.473 21.52C118.689 21.484 118.869 21.34 119.085 21.052L120.597 20.836C120.813 21.052 120.993 21.304 121.209 21.52C121.353 21.808 121.533 22.06 121.749 22.312C121.857 22.492 121.929 22.636 121.965 22.78C121.965 22.924 121.965 23.068 121.929 23.176C121.857 23.32 121.821 23.392 121.749 23.464C121.641 23.572 121.533 23.644 121.461 23.716C121.281 23.86 121.029 23.896 120.669 23.896C120.273 23.932 119.949 23.932 119.697 23.932H117.717V35.704C117.717 35.992 117.753 36.244 117.897 36.496C118.005 36.784 118.257 36.892 118.689 36.748L119.445 37.828Z" fill="white"/>
</g>
<g filter="url(#filter1_i_189_574)">
<path d="M139 27C139 27.5967 139.237 28.169 139.659 28.591C140.081 29.0129 140.653 29.25 141.25 29.25H158.327L153.153 34.4025C152.942 34.6117 152.774 34.8605 152.66 35.1347C152.546 35.4089 152.487 35.703 152.487 36C152.487 36.297 152.546 36.5911 152.66 36.8653C152.774 37.1395 152.942 37.3883 153.153 37.5975C153.362 37.8084 153.611 37.9758 153.885 38.09C154.159 38.2042 154.453 38.263 154.75 38.263C155.047 38.263 155.341 38.2042 155.615 38.09C155.889 37.9758 156.138 37.8084 156.347 37.5975L165.347 28.5975C165.552 28.3835 165.713 28.1312 165.82 27.855C166.045 27.3072 166.045 26.6928 165.82 26.145C165.713 25.8688 165.552 25.6165 165.347 25.4025L156.347 16.4025C156.138 16.1927 155.889 16.0263 155.615 15.9128C155.34 15.7992 155.047 15.7408 154.75 15.7408C154.453 15.7408 154.16 15.7992 153.885 15.9128C153.611 16.0263 153.362 16.1927 153.153 16.4025C152.943 16.6123 152.776 16.8613 152.663 17.1354C152.549 17.4095 152.491 17.7033 152.491 18C152.491 18.2967 152.549 18.5905 152.663 18.8646C152.776 19.1387 152.943 19.3877 153.153 19.5975L158.327 24.75H141.25C140.653 24.75 140.081 24.9871 139.659 25.409C139.237 25.831 139 26.4033 139 27ZM168.25 4.5H145.75C143.96 4.5 142.243 5.21116 140.977 6.47703C139.711 7.7429 139 9.45979 139 11.25V18C139 18.5967 139.237 19.169 139.659 19.591C140.081 20.0129 140.653 20.25 141.25 20.25C141.847 20.25 142.419 20.0129 142.841 19.591C143.263 19.169 143.5 18.5967 143.5 18V11.25C143.5 10.6533 143.737 10.081 144.159 9.65901C144.581 9.23705 145.153 9 145.75 9H168.25C168.847 9 169.419 9.23705 169.841 9.65901C170.263 10.081 170.5 10.6533 170.5 11.25V42.75C170.5 43.3467 170.263 43.919 169.841 44.341C169.419 44.7629 168.847 45 168.25 45H145.75C145.153 45 144.581 44.7629 144.159 44.341C143.737 43.919 143.5 43.3467 143.5 42.75V36C143.5 35.4033 143.263 34.831 142.841 34.409C142.419 33.9871 141.847 33.75 141.25 33.75C140.653 33.75 140.081 33.9871 139.659 34.409C139.237 34.831 139 35.4033 139 36V42.75C139 44.5402 139.711 46.2571 140.977 47.523C142.243 48.7888 143.96 49.5 145.75 49.5H168.25C170.04 49.5 171.757 48.7888 173.023 47.523C174.289 46.2571 175 44.5402 175 42.75V11.25C175 9.45979 174.289 7.7429 173.023 6.47703C171.757 5.21116 170.04 4.5 168.25 4.5Z" fill="white"/>
</g>
<defs>
<filter id="filter0_i_189_574" x="2.26758" y="11.44" width="121.697" height="37.208" filterUnits="userSpaceOnUse" color-interpolation-filters="sRGB">
<feFlood flood-opacity="0" result="BackgroundImageFix"/>
<feBlend mode="normal" in="SourceGraphic" in2="BackgroundImageFix" result="shape"/>
<feColorMatrix in="SourceAlpha" type="matrix" values="0 0 0 0 0 0 0 0 0 0 0 0 0 0 0 0 0 0 127 0" result="hardAlpha"/>
<feOffset dx="2" dy="2"/>
<feGaussianBlur stdDeviation="1.5"/>
<feComposite in2="hardAlpha" operator="arithmetic" k2="-1" k3="1"/>
<feColorMatrix type="matrix" values="0 0 0 0 0 0 0 0 0 0 0 0 0 0 0 0 0 0 0.25 0"/>
<feBlend mode="normal" in2="shape" result="effect1_innerShadow_189_574"/>
</filter>
<filter id="filter1_i_189_574" x="139" y="4.5" width="38" height="47" filterUnits="userSpaceOnUse" color-interpolation-filters="sRGB">
<feFlood flood-opacity="0" result="BackgroundImageFix"/>
<feBlend mode="normal" in="SourceGraphic" in2="BackgroundImageFix" result="shape"/>
<feColorMatrix in="SourceAlpha" type="matrix" values="0 0 0 0 0 0 0 0 0 0 0 0 0 0 0 0 0 0 127 0" result="hardAlpha"/>
<feOffset dx="2" dy="2"/>
<feGaussianBlur stdDeviation="1.5"/>
<feComposite in2="hardAlpha" operator="arithmetic" k2="-1" k3="1"/>
<feColorMatrix type="matrix" values="0 0 0 0 0 0 0 0 0 0 0 0 0 0 0 0 0 0 0.25 0"/>
<feBlend mode="normal" in2="shape" result="effect1_innerShadow_189_574"/>
</filter>
</defs>
</svg>
