<svg width="330" height="100" viewBox="0 0 330 100" fill="none" xmlns="http://www.w3.org/2000/svg">
<path d="M313.013 14.2791H14.7617V86.2415H313.013V14.2791Z" fill="#5B2E2E"/>
<path d="M14.7627 14.2791L0 0H330L313.02 14.2791H14.7627Z" fill="#89504E"/>
<path d="M329.999 0L313.02 14.2791V86.2369L329.999 100V0Z" fill="#9A736F"/>
<path d="M14.7623 86.2369L0.173828 100H330L313.02 86.2369H14.7623Z" fill="#391E1E"/>
<path d="M51.2285 14.2791L64.9698 18.8482L78.2544 15.4178L97.2349 14.2791H51.2285Z" fill="#89504E"/>
<path d="M51.2285 14.2791C51.2285 14.2791 64.3028 11.0161 74.2347 11.2206C84.1666 11.4251 97.2409 14.2791 97.2409 14.2791H51.2285Z" fill="#391E1E"/>
<path d="M208.018 86.2369L214.092 94.8034L231.811 77.6703L208.018 86.2369Z" fill="#391E1E"/>
<path d="M231.811 77.6703L227.07 93.1207L214.092 94.8034L231.811 77.6703Z" fill="#89504E"/>
<path d="M253.525 75.9598C253.525 75.9598 272.644 73.8868 281.651 74.0216C290.657 74.1564 296.534 74.9884 296.534 74.9884L313.591 74.0216L315.971 76.6896L312.684 75.3509L295.08 75.9598H253.525V75.9598Z" fill="#391E1E"/>
<path d="M42.2695 86.2369L74.2283 89.63L104.378 86.2369H42.2695Z" fill="#89504E"/>
<path d="M42.2695 86.2369L62.0132 82.8112L85.7103 84.5264H97.2345L104.378 86.2369H42.2695Z" fill="#391E1E"/>
<path d="M313.76 28.5535L307.421 27.4333L286.896 33.9174L299.959 32.7368L323.356 32.5555L313.76 28.5535Z" fill="#391E1E"/>
<path d="M286.896 33.9174L313.021 37.4547L323.356 32.5555L313.021 32.7368H299.959L286.896 33.9174Z" fill="#89504E"/>
<path d="M282.533 69.0899L290.134 67.8953L295.77 68.4949L309.715 67.5002L327.783 69.0899H282.533Z" fill="#391E1E"/>
<path d="M14.7627 14.2791L0 0L0.174244 100L14.7627 86.2369V14.2791Z" fill="#441F1F"/>
<path d="M14.7631 33.9174C14.7631 33.9174 19.9303 36.5529 27.3147 36.5529H46.4635L14.7691 38.3378L7.38477 40.9919L14.7691 33.9174H14.7631Z" fill="#391E1E"/>
<g filter="url(#filter0_i_257_49)">
<path d="M114.844 47.828C114.844 48.404 114.628 48.836 114.196 49.196C113.728 49.556 113.224 49.736 112.684 49.736L103.576 49.7V50.06C103.144 50.42 102.568 50.636 101.92 50.708C101.236 50.852 100.66 50.888 100.156 50.888C99.4716 50.888 98.8236 50.816 98.2476 50.636C97.6356 50.492 97.0596 50.204 96.5196 49.772L96.9156 48.26C97.2396 48.44 97.5276 48.476 97.8156 48.368C98.0676 48.296 98.2116 48.044 98.2116 47.612V37.496C98.2116 37.244 98.1396 36.992 98.0676 36.704C97.9236 36.488 97.8156 36.272 97.7076 36.056L98.3556 35.012C99.2196 35.12 100.012 35.228 100.66 35.372C101.308 35.552 101.812 35.732 102.244 35.876C102.64 36.056 102.964 36.2 103.18 36.344C103.36 36.488 103.468 36.632 103.504 36.704L103.468 41.96C104.296 41.24 105.16 40.628 106.096 40.196C106.996 39.764 108.184 39.512 109.624 39.404V36.416C109.624 35.84 109.516 35.372 109.3 35.012L109.624 34.04C110.236 34.04 110.848 34.04 111.46 34.076C112.036 34.148 112.504 34.184 112.864 34.256C113.584 34.472 114.196 34.652 114.664 34.868C115.096 35.12 115.348 35.372 115.348 35.66C115.348 36.02 115.276 36.308 115.204 36.524C115.06 36.812 114.952 37.064 114.844 37.316V47.828ZM117.04 54.236C117.076 54.236 117.112 54.236 117.148 54.236C117.148 54.272 117.184 54.272 117.256 54.272C118.048 54.488 118.804 54.74 119.596 55.028C120.352 55.352 121.036 55.748 121.648 56.252C122.224 56.756 122.728 57.368 123.088 58.052C123.412 58.772 123.556 59.636 123.52 60.608C123.448 61.724 123.124 62.66 122.512 63.38C121.864 64.172 121.108 64.784 120.208 65.252C119.272 65.72 118.264 66.08 117.184 66.296C116.068 66.512 115.024 66.62 114.052 66.62C113.152 66.62 112.18 66.512 111.136 66.296C110.056 66.08 109.048 65.72 108.112 65.252C107.176 64.748 106.384 64.1 105.772 63.308C105.124 62.516 104.836 61.544 104.836 60.392C104.836 59.348 105.052 58.448 105.484 57.728C105.88 57.008 106.42 56.396 107.14 55.892C107.824 55.424 108.616 55.028 109.552 54.74C110.416 54.452 111.352 54.236 112.324 54.02H112.288C112.324 54.02 112.36 54.02 112.36 54.02C112.36 54.02 112.36 54.02 112.432 53.948C112.396 53.948 112.396 53.948 112.396 53.912C112.36 53.84 112.324 53.804 112.252 53.732C112.144 53.696 112.036 53.66 111.964 53.588C111.82 53.552 111.712 53.516 111.568 53.444L111.604 52.292C111.82 52.22 112.108 52.184 112.396 52.112C112.648 52.076 112.936 52.04 113.296 52.004C113.584 52.004 113.944 52.04 114.376 52.076C114.736 52.148 115.06 52.184 115.348 52.22C115.564 52.292 115.78 52.364 115.96 52.4C116.104 52.472 116.212 52.508 116.32 52.544C116.392 52.616 116.5 52.688 116.608 52.76C116.788 52.976 116.896 53.12 116.968 53.264C117.004 53.408 116.932 53.588 116.752 53.768C116.68 53.84 116.68 53.84 116.716 53.84C116.716 53.84 116.716 53.912 116.716 53.984C116.788 54.128 116.896 54.2 117.04 54.2V54.236ZM123.772 42.644C124.312 42.608 124.78 42.5 125.14 42.356C125.5 42.212 125.788 42.068 126.004 41.852C126.22 41.708 126.364 41.528 126.472 41.348C126.544 41.204 126.652 41.06 126.724 40.916L128.488 40.664C128.632 40.808 128.812 40.952 129.028 41.168C129.208 41.384 129.424 41.636 129.64 41.924C129.856 42.212 130.036 42.536 130.252 42.824C130.396 43.184 130.54 43.508 130.612 43.832C130.648 44.048 130.684 44.228 130.72 44.408C130.72 44.624 130.612 44.84 130.36 45.056L130.324 45.092C129.964 45.308 129.532 45.344 128.992 45.2C128.416 45.092 127.876 45.02 127.372 44.984H123.772V49.016C123.772 50.024 123.52 50.744 123.052 51.14C122.548 51.572 121.756 51.788 120.712 51.788C119.92 51.788 119.236 51.68 118.66 51.392C118.048 51.14 117.472 50.708 116.932 50.132L117.508 49.196C117.796 49.412 118.048 49.412 118.264 49.268C118.408 49.16 118.516 48.908 118.516 48.476V33.608C118.516 33.464 118.444 33.284 118.372 33.068C118.228 32.888 118.12 32.708 117.976 32.564L119.164 31.664C120.712 31.844 121.864 32.132 122.656 32.492C123.376 32.888 123.772 33.176 123.772 33.356V42.644ZM110.164 60.284C110.164 60.824 110.272 61.328 110.488 61.76C110.668 62.228 110.956 62.624 111.316 62.984C111.676 63.344 112.072 63.596 112.576 63.776C113.044 63.992 113.548 64.064 114.124 64.064C114.628 64.064 115.096 63.992 115.6 63.776C116.032 63.632 116.464 63.38 116.824 63.02C117.184 62.696 117.472 62.3 117.688 61.796C117.904 61.364 118.012 60.86 118.012 60.284C118.012 59.06 117.688 58.124 117.076 57.404C116.428 56.72 115.456 56.36 114.124 56.36C112.9 56.36 111.964 56.72 111.28 57.404C110.56 58.124 110.164 59.06 110.164 60.284ZM109.624 41.78C108.472 41.78 107.392 42.068 106.456 42.644C105.484 43.256 104.512 43.94 103.576 44.732V47.396H108.832C109.156 47.396 109.372 47.288 109.48 47.072C109.552 46.892 109.624 46.388 109.624 45.56V41.78ZM137.14 52.292C136.492 52.292 135.88 52.22 135.304 52.076C134.692 51.968 134.116 51.68 133.54 51.176L133.72 49.916C134.224 50.06 134.584 50.096 134.8 49.988C134.944 49.916 135.016 49.772 135.088 49.556C135.088 49.412 135.124 49.124 135.124 48.764V37.172C135.124 36.992 135.088 36.812 135.016 36.668C134.908 36.56 134.8 36.416 134.692 36.2L135.952 35.264C136.708 35.372 137.392 35.516 137.968 35.66C138.544 35.876 139.012 36.056 139.408 36.236C139.768 36.452 140.056 36.632 140.272 36.776C140.452 36.956 140.56 37.1 140.56 37.172V37.568C140.596 37.532 140.812 37.424 141.172 37.208C141.496 37.028 141.964 36.812 142.612 36.524C143.548 36.164 144.448 35.912 145.24 35.696C145.996 35.552 146.86 35.444 147.796 35.444C148.228 35.444 148.732 35.552 149.236 35.732C149.704 35.948 150.136 36.128 150.568 36.308C151.072 36.596 151.468 36.812 151.792 37.028C152.08 37.244 152.296 37.46 152.476 37.604C152.62 37.784 152.692 37.928 152.764 38C152.8 38.108 152.836 38.18 152.836 38.216C152.836 38.396 152.764 38.684 152.692 39.08C152.548 39.512 152.404 39.908 152.26 40.304C152.26 40.304 152.26 40.52 152.26 40.916C152.224 41.348 152.224 41.852 152.224 42.464C152.188 43.112 152.152 43.796 152.152 44.516C152.116 45.272 152.08 45.956 152.08 46.604C152.044 47.288 152.008 47.864 152.008 48.332C151.972 48.836 151.972 49.16 151.972 49.268C151.9 49.844 151.648 50.312 151.252 50.6C150.82 50.924 150.316 51.104 149.704 51.104H140.56V51.5C139.984 51.788 139.444 52.004 138.904 52.112C138.328 52.256 137.752 52.292 137.14 52.292ZM160.792 55.028C160.792 55.424 160.756 55.748 160.72 55.964C160.648 56.252 160.576 56.468 160.468 56.612C160.324 56.828 160.18 56.972 160.036 57.08C159.82 57.224 159.604 57.368 159.316 57.512C159.1 57.656 158.884 57.728 158.632 57.728C158.344 57.8 158.056 57.8 157.732 57.8C156.256 57.8 154.96 57.224 153.844 56.036L154.42 55.1C154.6 55.172 154.78 55.208 154.96 55.244C155.104 55.316 155.212 55.352 155.356 55.28C155.428 55.244 155.464 55.136 155.5 54.992C155.5 54.848 155.536 54.704 155.536 54.488V33.608C155.536 33.464 155.464 33.284 155.392 33.068C155.248 32.888 155.14 32.708 154.996 32.564L156.184 31.664C157.732 31.844 158.884 32.132 159.676 32.492C160.396 32.888 160.792 33.176 160.792 33.356V43.976C161.296 43.94 161.764 43.832 162.124 43.688C162.448 43.544 162.736 43.4 162.952 43.184C163.132 43.04 163.276 42.86 163.384 42.68C163.456 42.536 163.528 42.392 163.6 42.248L165.4 41.996C165.544 42.14 165.724 42.284 165.94 42.5C166.12 42.716 166.336 42.968 166.552 43.22C166.768 43.508 166.948 43.832 167.128 44.12C167.272 44.444 167.416 44.768 167.488 45.056C167.524 45.308 167.56 45.56 167.56 45.776C167.56 46.064 167.416 46.28 167.2 46.424C166.984 46.568 166.768 46.64 166.552 46.568C166.3 46.568 166.048 46.532 165.832 46.46C165.436 46.388 164.932 46.316 164.284 46.316H160.792V55.028ZM158.092 61.4C158.452 61.4 158.884 61.436 159.316 61.508C159.712 61.58 160.108 61.724 160.468 61.94C160.792 62.156 161.08 62.408 161.332 62.732C161.548 63.092 161.656 63.56 161.656 64.1C161.656 64.208 161.62 64.352 161.62 64.532C161.548 64.748 161.44 64.928 161.296 65.108C161.08 65.252 160.828 65.432 160.468 65.576C160.108 65.72 159.604 65.792 158.992 65.792H143.44C142.432 65.792 141.64 65.468 141.064 64.892C140.452 64.316 140.164 63.524 140.164 62.552V57.296C140.164 56.936 140.092 56.684 139.948 56.576C139.84 56.54 139.732 56.504 139.66 56.468C139.516 56.468 139.408 56.468 139.336 56.432C139.192 56.432 139.12 56.36 139.048 56.252C138.976 56.18 138.94 56.072 138.94 55.856C138.94 55.532 139.12 55.28 139.48 55.1C139.804 54.956 140.2 54.884 140.704 54.812C141.136 54.812 141.604 54.812 142.108 54.812C142.54 54.884 142.9 54.92 143.116 54.92C143.764 55.028 144.34 55.244 144.844 55.568C145.348 55.928 145.6 56.36 145.6 56.864V62.3C145.6 62.696 145.708 62.984 145.924 63.2C146.14 63.416 146.428 63.524 146.788 63.524H155.5C156.004 63.524 156.4 63.524 156.688 63.452C156.94 63.416 157.192 63.272 157.444 63.056C157.588 62.948 157.66 62.804 157.696 62.624C157.696 62.48 157.66 62.372 157.624 62.228L158.092 61.4ZM140.56 48.8H146.284C146.536 48.8 146.716 48.764 146.824 48.62C146.896 48.512 146.932 48.26 146.932 47.9V37.784C146.464 37.784 145.96 37.856 145.42 38C144.844 38.144 144.196 38.396 143.44 38.684C143.008 38.864 142.648 39.044 142.324 39.224C141.964 39.44 141.676 39.656 141.424 39.836C141.1 40.052 140.812 40.268 140.56 40.484V48.8ZM189.93 53.516C190.434 53.264 191.046 53.012 191.766 52.76C192.45 52.544 193.098 52.436 193.746 52.436C193.89 52.436 194.106 52.508 194.394 52.616C194.682 52.76 194.97 52.94 195.258 53.084C195.546 53.3 195.798 53.48 196.014 53.66C196.194 53.876 196.302 54.056 196.302 54.2C196.302 54.524 196.194 54.92 196.014 55.352C195.798 55.82 195.654 56.18 195.51 56.432L195.078 58.484C195.582 58.484 195.978 58.628 196.302 58.88C196.59 59.168 196.734 59.492 196.734 59.852C196.734 60.068 196.626 60.248 196.482 60.464C196.302 60.68 196.014 60.788 195.618 60.788H180.966V62.444C180.966 62.84 181.074 63.128 181.29 63.344C181.506 63.56 181.794 63.668 182.154 63.668H191.082C191.622 63.668 192.054 63.668 192.342 63.596C192.63 63.596 192.846 63.488 193.062 63.272C193.17 63.164 193.206 62.984 193.17 62.732L193.53 61.868C193.926 61.868 194.358 61.904 194.826 61.94C195.258 62.012 195.654 62.156 195.942 62.3C196.41 62.588 196.77 63.02 197.058 63.524C197.274 64.064 197.31 64.568 197.094 65.036C196.878 65.468 196.59 65.72 196.23 65.828C195.834 65.9 195.114 65.972 194.07 65.972H177.69C177.042 65.972 176.538 65.792 176.142 65.432C175.71 65.036 175.53 64.64 175.53 64.208V60.32C175.53 60.104 175.494 59.924 175.458 59.852C175.386 59.78 175.314 59.744 175.206 59.708C174.99 59.672 174.81 59.6 174.666 59.528C174.486 59.492 174.378 59.348 174.342 59.096C174.27 58.808 174.306 58.592 174.486 58.412C174.63 58.268 174.882 58.16 175.17 58.052C175.422 57.98 175.71 57.944 176.034 57.908C176.322 57.908 176.61 57.872 176.898 57.872C177.51 57.872 178.194 57.908 178.986 57.98C179.706 58.052 180.39 58.232 180.966 58.484H190.002V55.82H181.614C180.75 55.82 180.102 55.892 179.67 55.964C179.238 56.108 178.842 56.216 178.518 56.324C178.122 56.504 177.726 56.576 177.33 56.576C177.15 56.576 176.862 56.504 176.43 56.288C175.998 56.144 175.602 55.82 175.278 55.316C175.062 55.064 174.882 54.704 174.702 54.236C174.486 53.804 174.342 53.48 174.27 53.192L176.106 52.76C176.394 53.048 176.79 53.228 177.258 53.336C177.69 53.48 178.086 53.552 178.446 53.552L189.93 53.516ZM181.65 45.668C181.506 45.668 181.29 45.704 181.038 45.74C180.75 45.812 180.426 45.92 180.102 45.992C180.066 45.992 180.03 45.992 180.03 45.992C179.994 46.028 179.958 46.028 179.922 46.028H179.958C179.598 46.136 179.274 46.208 178.986 46.244C178.662 46.316 178.374 46.352 178.122 46.352C177.762 46.352 177.366 46.28 177.006 46.064C176.574 45.884 176.214 45.668 175.926 45.38C175.566 45.128 175.314 44.84 175.134 44.552C174.918 44.3 174.81 44.084 174.81 43.94C174.81 43.94 174.81 43.832 174.882 43.688L174.99 43.4C175.026 43.256 175.062 43.04 175.134 42.788C175.17 42.572 175.206 42.32 175.206 41.996V36.488C175.206 36.308 175.206 36.164 175.206 36.056C175.17 35.984 175.134 35.912 175.134 35.84H175.098C175.026 35.84 174.99 35.84 174.918 35.804C174.81 35.804 174.738 35.804 174.702 35.804C174.558 35.768 174.45 35.696 174.306 35.588C174.126 35.516 174.018 35.444 173.982 35.3L174.054 35.372C173.982 35.264 173.982 35.12 174.054 34.94C174.054 34.796 174.126 34.688 174.234 34.544C174.306 34.472 174.45 34.4 174.666 34.292C174.882 34.22 175.17 34.148 175.566 34.076C175.926 34.04 176.286 34.004 176.682 34.004C177.042 34.004 177.51 34.04 178.122 34.112C178.662 34.184 179.166 34.292 179.634 34.364C180.066 34.508 180.354 34.58 180.57 34.616H187.806C188.994 34.616 189.858 34.544 190.434 34.328C190.974 34.148 191.37 33.896 191.658 33.536V33.572L191.694 33.5C191.694 33.5 191.73 33.464 191.73 33.392C191.73 33.356 191.73 33.284 191.802 33.176L193.278 32.924C193.638 33.14 194.034 33.428 194.466 33.716C194.898 34.04 195.222 34.472 195.438 35.012C195.474 35.156 195.51 35.3 195.546 35.48C195.546 35.696 195.582 35.876 195.582 36.056C195.582 36.272 195.546 36.452 195.51 36.596C195.438 36.776 195.402 36.884 195.33 36.956C195.114 37.1 194.934 37.172 194.718 37.136C194.502 37.136 194.25 37.1 193.998 37.064C193.782 37.028 193.602 36.992 193.422 36.956C193.206 36.956 192.954 36.92 192.702 36.92H180.642V42.14C180.642 42.248 180.642 42.392 180.678 42.572C180.678 42.788 180.75 42.968 180.858 43.04C181.038 43.184 181.218 43.292 181.362 43.292C181.47 43.364 181.614 43.364 181.83 43.364H190.722C191.226 43.364 191.658 43.328 192.018 43.256C192.342 43.184 192.63 43.04 192.846 42.752H192.81C192.882 42.644 192.954 42.5 192.954 42.356C192.954 42.248 192.918 42.104 192.918 41.96L193.314 41.204H193.89C194.106 41.204 194.394 41.24 194.79 41.312C195.15 41.42 195.474 41.564 195.762 41.78C196.122 42.14 196.41 42.464 196.626 42.788C196.806 43.148 196.878 43.58 196.878 44.12C196.878 44.228 196.842 44.372 196.842 44.516C196.77 44.732 196.662 44.912 196.518 45.056C196.302 45.236 196.05 45.38 195.726 45.488C195.366 45.632 194.862 45.668 194.214 45.668H181.65ZM199.578 51.14C198.966 50.996 198.354 50.924 197.706 50.852C197.058 50.816 196.158 50.78 195.042 50.78H177.402C176.682 50.78 175.998 50.816 175.278 50.888C174.522 50.996 173.838 51.212 173.19 51.536C173.01 51.608 172.794 51.716 172.578 51.788C172.29 51.932 172.038 51.968 171.786 51.968C171.246 51.968 170.778 51.824 170.382 51.536C169.95 51.248 169.59 50.888 169.302 50.456C168.978 50.06 168.726 49.592 168.51 49.088C168.258 48.62 168.078 48.152 167.934 47.72L169.878 46.856C170.454 47.432 171.138 47.828 172.002 47.972C172.794 48.188 173.622 48.296 174.486 48.296H193.962C195.042 48.296 195.798 48.116 196.266 47.756C196.698 47.396 196.95 47.072 197.058 46.748L198.678 46.352C198.894 46.496 199.146 46.64 199.434 46.784C199.65 46.928 199.866 47.072 200.118 47.216C200.334 47.432 200.586 47.612 200.802 47.828C201.198 48.26 201.486 48.584 201.63 48.872C201.774 49.196 201.846 49.448 201.918 49.592C201.99 49.88 202.026 50.132 202.026 50.348C201.99 50.636 201.846 50.852 201.594 51.032C201.306 51.284 200.982 51.392 200.586 51.32C200.154 51.32 199.83 51.248 199.578 51.14ZM232.454 64.82C232.382 65.18 232.238 65.504 232.022 65.72C231.77 65.936 231.41 66.116 230.978 66.332C230.618 66.476 230.114 66.584 229.466 66.584C228.998 66.584 228.638 66.548 228.422 66.512C228.17 66.44 227.954 66.368 227.738 66.296L227.486 66.188C227.126 66.044 226.766 65.828 226.442 65.54C226.082 65.252 225.794 65 225.65 64.82L226.226 63.884C226.406 63.956 226.622 63.992 226.838 63.992C227.054 64.064 227.198 64.064 227.27 64.064C227.342 63.992 227.378 63.74 227.378 63.272V33.428C227.378 33.284 227.306 33.104 227.234 32.888C227.09 32.744 226.982 32.564 226.838 32.384L228.062 31.628C229.574 31.844 230.726 32.132 231.482 32.492C232.202 32.888 232.562 33.176 232.562 33.356V64.82H232.454ZM219.314 47.036C218.486 48.044 217.658 48.944 216.866 49.808C216.038 50.672 215.174 51.5 214.274 52.22C213.338 53.012 212.366 53.696 211.358 54.344C210.278 54.992 209.126 55.604 207.866 56.144C207.434 56.36 207.074 56.468 206.75 56.504C206.39 56.576 206.03 56.576 205.634 56.576C205.202 56.576 204.914 56.504 204.734 56.324C204.518 56.18 204.302 56 204.158 55.856L204.77 53.912C205.13 54.236 205.454 54.38 205.706 54.38C205.85 54.38 206.066 54.344 206.318 54.236C206.534 54.164 206.714 54.056 206.93 53.912C207.83 53.372 208.73 52.688 209.666 51.86C210.53 51.068 211.502 50.024 212.51 48.656C213.626 47.144 214.562 45.74 215.318 44.372C216.038 43.04 216.614 41.636 217.046 40.196H212.33C211.646 40.232 211.142 40.268 210.854 40.34C210.53 40.448 210.278 40.556 210.062 40.628C209.846 40.7 209.63 40.772 209.414 40.844C209.198 40.916 208.946 40.952 208.694 40.952C208.514 40.952 208.226 40.844 207.794 40.628C207.326 40.448 206.93 40.124 206.606 39.62C206.39 39.368 206.21 39.008 206.03 38.54C205.814 38.108 205.67 37.748 205.598 37.46L207.326 37.064C207.542 37.244 207.902 37.424 208.37 37.568C208.766 37.712 209.126 37.784 209.414 37.82C209.702 37.892 209.846 37.928 209.918 37.928L216.794 37.892C217.082 37.82 217.406 37.676 217.802 37.532C218.162 37.424 218.558 37.316 218.954 37.172C219.314 37.1 219.638 36.992 219.998 36.92C220.286 36.848 220.538 36.812 220.754 36.812C220.862 36.812 221.078 36.884 221.366 37.028C221.654 37.208 221.942 37.388 222.23 37.604C222.518 37.82 222.77 38.072 223.022 38.288C223.238 38.54 223.346 38.756 223.346 38.9C223.346 39.332 223.202 39.872 222.95 40.592C222.662 41.348 222.302 42.104 221.906 42.896C221.474 43.724 221.006 44.516 220.574 45.236C220.07 46.028 219.674 46.604 219.314 47.036Z" fill="white"/>
</g>
<defs>
<filter id="filter0_i_257_49" x="96.5195" y="31.628" width="138.043" height="36.992" filterUnits="userSpaceOnUse" color-interpolation-filters="sRGB">
<feFlood flood-opacity="0" result="BackgroundImageFix"/>
<feBlend mode="normal" in="SourceGraphic" in2="BackgroundImageFix" result="shape"/>
<feColorMatrix in="SourceAlpha" type="matrix" values="0 0 0 0 0 0 0 0 0 0 0 0 0 0 0 0 0 0 127 0" result="hardAlpha"/>
<feOffset dx="2" dy="2"/>
<feGaussianBlur stdDeviation="1.5"/>
<feComposite in2="hardAlpha" operator="arithmetic" k2="-1" k3="1"/>
<feColorMatrix type="matrix" values="0 0 0 0 0 0 0 0 0 0 0 0 0 0 0 0 0 0 0.25 0"/>
<feBlend mode="normal" in2="shape" result="effect1_innerShadow_257_49"/>
</filter>
</defs>
</svg>
