<svg width="72" height="90" viewBox="0 0 72 90" fill="none" xmlns="http://www.w3.org/2000/svg">
<ellipse cx="36" cy="59.0323" rx="25" ry="24.1935" fill="#D6B27F"/>
<g filter="url(#filter0_i_246_48)">
<path d="M34.8785 9.648C36.4145 9.648 37.6945 9.776 38.6545 9.968C39.5505 10.224 40.1905 10.544 40.7025 10.8C41.0865 11.12 41.4065 11.44 41.5345 11.696C41.5985 12.016 41.5985 12.208 41.5985 12.336C38.9745 19.888 36.6705 26.608 34.6225 32.56C33.7265 35.12 32.8305 37.68 31.9985 40.112C31.1025 42.608 30.3345 44.848 29.6945 46.768C28.9905 48.816 28.4145 50.416 27.9665 51.696C27.4545 53.04 27.1985 53.808 27.1985 53.936C26.9425 54.704 26.5585 55.344 26.1745 55.984C25.6625 56.624 24.9585 56.944 24.0625 56.944H20.7985C19.7745 56.944 19.0705 56.752 18.6865 56.24C18.2385 55.792 17.8545 55.152 17.5985 54.384L3.3265 14.384C3.0705 13.744 2.8145 13.168 2.4305 12.656C1.9825 12.144 1.5985 11.76 1.2785 11.376C1.1505 11.376 1.0865 11.312 1.0865 11.248C0.9585 11.248 0.9585 11.184 0.9585 11.12C0.8945 11.12 0.8305 11.056 0.8305 10.992L2.9425 9.584C5.0545 9.584 6.7185 9.712 7.9345 9.84C9.0865 10.032 9.9825 10.224 10.6225 10.416C11.1985 10.672 11.5825 10.928 11.7745 11.184C11.9025 11.504 11.9665 11.76 12.0945 11.952L23.7425 44.784C24.5105 42.416 25.3425 39.984 26.1105 37.552C26.8785 35.184 27.6465 32.752 28.4785 30.32L34.2385 12.976C34.3025 12.784 34.2385 12.528 34.1105 12.272C33.8545 12.016 33.5345 11.696 33.0865 11.184L33.9825 9.904L34.8785 9.648Z" fill="#5D180A"/>
</g>
<g filter="url(#filter1_i_246_48)">
<path d="M61.0368 53.8503C61.4208 54.1063 62.1248 54.4903 63.0848 55.0023C63.9808 55.5783 64.9408 56.2823 65.9008 57.0503C66.7968 57.9463 67.5648 58.9063 68.3328 59.9303C68.9728 61.0183 69.3568 62.1703 69.3568 63.3223V69.3383C69.3568 70.9383 68.9088 72.2823 68.0768 73.3703C67.1808 74.5223 66.1568 75.4823 64.8768 76.2503C63.5968 77.0183 62.1888 77.5303 60.6528 77.7863C59.1168 78.1703 57.6448 78.2983 56.2368 78.2983H40.8128C38.6368 78.2983 37.1008 78.0423 36.2688 77.6583C35.3728 77.3383 34.7968 76.8903 34.6048 76.2503C34.3488 75.4823 34.3488 74.7143 34.6688 73.9463C34.9248 73.3063 35.4368 72.6663 36.0768 72.1543C36.6528 71.7063 37.3568 71.3223 38.2528 71.0023C39.0848 70.7463 39.9808 70.6183 40.8767 70.6183L41.4528 72.3463C41.3888 72.6663 41.5168 72.9223 41.7728 73.0503C41.9648 73.3063 42.2208 73.4343 42.6048 73.5623C42.9248 73.6903 43.3088 73.6903 43.6928 73.6903C44.0128 73.7543 44.2688 73.7543 44.5248 73.7543H52.0128C54.1888 73.8183 56.1088 73.4343 57.6448 72.5383C59.1168 71.7703 59.8848 70.5543 59.8848 68.9543V64.0263C59.8848 63.4503 59.6288 62.8743 59.2448 62.2343C58.7328 61.7223 58.2208 61.1463 57.6448 60.6343C57.0048 60.1863 56.3008 59.7383 55.6608 59.3543C54.9568 58.9703 54.3808 58.7143 53.8688 58.4583L44.5248 54.4903C43.5008 54.1063 42.4768 53.6583 41.3248 53.0823C40.1728 52.5703 39.0848 51.9303 38.1248 51.1623C37.1008 50.3943 36.2688 49.4983 35.6288 48.4103C34.9248 47.3863 34.6048 46.1063 34.6048 44.5703V39.8343C34.6048 38.6823 34.9248 37.5943 35.6927 36.5703C36.3328 35.5463 37.2288 34.6503 38.3808 33.8823C39.4688 33.1143 40.7488 32.5383 42.2208 32.0263C43.6288 31.6423 45.0368 31.3863 46.4448 31.3863L61.4208 31.7063C61.9968 31.7063 62.6368 31.6423 63.4048 31.3863C64.1088 31.2583 64.8128 30.9383 65.5808 30.5543L68.5888 31.0663C68.3328 31.7063 68.0128 32.3463 67.5648 33.0503C67.0528 33.8183 66.6048 34.3943 66.2848 34.8423H66.3488C65.7088 35.6743 64.8768 36.3143 63.9808 36.7623C62.9568 37.2743 61.8688 37.3383 60.7168 36.9543C60.2048 36.7623 59.5648 36.5703 58.7968 36.3783C57.9008 36.2503 56.8128 36.1223 55.4688 36.0583L47.3408 35.7383C46.5088 35.7383 45.7408 36.1223 45.1008 36.8263C44.3328 37.5943 44.0128 38.6183 44.0128 40.0263V43.9303C44.0128 44.6983 44.1408 45.2743 44.4608 45.7223C44.7168 46.2343 45.0368 46.6823 45.5488 47.0023C45.9328 47.3863 46.4448 47.7063 47.0208 47.9623C47.5328 48.2183 48.0448 48.4743 48.5568 48.6663L61.0368 53.8503Z" fill="#5D180A"/>
</g>
<defs>
<filter id="filter0_i_246_48" x="0.830078" y="9.584" width="42.7676" height="47.36" filterUnits="userSpaceOnUse" color-interpolation-filters="sRGB">
<feFlood flood-opacity="0" result="BackgroundImageFix"/>
<feBlend mode="normal" in="SourceGraphic" in2="BackgroundImageFix" result="shape"/>
<feColorMatrix in="SourceAlpha" type="matrix" values="0 0 0 0 0 0 0 0 0 0 0 0 0 0 0 0 0 0 127 0" result="hardAlpha"/>
<feOffset dx="2"/>
<feGaussianBlur stdDeviation="1.5"/>
<feComposite in2="hardAlpha" operator="arithmetic" k2="-1" k3="1"/>
<feColorMatrix type="matrix" values="0 0 0 0 0 0 0 0 0 0 0 0 0 0 0 0 0 0 0.25 0"/>
<feBlend mode="normal" in2="shape" result="effect1_innerShadow_246_48"/>
</filter>
<filter id="filter1_i_246_48" x="34.3496" y="30.5543" width="37.0078" height="47.744" filterUnits="userSpaceOnUse" color-interpolation-filters="sRGB">
<feFlood flood-opacity="0" result="BackgroundImageFix"/>
<feBlend mode="normal" in="SourceGraphic" in2="BackgroundImageFix" result="shape"/>
<feColorMatrix in="SourceAlpha" type="matrix" values="0 0 0 0 0 0 0 0 0 0 0 0 0 0 0 0 0 0 127 0" result="hardAlpha"/>
<feOffset dx="2"/>
<feGaussianBlur stdDeviation="1.5"/>
<feComposite in2="hardAlpha" operator="arithmetic" k2="-1" k3="1"/>
<feColorMatrix type="matrix" values="0 0 0 0 0 0 0 0 0 0 0 0 0 0 0 0 0 0 0.25 0"/>
<feBlend mode="normal" in2="shape" result="effect1_innerShadow_246_48"/>
</filter>
</defs>
</svg>
