<svg width="570" height="440" viewBox="0 0 570 440" fill="none" xmlns="http://www.w3.org/2000/svg">
<path d="M33.8846 396.336V383.904C33.8846 383.664 33.7886 383.424 33.6926 383.184C33.5486 382.992 33.4046 382.752 33.2606 382.56L34.2686 381.936C35.9966 382.176 37.2926 382.464 38.1566 382.848C38.9726 383.28 39.4046 383.616 39.4046 383.808V413.04C39.4046 415.152 38.2526 416.208 36.0446 416.208C35.1806 416.208 34.4126 416.064 33.6446 415.728C32.8766 415.44 32.2046 414.912 31.6286 414.24L32.0606 413.52C32.5406 413.712 32.9726 413.664 33.3566 413.472C33.6926 413.328 33.8846 412.896 33.8846 412.176V407.28C32.7326 407.376 31.8686 407.472 31.2446 407.616C30.5726 407.808 29.9966 408 29.6126 408.144C29.4686 408.24 29.3246 408.288 29.1806 408.336C28.9886 408.432 28.8446 408.528 28.6526 408.528C28.3646 408.576 28.0766 408.528 27.7886 408.384C27.4526 408.288 27.0206 408 26.4926 407.616C26.1086 407.376 25.8206 407.088 25.5806 406.8C25.1006 407.472 24.4766 408.048 23.7566 408.48C22.9886 408.96 22.2206 409.344 21.4046 409.632C20.5406 409.968 19.6766 410.208 18.8126 410.304C17.9006 410.496 17.0366 410.544 16.1726 410.544C15.0206 410.544 13.8686 410.4 12.7166 410.112C11.4686 409.872 10.3646 409.44 9.40463 408.816C8.39663 408.24 7.58063 407.472 6.95663 406.512C6.28463 405.6 5.94863 404.448 5.94863 403.104C5.94863 402.336 6.09263 401.568 6.38063 400.752C6.66863 399.984 7.19662 399.168 7.96463 398.304C8.34863 397.872 8.82863 397.488 9.40463 397.152C9.88463 396.864 10.4126 396.624 10.9886 396.384C11.5166 396.192 12.0926 396.048 12.6686 395.904C13.2446 395.808 13.7726 395.664 14.3006 395.52C14.3486 395.52 14.4446 395.472 14.5406 395.424C14.5886 395.424 14.6366 395.376 14.6366 395.28C14.6366 395.232 14.5886 395.136 14.4926 395.04C14.3486 394.992 14.2046 394.944 14.0606 394.848C13.8686 394.8 13.7246 394.752 13.5326 394.704L14.0606 393.216C14.3006 393.216 14.6366 393.216 15.1166 393.216C15.5486 393.312 16.0286 393.36 16.5566 393.456C17.0366 393.552 17.5646 393.696 18.0446 393.84C18.4766 394.032 18.8126 394.176 19.1006 394.368C19.4846 394.656 19.6286 394.896 19.4366 395.088C19.3886 395.184 19.2926 395.28 19.1966 395.376C19.0046 395.52 19.0046 395.616 19.1486 395.664C20.1086 395.952 21.0686 396.24 22.0766 396.528C23.0366 396.912 23.9006 397.44 24.7646 398.16C25.4846 398.832 26.0126 399.696 26.3966 400.656C26.6846 401.712 26.8286 402.624 26.7806 403.488L26.6366 404.592C27.0206 404.736 27.4526 404.832 27.9326 404.832C28.3166 404.88 28.7486 404.88 29.1806 404.88H33.8846V398.736C32.7326 398.832 31.8686 398.928 31.2446 399.072C30.5726 399.264 29.9966 399.456 29.6126 399.6C29.4686 399.696 29.3246 399.744 29.2286 399.792C29.0366 399.888 28.8926 399.936 28.7006 399.984C28.4606 400.08 28.1726 400.032 27.8366 399.84C27.4526 399.744 27.0206 399.456 26.4926 399.072C26.0126 398.784 25.6286 398.4 25.3406 397.92C25.0046 397.488 24.6686 396.864 24.2846 396L25.4846 395.52C25.9166 395.856 26.4926 396.048 27.2126 396.144C27.8846 396.288 28.5566 396.336 29.1806 396.336H33.8846ZM39.3086 422.112C39.6446 422.352 39.9326 422.688 40.2206 423.168C40.4606 423.696 40.5566 424.224 40.5086 424.752C40.5086 424.848 40.4606 425.04 40.4606 425.232C40.3646 425.472 40.2686 425.712 40.1246 425.904C39.9326 426.096 39.6446 426.24 39.3086 426.432C38.9246 426.576 38.3966 426.672 37.7246 426.672H16.9886C15.8846 426.672 15.0206 426.288 14.3966 425.568C13.7246 424.848 13.3886 423.888 13.3886 422.736V416.256C13.3886 415.92 13.3406 415.68 13.3406 415.488C13.2446 415.344 13.1006 415.2 12.8606 415.104C12.6206 415.056 12.3806 415.008 12.1886 414.912C11.9486 414.912 11.8046 414.72 11.7566 414.432C11.6606 414.048 11.8526 413.808 12.3326 413.616C12.7166 413.472 13.1966 413.376 13.7726 413.328C14.3006 413.328 14.8286 413.328 15.4046 413.328C15.8846 413.424 16.2686 413.472 16.4606 413.472C17.1326 413.568 17.7566 413.808 18.3326 414.192C18.8126 414.576 19.1006 415.104 19.1006 415.68V422.4C19.1006 423.744 19.8686 424.416 21.4526 424.416H33.0686C33.9326 424.416 34.5566 424.416 35.0366 424.32C35.4206 424.272 35.8046 424.08 36.1886 423.696C36.4766 423.456 36.6206 423.216 36.7166 422.928C36.7166 422.688 36.7166 422.496 36.6686 422.304L37.1006 421.584H37.2926C37.4846 421.584 37.8206 421.632 38.2046 421.632C38.5886 421.728 38.9246 421.872 39.3086 422.112ZM11.3726 402.912C11.3726 403.584 11.4686 404.256 11.7566 404.832C11.9486 405.456 12.2846 405.984 12.7646 406.416C13.1966 406.896 13.7246 407.28 14.3486 407.568C14.9246 407.856 15.5486 408 16.3166 408C16.9886 408 17.6606 407.904 18.2846 407.616C18.8606 407.376 19.3406 406.992 19.8206 406.512C20.2046 406.08 20.5406 405.552 20.8286 404.928C21.0686 404.352 21.2126 403.68 21.2126 402.912C21.2126 402.24 21.1166 401.568 20.9246 400.896C20.6846 400.272 20.3486 399.696 19.9646 399.168C19.5326 398.688 19.0046 398.304 18.4286 397.968C17.8046 397.68 17.0846 397.536 16.3166 397.536C14.7806 397.536 13.5806 398.016 12.7166 398.976C11.8046 399.984 11.3726 401.28 11.3726 402.912ZM11.8526 392.976C10.9886 392.976 10.2686 393.072 9.69263 393.168C9.11663 393.36 8.63663 393.504 8.25263 393.696C7.86863 393.888 7.53263 394.08 7.29263 394.176C7.00463 394.368 6.76463 394.416 6.47662 394.416C6.23663 394.416 5.94863 394.368 5.61263 394.272C5.22863 394.176 4.70063 393.888 4.12463 393.312C3.88463 393.12 3.64463 392.832 3.45263 392.448C3.16463 392.112 2.92463 391.728 2.73263 391.344C2.49263 391.008 2.30063 390.672 2.15663 390.288C1.96463 390 1.86863 389.712 1.82063 389.424L3.21263 388.944C3.69263 389.232 4.26863 389.52 4.89263 389.808C5.46863 390.192 6.04463 390.384 6.71663 390.48C7.24463 390.576 7.82063 390.624 8.49263 390.624C9.11663 390.672 10.0286 390.672 11.1806 390.672H14.9726C15.9326 390.672 17.0366 390.672 18.2366 390.624C20.1566 390.624 21.6446 390.432 22.7486 390.048C23.8046 389.664 24.6686 389.088 25.2926 388.32L26.7326 388.08C27.1166 388.464 27.5486 388.992 28.0286 389.664C28.4606 390.336 28.7966 391.056 28.9886 391.728C29.0846 392.208 29.1806 392.496 29.1806 392.688C29.1326 392.928 29.0366 393.072 28.9406 393.168C28.7486 393.264 28.5566 393.312 28.3646 393.312C28.0766 393.312 27.8366 393.312 27.5966 393.216C27.3086 393.216 27.0206 393.168 26.7806 393.072C26.4926 393.024 26.2526 392.976 26.0606 392.976H11.8526ZM13.5806 387.888C13.4366 387.888 13.0526 387.696 12.4766 387.36C11.8046 387.072 11.1806 386.592 10.6046 385.824C10.2686 385.44 10.0286 385.104 9.93263 384.864C9.78863 384.672 9.69263 384.48 9.69263 384.288C9.69263 384.288 9.69263 384.192 9.78863 384C9.78863 383.904 9.83663 383.712 9.93263 383.52C9.98063 383.328 10.0286 383.136 10.1246 382.944C10.1726 382.752 10.2206 382.608 10.3166 382.464C10.5566 382.656 10.8446 382.8 11.2286 382.992C11.5646 383.232 11.9966 383.472 12.5726 383.712C13.9166 384.288 15.3086 384.576 16.7486 384.624C18.1406 384.72 19.5806 384.72 21.0206 384.624L22.7486 385.536C22.7966 385.728 22.8446 385.968 22.8446 386.256C22.8446 386.592 22.7486 386.832 22.5566 386.976C22.3166 387.168 21.7886 387.312 20.9726 387.408C20.1086 387.552 19.2446 387.648 18.2846 387.696C17.3246 387.792 16.3646 387.84 15.5006 387.84C14.5886 387.888 13.9646 387.888 13.5806 387.888ZM78.0518 422.208C78.0518 423.168 77.9558 423.84 77.7638 424.224C77.5718 424.608 77.1398 424.944 76.5158 425.232C76.2758 425.328 76.0838 425.424 75.9398 425.424C75.7478 425.52 75.4598 425.52 75.1238 425.52C74.5478 425.52 74.1158 425.472 73.7318 425.376C73.3478 425.28 72.9637 425.184 72.6278 424.992C72.2438 424.848 71.9078 424.656 71.7158 424.368C71.4278 424.128 71.2358 423.888 71.0918 423.648L71.5238 422.928C71.8598 423.12 72.1478 423.168 72.3398 423.12C72.6758 423.024 72.8678 422.88 72.9637 422.592C72.9637 422.352 73.0118 422.016 73.0118 421.584V386.304C73.0118 386.112 72.9158 385.872 72.8198 385.584C72.6758 385.392 72.5318 385.2 72.3878 385.008L73.3478 383.904C75.0758 384.144 76.2758 384.48 76.9958 384.864C77.6678 385.296 78.0518 385.584 78.0518 385.776V400.224C79.0118 400.128 79.8758 399.984 80.5478 399.696C81.2198 399.456 81.7478 399.168 82.1798 398.88V384.192C82.1798 383.952 82.0838 383.712 81.9878 383.424C81.8438 383.232 81.6998 383.04 81.5558 382.848L82.5638 381.984C84.2918 382.224 85.4918 382.512 86.2118 382.896C86.8838 383.328 87.2198 383.664 87.2198 383.856V424.224C87.2198 425.184 87.1238 425.856 86.9798 426.24C86.7878 426.624 86.4518 426.96 85.9238 427.248C85.4438 427.44 84.9158 427.536 84.3398 427.536C83.7638 427.536 83.3318 427.488 82.9478 427.392C82.5158 427.296 82.1318 427.152 81.7958 427.056C81.4118 426.864 81.0278 426.672 80.6918 426.384C80.3078 426.048 80.0678 425.808 79.9238 425.568L80.3558 424.848C80.7398 424.944 81.0758 424.992 81.3638 424.944C81.6998 424.896 81.9398 424.752 82.0358 424.464C82.1318 424.272 82.1798 423.936 82.1798 423.504V402.528H78.0518V422.208ZM69.2678 391.392C69.2678 392.064 69.1238 392.784 68.8838 393.552C68.5958 394.368 68.2118 395.184 67.7318 396.048C67.2038 396.912 66.6278 397.824 66.0038 398.688C65.3318 399.648 64.6118 400.56 63.8438 401.424C64.0358 401.808 64.3238 402.288 64.7078 402.864C64.9958 403.44 65.3318 404.016 65.7158 404.544C66.0038 405.12 66.3398 405.6 66.6278 405.984C66.9158 406.416 67.1078 406.656 67.2038 406.656C67.3958 406.752 67.5878 406.8 67.7318 406.704C67.8278 406.656 67.9238 406.608 68.0198 406.512L69.6038 407.184C69.6998 407.376 69.8438 407.712 70.0358 408.144C70.1798 408.624 70.2758 409.104 70.3718 409.488C70.4678 410.064 70.5638 410.544 70.6118 411.024C70.6118 411.504 70.5638 412.176 70.4678 412.992C70.3718 413.472 70.2758 413.856 70.0837 414.048C69.8918 414.336 69.6998 414.432 69.5078 414.384C69.2198 414.384 69.0278 414.24 68.8838 413.952C68.6918 413.76 68.4518 413.472 68.2598 413.184C67.9718 412.896 67.6838 412.416 67.2998 411.84C66.9158 411.264 66.5798 410.832 66.3878 410.544C66.0998 410.208 65.8118 409.728 65.4278 409.104C65.0438 408.528 64.6118 407.856 64.2278 407.184C63.7958 406.512 63.4118 405.84 63.0278 405.168C62.6438 404.544 62.3078 404.016 62.0198 403.536C60.7718 404.88 59.4758 406.176 58.1318 407.376C56.7878 408.624 55.4438 409.728 54.1958 410.64C52.8518 411.6 51.6518 412.368 50.4998 412.896C49.2998 413.472 48.2438 413.712 47.3798 413.664C47.0918 413.664 46.8518 413.616 46.7558 413.472C46.5638 413.376 46.4198 413.28 46.3238 413.184L47.0438 411.552C47.3798 411.744 47.6678 411.792 47.9558 411.792C48.1478 411.84 48.4838 411.744 48.9158 411.456C50.3558 410.592 51.7478 409.344 53.1398 407.664C54.4838 406.032 56.0678 403.872 57.8918 401.088C58.6598 399.936 59.2358 398.928 59.7158 398.064C60.1478 397.296 60.5318 396.576 60.8198 395.904C61.1078 395.328 61.3478 394.752 61.5398 394.224C61.6838 393.744 61.8758 393.264 62.0678 392.736H57.4118C56.7398 392.736 56.2598 392.784 55.8758 392.784C55.4918 392.88 55.1558 392.928 54.9158 392.976C54.6278 393.072 54.4358 393.168 54.2918 393.216C54.0998 393.312 53.9078 393.408 53.7158 393.456C53.4278 393.552 53.2358 393.648 53.0918 393.648C52.8997 393.744 52.6598 393.744 52.4198 393.744C52.2278 393.744 51.9398 393.648 51.5078 393.36C51.0278 393.168 50.5958 392.736 50.2118 392.112C50.0198 391.824 49.7798 391.44 49.5398 390.96C49.2518 390.48 49.1078 390.096 49.0598 389.808L50.6438 389.52C51.0278 389.808 51.6038 390.048 52.3238 390.192C52.9958 390.384 53.6198 390.48 54.1958 390.48L61.4918 390.432L61.5878 390.384C61.9238 390.288 62.3558 390.144 62.8358 389.952C63.3158 389.808 63.7958 389.664 64.2758 389.472C64.7558 389.376 65.1878 389.232 65.6198 389.136C66.0038 389.04 66.2918 388.992 66.5798 388.992C66.6758 388.992 66.9158 389.088 67.2038 389.232C67.4918 389.424 67.7798 389.664 68.1158 389.856C68.4038 390.144 68.6438 390.384 68.9318 390.672C69.1238 390.96 69.2678 391.2 69.2678 391.392ZM145.839 425.424C145.455 425.712 145.023 426 144.543 426.288C143.967 426.576 143.343 426.864 142.671 427.152C141.903 427.392 141.087 427.632 140.127 427.824C139.167 427.968 138.063 428.064 136.911 428.064C135.663 428.064 134.607 427.92 133.647 427.728C132.687 427.488 131.823 427.248 131.151 426.96C130.383 426.672 129.807 426.384 129.327 426.096C128.847 425.808 128.511 425.616 128.319 425.424C127.263 424.608 126.543 423.744 126.111 422.88C125.631 422.064 125.391 421.008 125.391 419.76C125.391 418.848 125.535 417.936 125.871 417.024C126.159 416.16 126.735 415.248 127.599 414.288C128.559 413.328 129.711 412.608 131.007 412.224C132.255 411.84 133.503 411.552 134.751 411.312C134.943 411.264 135.087 411.216 135.183 411.12C135.279 411.12 135.327 411.072 135.423 410.976C135.423 410.928 135.423 410.88 135.423 410.832C135.375 410.832 135.375 410.832 135.375 410.736C135.279 410.592 135.135 410.448 134.847 410.304C134.703 410.256 134.559 410.208 134.367 410.16L134.415 409.056C134.607 409.008 134.847 408.96 135.135 408.912C135.375 408.912 135.663 408.864 136.047 408.864C136.335 408.864 136.767 408.912 137.247 408.96C138.063 409.104 138.639 409.2 138.927 409.296C139.215 409.44 139.455 409.584 139.695 409.728C140.079 410.112 140.175 410.352 140.031 410.496C139.935 410.592 139.887 410.64 139.839 410.688C139.743 410.784 139.695 410.88 139.695 411.024C139.695 411.12 139.695 411.264 139.791 411.36L140.991 411.648C141.663 411.84 142.527 412.128 143.583 412.416C144.591 412.8 145.599 413.376 146.607 414.192C147.327 414.912 147.903 415.824 148.287 416.928C148.671 418.08 148.815 419.136 148.767 420.096C148.671 421.248 148.383 422.256 147.903 423.168C147.327 424.128 146.655 424.848 145.839 425.424ZM149.823 406.128C149.823 407.088 149.727 407.76 149.583 408.144C149.391 408.576 149.007 408.912 148.479 409.152C147.999 409.344 147.471 409.44 146.895 409.44C146.319 409.44 145.887 409.392 145.503 409.296C145.071 409.2 144.687 409.104 144.351 408.96C143.967 408.816 143.583 408.576 143.247 408.24C142.863 407.952 142.623 407.712 142.479 407.472L142.911 406.752C143.295 406.848 143.631 406.896 143.919 406.848C144.255 406.8 144.495 406.656 144.591 406.368C144.687 406.176 144.735 405.84 144.735 405.408V397.728H140.607V404.976C140.607 405.936 140.511 406.608 140.319 406.992C140.127 407.376 139.695 407.712 139.071 408C138.831 408.096 138.639 408.192 138.495 408.192C138.303 408.288 138.015 408.288 137.679 408.288C137.103 408.288 136.671 408.24 136.287 408.144C135.903 408.048 135.519 407.952 135.183 407.76C134.799 407.616 134.463 407.424 134.271 407.136C133.983 406.896 133.791 406.656 133.647 406.416L134.079 405.696C134.415 405.888 134.703 405.936 134.895 405.888C135.231 405.792 135.423 405.648 135.519 405.36C135.519 405.12 135.567 404.784 135.567 404.352V386.304C135.567 386.112 135.471 385.872 135.375 385.584C135.231 385.392 135.087 385.2 134.943 385.008L135.903 383.904C137.631 384.144 138.831 384.48 139.551 384.864C140.223 385.296 140.607 385.584 140.607 385.776V395.472L140.847 395.424C141.711 395.376 142.479 395.232 143.151 395.04C143.727 394.896 144.255 394.704 144.735 394.416V384.192C144.735 383.952 144.639 383.712 144.543 383.424C144.399 383.232 144.255 383.04 144.111 382.848L145.119 381.984C146.847 382.224 148.047 382.512 148.767 382.896C149.439 383.328 149.823 383.664 149.823 383.856V406.128ZM128.367 388.944C128.367 389.808 128.127 390.768 127.743 391.872C127.263 393.024 126.735 394.128 126.111 395.184C126.447 395.712 126.783 396.24 127.167 396.72C127.503 397.248 127.887 397.776 128.271 398.256C128.463 398.544 128.655 398.688 128.895 398.784C129.087 398.928 129.231 399.024 129.423 399.024C129.567 399.072 129.711 399.072 129.855 399.024C129.951 399.024 130.047 398.976 130.095 398.928L131.391 399.264C131.535 399.504 131.679 399.936 131.871 400.56C131.967 401.232 132.063 401.904 132.159 402.624C132.159 403.2 132.207 403.776 132.255 404.256C132.255 404.832 132.255 405.264 132.207 405.648C132.111 406.08 132.015 406.416 131.823 406.656C131.631 406.944 131.295 407.088 130.911 407.088C130.527 407.088 130.239 406.896 129.951 406.56C129.615 406.272 129.375 406.032 129.231 405.744C128.223 404.304 127.359 402.96 126.687 401.664C125.919 400.416 125.151 399.072 124.335 397.632C123.423 398.688 122.559 399.648 121.743 400.512C120.879 401.424 120.063 402.24 119.199 403.008C118.287 403.824 117.327 404.544 116.319 405.168C115.263 405.84 114.159 406.464 112.911 407.04C112.527 407.184 112.191 407.28 111.855 407.376C111.471 407.472 111.087 407.52 110.751 407.52C110.463 407.52 110.271 407.472 110.079 407.376C109.887 407.328 109.743 407.232 109.647 407.136C109.503 407.04 109.407 406.896 109.359 406.704L109.983 405.504C110.175 405.6 110.367 405.648 110.607 405.648C110.799 405.696 110.991 405.696 111.279 405.6C111.471 405.6 111.711 405.504 111.999 405.312C113.199 404.544 114.351 403.44 115.503 401.952C116.559 400.512 117.615 398.928 118.575 397.296C119.823 395.184 120.687 393.456 121.263 392.208C121.791 390.96 122.079 389.952 122.079 389.184C122.079 388.896 122.031 388.656 121.935 388.416C121.839 388.224 121.599 387.984 121.263 387.6C121.071 387.456 120.975 387.312 120.879 387.216C120.735 387.12 120.639 387.072 120.543 386.976C120.399 386.88 120.303 386.832 120.255 386.736L121.263 385.296C122.127 385.392 122.991 385.584 123.759 385.776C124.527 386.016 125.391 386.4 126.399 386.976C127.167 387.456 127.695 387.84 127.983 388.128C128.223 388.464 128.367 388.752 128.367 388.944ZM132.399 423.408C133.023 423.984 133.695 424.464 134.415 424.8C135.087 425.184 135.951 425.328 137.007 425.328C137.919 425.328 138.735 425.136 139.455 424.848C140.127 424.56 140.799 424.128 141.471 423.456C141.951 422.928 142.335 422.352 142.623 421.728C142.815 421.152 142.959 420.48 142.959 419.616C142.959 417.792 142.575 416.496 141.807 415.68C141.039 415.008 140.271 414.528 139.551 414.192C138.783 413.904 137.967 413.76 137.007 413.76C135.951 413.76 135.087 413.904 134.367 414.192C133.599 414.48 132.879 415.008 132.207 415.68C131.775 416.208 131.487 416.736 131.295 417.312C131.055 417.936 130.959 418.704 130.959 419.616C130.959 420.48 131.103 421.2 131.439 421.776C131.727 422.352 132.015 422.928 132.399 423.408ZM190.437 425.376C190.053 425.664 189.621 425.952 189.141 426.24C188.613 426.528 187.989 426.816 187.317 427.104C186.549 427.392 185.733 427.632 184.821 427.824C183.861 428.016 182.757 428.112 181.605 428.112C180.405 428.112 179.349 428.016 178.389 427.824C177.429 427.584 176.565 427.344 175.893 427.056C175.173 426.768 174.597 426.48 174.165 426.192C173.685 425.904 173.397 425.712 173.205 425.52C172.149 424.704 171.429 423.84 170.997 422.976C170.517 422.112 170.277 421.104 170.277 419.856C170.277 418.944 170.421 418.032 170.757 417.168C171.045 416.352 171.621 415.488 172.485 414.528C173.397 413.568 174.501 412.896 175.797 412.512C177.045 412.128 178.293 411.84 179.445 411.648C179.781 411.6 180.021 411.504 180.117 411.312C180.165 411.216 180.165 411.072 180.117 410.88C179.973 410.688 179.781 410.544 179.541 410.448C179.397 410.4 179.253 410.352 179.109 410.304L179.541 408.72C179.637 408.72 179.829 408.72 180.069 408.72C180.261 408.768 180.501 408.816 180.837 408.816C181.125 408.912 181.461 408.96 181.941 409.056C182.757 409.248 183.333 409.392 183.621 409.488C183.861 409.584 184.101 409.728 184.389 409.824C184.581 409.92 184.677 410.064 184.773 410.208C184.773 410.4 184.773 410.544 184.725 410.64C184.677 410.736 184.629 410.784 184.581 410.832C184.485 410.928 184.437 411.072 184.437 411.216C184.389 411.408 184.533 411.552 184.821 411.648C185.061 411.744 185.349 411.84 185.685 411.888C185.973 411.984 186.357 412.128 186.837 412.224C187.221 412.368 187.701 412.512 188.181 412.704C188.661 412.896 189.141 413.136 189.669 413.376C190.149 413.664 190.581 414.048 191.061 414.432C191.829 415.2 192.405 415.92 192.789 416.688C193.125 417.504 193.317 418.608 193.317 420C193.317 421.152 193.029 422.16 192.501 423.072C191.925 424.032 191.253 424.8 190.437 425.376ZM171.381 397.152C169.701 399.312 167.877 401.232 165.957 402.912C163.941 404.64 161.733 406.176 159.237 407.424C158.853 407.616 158.469 407.712 158.085 407.808C157.605 407.952 157.125 408 156.597 407.952C156.357 407.952 156.165 407.904 156.021 407.808C155.829 407.76 155.637 407.712 155.541 407.616C155.349 407.52 155.205 407.424 155.109 407.328L155.685 406.224H156.357C156.549 406.224 156.741 406.224 156.981 406.176C157.173 406.176 157.365 406.08 157.605 405.936C157.989 405.744 158.517 405.36 159.141 404.832C159.717 404.352 160.341 403.728 161.013 403.056C161.637 402.384 162.309 401.664 162.981 400.8C163.653 400.032 164.229 399.168 164.805 398.304C165.429 397.344 166.005 396.48 166.485 395.616C166.917 394.848 167.301 394.08 167.685 393.36C167.973 392.688 168.261 392.016 168.549 391.344C168.741 390.768 168.933 390.144 169.125 389.52C169.221 389.184 169.269 388.8 169.317 388.368C169.317 387.984 169.173 387.648 168.933 387.264C168.741 387.072 168.549 386.928 168.453 386.736C168.261 386.592 168.165 386.448 168.069 386.352C167.925 386.256 167.829 386.112 167.781 386.016L169.029 384.672C169.605 384.864 170.229 385.056 170.901 385.296C171.573 385.584 172.197 385.824 172.869 386.112C173.205 386.304 173.541 386.448 173.925 386.64C174.261 386.88 174.597 387.072 174.885 387.264C175.125 387.504 175.317 387.744 175.509 387.936C175.653 388.224 175.701 388.464 175.701 388.704C175.509 389.808 175.221 390.864 174.789 391.824C174.309 392.832 173.781 393.792 173.157 394.704C173.445 395.088 173.781 395.52 174.213 396C174.597 396.528 175.029 397.008 175.461 397.488C175.845 397.968 176.229 398.4 176.565 398.784C176.853 399.168 177.093 399.456 177.237 399.552C177.621 399.936 177.957 400.08 178.341 400.032C178.629 400.032 178.869 399.984 179.013 399.888L180.261 400.224C180.309 400.32 180.405 400.512 180.549 400.752C180.645 401.04 180.741 401.28 180.837 401.568C180.933 401.856 181.029 402.144 181.125 402.432C181.221 402.72 181.269 402.96 181.317 403.152C181.413 403.68 181.461 404.208 181.557 404.784C181.605 405.408 181.605 405.936 181.605 406.416C181.509 406.896 181.413 407.28 181.269 407.568C181.077 407.904 180.789 408.048 180.453 408C180.165 408 179.925 407.856 179.685 407.616C179.397 407.424 179.157 407.232 178.965 406.944C178.725 406.704 178.533 406.416 178.341 406.128C178.101 405.84 177.909 405.6 177.765 405.36C177.429 404.976 177.045 404.448 176.565 403.776C176.085 403.2 175.557 402.528 174.981 401.76C174.405 401.04 173.781 400.272 173.205 399.456C172.581 398.688 171.957 397.92 171.381 397.152ZM193.557 405.216C193.557 406.176 193.461 406.8 193.269 407.184C193.029 407.568 192.597 407.904 191.973 408.192C191.493 408.384 190.917 408.48 190.245 408.48C189.381 408.48 188.613 408.336 187.893 408C187.125 407.712 186.453 407.232 185.877 406.56L186.309 405.84C186.693 405.936 187.029 405.984 187.317 405.936C187.653 405.888 187.893 405.744 187.989 405.456C188.037 405.216 188.085 404.88 188.085 404.496V395.664C186.549 395.76 185.349 395.856 184.533 396.048C183.669 396.24 183.045 396.432 182.565 396.624C182.421 396.72 182.277 396.768 182.181 396.816C181.989 396.912 181.845 396.96 181.653 397.008C181.413 397.104 181.125 397.056 180.789 396.864C180.405 396.768 179.973 396.48 179.445 396.096C178.965 395.808 178.581 395.424 178.293 394.944C177.957 394.512 177.621 393.888 177.237 393.024L178.437 392.544C178.821 392.784 179.349 392.976 180.117 393.12C180.837 393.312 181.509 393.36 182.133 393.36H188.085V383.808C188.085 383.568 188.037 383.328 187.941 383.088C187.797 382.896 187.653 382.656 187.509 382.464L188.469 381.84C190.197 382.08 191.445 382.368 192.309 382.752C193.125 383.184 193.557 383.52 193.557 383.712V405.216ZM177.285 423.456C177.861 424.128 178.485 424.608 179.205 424.896C179.877 425.28 180.693 425.424 181.701 425.424C182.613 425.424 183.429 425.28 184.149 424.992C184.821 424.704 185.493 424.224 186.165 423.552C186.597 423.072 186.933 422.496 187.221 421.92C187.461 421.344 187.605 420.672 187.605 419.808C187.605 418.032 187.221 416.736 186.453 415.92C185.685 415.248 184.917 414.768 184.245 414.48C183.477 414.192 182.661 414.048 181.701 414.048C180.645 414.048 179.781 414.192 179.109 414.432C178.341 414.72 177.669 415.248 176.997 415.968C176.613 416.448 176.277 416.976 176.085 417.552C175.845 418.176 175.749 418.944 175.749 419.808C175.749 420.672 175.893 421.344 176.229 421.92C176.517 422.496 176.853 423.024 177.285 423.456ZM215.548 409.248C214.588 409.248 213.676 409.296 212.86 409.392C211.996 409.536 211.276 409.68 210.652 409.776C209.98 409.968 209.404 410.112 208.972 410.208C208.492 410.4 208.204 410.496 208.012 410.544C207.82 410.64 207.676 410.688 207.484 410.688C207.292 410.736 207.1 410.736 206.908 410.736C206.716 410.736 206.428 410.688 206.14 410.544C205.756 410.448 205.324 410.16 204.844 409.584C204.268 408.96 203.836 408.288 203.596 407.616C203.308 406.992 203.068 406.464 202.924 405.984L204.124 405.312C204.604 405.6 205.132 405.84 205.708 406.128C206.284 406.416 206.86 406.656 207.532 406.752C207.628 406.8 207.868 406.8 208.252 406.8C208.588 406.848 208.972 406.848 209.452 406.848C209.836 406.896 210.268 406.896 210.7 406.896C211.084 406.896 211.324 406.896 211.516 406.896H216.844V401.952C216.844 401.568 216.652 401.136 216.268 400.656H215.98C215.692 400.656 215.404 400.704 215.02 400.752C214.636 400.848 214.204 400.992 213.724 401.088C213.244 401.184 212.812 401.28 212.428 401.376C211.948 401.52 211.564 401.568 211.276 401.568C210.892 401.568 210.46 401.472 210.076 401.232C209.596 401.04 209.212 400.752 208.876 400.416C208.492 400.128 208.204 399.792 208.012 399.456C207.724 399.168 207.628 398.928 207.628 398.736C207.628 398.736 207.628 398.592 207.724 398.4C207.82 398.16 207.916 397.824 208.012 397.44C208.108 397.056 208.156 396.624 208.156 396.144V389.136C208.156 388.752 208.108 388.464 208.06 388.272C207.964 388.128 207.868 388.032 207.724 387.936L206.956 387.84C206.716 387.792 206.572 387.648 206.524 387.456C206.428 387.264 206.476 387.024 206.716 386.784C206.764 386.736 206.908 386.64 207.1 386.544C207.244 386.448 207.532 386.4 207.964 386.304C208.444 386.256 208.924 386.208 209.404 386.208C209.836 386.256 210.412 386.304 211.18 386.4C212.044 386.496 212.764 386.64 213.436 386.784L214.396 387.024H220.156C221.932 387.024 223.228 386.88 224.092 386.592C224.908 386.352 225.532 385.968 225.916 385.44C226.012 385.344 226.06 385.2 226.156 385.008L227.164 384.816H227.212C227.596 385.056 228.028 385.344 228.508 385.68C228.94 386.064 229.324 386.592 229.612 387.312C229.756 387.648 229.852 388.032 229.948 388.416C229.996 388.896 229.948 389.184 229.756 389.376C229.564 389.568 229.42 389.616 229.228 389.616C228.988 389.616 228.796 389.616 228.652 389.52C228.076 389.424 227.452 389.376 226.684 389.376H213.868V396.336C213.868 396.48 213.916 396.72 214.012 397.008C214.012 397.344 214.156 397.632 214.444 397.824C214.732 398.112 215.02 398.256 215.308 398.256C215.548 398.352 215.836 398.352 216.22 398.352H223.9C224.764 398.352 225.436 398.304 226.012 398.16C226.492 398.064 226.924 397.776 227.308 397.392C227.5 397.104 227.644 396.864 227.644 396.624C227.644 396.432 227.596 396.288 227.596 396.096L227.932 395.472H228.124C228.364 395.472 228.7 395.52 229.084 395.616C229.42 395.712 229.756 395.904 230.14 396.144C230.572 396.528 230.908 396.912 231.1 397.296C231.292 397.728 231.388 398.304 231.388 398.976C231.388 399.072 231.34 399.216 231.34 399.408C231.244 399.6 231.148 399.792 230.956 399.936C230.764 400.128 230.476 400.32 230.14 400.416C229.756 400.608 229.228 400.656 228.556 400.656H221.26C221.836 400.944 222.124 401.136 222.124 401.28V404.352C222.124 404.592 222.172 404.832 222.268 405.12C222.364 405.408 222.46 405.696 222.652 405.936C222.796 406.224 222.988 406.464 223.228 406.608C223.42 406.8 223.612 406.896 223.9 406.896L224.86 406.944C225.82 406.944 226.636 406.896 227.308 406.752C227.932 406.656 228.46 406.464 228.892 406.272C229.276 406.08 229.564 405.888 229.804 405.6C229.996 405.408 230.14 405.168 230.332 404.976L231.724 404.64C232.156 405.024 232.588 405.408 232.972 405.792C233.308 406.176 233.692 406.704 234.076 407.376C234.22 407.664 234.316 408.048 234.364 408.432C234.364 408.864 234.268 409.152 233.98 409.344C233.548 409.632 233.164 409.68 232.828 409.488C232.444 409.344 231.964 409.248 231.388 409.248H215.548ZM240.796 414.192C240.796 415.152 240.7 415.824 240.508 416.208C240.268 416.592 239.836 416.928 239.212 417.216C238.732 417.408 238.156 417.504 237.484 417.504C236.62 417.504 235.852 417.36 235.18 417.024C234.412 416.736 233.692 416.256 233.02 415.584L233.5 414.864C233.644 414.912 233.836 414.96 234.028 414.96C234.172 415.008 234.316 415.008 234.508 414.912C234.844 414.864 235.084 414.72 235.18 414.432C235.276 414.24 235.324 413.904 235.324 413.472V384C235.324 383.76 235.228 383.52 235.132 383.28C234.988 383.088 234.844 382.848 234.7 382.656L235.708 382.032C237.436 382.272 238.684 382.56 239.548 382.944C240.364 383.376 240.796 383.712 240.796 383.904V414.192ZM241.036 422.112C241.372 422.4 241.66 422.784 241.948 423.264C242.14 423.84 242.236 424.32 242.236 424.8C242.236 424.896 242.188 425.088 242.188 425.28C242.092 425.52 241.996 425.76 241.852 425.952C241.66 426.144 241.372 426.288 241.036 426.48C240.652 426.624 240.124 426.72 239.452 426.72H217.564C216.46 426.72 215.596 426.336 214.972 425.616C214.3 424.896 213.964 423.936 213.964 422.784V416.976C213.964 416.64 213.916 416.352 213.916 416.16C213.82 416.016 213.676 415.872 213.436 415.728C213.292 415.68 213.196 415.68 213.1 415.68C213.004 415.728 212.86 415.728 212.716 415.632C212.524 415.584 212.38 415.44 212.332 415.2C212.236 415.008 212.332 414.768 212.572 414.576C212.764 414.384 213.196 414.192 213.772 414.096C214.252 414.048 214.732 414 215.212 414C215.644 414.048 216.268 414.096 217.036 414.192C217.708 414.288 218.332 414.528 218.908 414.864C219.388 415.248 219.676 415.776 219.676 416.4V422.448C219.676 422.592 219.676 422.832 219.772 423.12C219.82 423.456 219.964 423.744 220.252 423.936C220.54 424.224 220.828 424.368 221.116 424.368C221.356 424.416 221.644 424.416 222.028 424.416H234.796C235.66 424.416 236.284 424.416 236.764 424.32C237.148 424.272 237.532 424.08 237.916 423.744C238.204 423.504 238.348 423.264 238.444 422.976C238.444 422.736 238.444 422.544 238.396 422.352L238.828 421.632C238.828 421.632 238.924 421.584 239.02 421.584C239.212 421.584 239.548 421.632 239.932 421.68C240.316 421.776 240.652 421.92 241.036 422.112ZM292.07 403.584C292.07 404.256 291.83 404.736 291.446 405.12C290.966 405.552 290.486 405.744 289.958 405.744L276.566 405.696V406.512C276.134 406.848 275.558 407.04 274.838 407.136C274.07 407.232 273.35 407.28 272.774 407.28C271.958 407.28 271.238 407.184 270.566 406.992C269.894 406.848 269.27 406.56 268.742 406.128L269.03 404.976C269.174 405.072 269.366 405.072 269.606 405.072C269.798 405.072 269.942 405.072 270.134 404.976C270.566 404.784 270.806 404.544 270.902 404.256C270.902 404.016 270.95 403.68 270.95 403.296V389.328C270.95 388.992 270.854 388.656 270.758 388.32C270.566 388.032 270.422 387.744 270.278 387.456L270.902 386.448C272.822 386.688 274.214 387.024 275.126 387.408C275.99 387.84 276.47 388.176 276.566 388.368V395.424C277.718 394.272 279.206 393.456 281.03 392.976C282.806 392.544 284.678 392.304 286.646 392.256V387.888C286.646 387.12 286.502 386.496 286.214 386.016L286.55 385.056C286.742 385.056 287.222 385.104 287.894 385.104C288.566 385.2 289.238 385.296 290.006 385.392C290.678 385.584 291.35 385.776 291.926 385.968C292.454 386.256 292.742 386.544 292.742 386.88C292.742 387.36 292.646 387.792 292.55 388.08C292.358 388.464 292.214 388.8 292.07 389.088V403.584ZM300.326 425.376C299.942 425.664 299.51 425.952 299.03 426.24C298.502 426.528 297.878 426.816 297.206 427.104C296.438 427.392 295.622 427.632 294.71 427.824C293.75 428.016 292.646 428.112 291.494 428.112C290.294 428.112 289.238 428.016 288.278 427.824C287.318 427.584 286.454 427.344 285.782 427.056C285.062 426.768 284.486 426.48 284.054 426.192C283.574 425.904 283.286 425.712 283.094 425.52C282.038 424.704 281.318 423.84 280.886 422.976C280.406 422.112 280.166 421.104 280.166 419.856C280.166 418.944 280.31 418.032 280.646 417.168C280.934 416.352 281.51 415.488 282.374 414.528C283.286 413.568 284.39 412.896 285.686 412.512C286.934 412.128 288.182 411.84 289.334 411.648C289.67 411.6 289.91 411.504 290.006 411.312C290.054 411.216 290.054 411.072 290.006 410.88C289.862 410.688 289.67 410.544 289.43 410.448C289.286 410.4 289.142 410.352 288.998 410.304L289.43 408.72C289.526 408.72 289.718 408.72 289.958 408.72C290.15 408.768 290.39 408.816 290.726 408.816C291.014 408.912 291.35 408.96 291.83 409.056C292.646 409.248 293.222 409.392 293.51 409.488C293.75 409.584 293.99 409.728 294.278 409.824C294.47 409.92 294.566 410.064 294.662 410.208C294.662 410.4 294.662 410.544 294.614 410.64C294.566 410.736 294.518 410.784 294.47 410.832C294.374 410.928 294.326 411.072 294.326 411.216C294.278 411.408 294.422 411.552 294.71 411.648C294.95 411.744 295.238 411.84 295.574 411.888C295.862 411.984 296.246 412.128 296.726 412.224C297.11 412.368 297.59 412.512 298.07 412.704C298.55 412.896 299.03 413.136 299.558 413.376C300.038 413.664 300.47 414.048 300.95 414.432C301.718 415.2 302.294 415.92 302.678 416.688C303.014 417.504 303.206 418.608 303.206 420C303.206 421.152 302.918 422.16 302.39 423.072C301.814 424.032 301.142 424.8 300.326 425.376ZM312.326 399.12C312.086 399.312 311.846 399.312 311.558 399.216C311.27 399.168 310.982 399.12 310.742 399.024C310.454 398.976 310.214 398.928 309.926 398.928C309.59 398.928 309.206 398.928 308.822 398.928H303.11V405.84C303.11 406.896 302.822 407.664 302.294 408.24C301.718 408.864 300.902 409.152 299.75 409.152C298.886 409.152 298.118 409.008 297.398 408.672C296.63 408.384 295.958 407.904 295.382 407.232L295.814 406.512C296.294 406.608 296.726 406.56 297.11 406.416C297.446 406.32 297.638 405.888 297.638 405.168V384.288C297.638 384.096 297.542 383.856 297.446 383.568C297.302 383.376 297.158 383.184 297.014 382.992L298.022 382.128C299.702 382.368 300.998 382.656 301.862 383.04C302.678 383.472 303.11 383.76 303.11 383.952V396.672L303.686 396.624C304.646 396.576 305.414 396.432 306.038 396.24C306.614 396.048 307.094 395.856 307.478 395.568C307.766 395.328 308.006 395.088 308.198 394.8C308.294 394.608 308.438 394.416 308.534 394.224L309.974 393.984C310.262 394.272 310.646 394.752 311.222 395.424C311.75 396.144 312.134 396.912 312.374 397.728C312.422 398.016 312.47 398.256 312.518 398.496C312.518 398.784 312.47 399.024 312.326 399.12ZM287.174 423.456C287.75 424.128 288.374 424.608 289.094 424.896C289.766 425.28 290.582 425.424 291.59 425.424C292.502 425.424 293.318 425.28 294.038 424.992C294.71 424.704 295.382 424.224 296.054 423.552C296.486 423.072 296.822 422.496 297.11 421.92C297.35 421.344 297.494 420.672 297.494 419.808C297.494 418.032 297.11 416.736 296.342 415.92C295.574 415.248 294.806 414.768 294.134 414.48C293.366 414.192 292.55 414.048 291.59 414.048C290.534 414.048 289.67 414.192 288.998 414.432C288.23 414.72 287.558 415.248 286.886 415.968C286.502 416.448 286.166 416.976 285.974 417.552C285.734 418.176 285.638 418.944 285.638 419.808C285.638 420.672 285.782 421.344 286.118 421.92C286.406 422.496 286.742 423.024 287.174 423.456ZM286.646 394.704C284.726 394.704 282.95 394.992 281.318 395.568C279.638 396.192 278.054 397.152 276.566 398.4V403.392H284.822C285.206 403.392 285.494 403.392 285.782 403.296C285.974 403.248 286.166 403.104 286.31 402.912C286.406 402.72 286.502 402.432 286.598 402.048C286.598 401.712 286.646 401.232 286.646 400.56V394.704ZM336.245 408.384C335.861 408.768 335.381 409.104 334.853 409.488C334.277 409.872 333.653 410.256 332.885 410.544C332.117 410.928 331.253 411.216 330.293 411.408C329.285 411.648 328.181 411.744 326.981 411.744C325.733 411.744 324.677 411.648 323.717 411.36C322.709 411.12 321.845 410.784 321.125 410.4C320.357 410.064 319.733 409.68 319.253 409.296C318.773 408.96 318.389 408.672 318.197 408.432C317.141 407.424 316.421 406.416 315.941 405.36C315.413 404.4 315.173 403.104 315.173 401.472C315.173 400.32 315.317 399.168 315.701 398.016C315.989 396.912 316.613 395.808 317.573 394.656C318.533 393.456 319.685 392.592 321.029 392.064C322.325 391.584 323.573 391.2 324.821 390.912H324.917C325.205 390.816 325.349 390.72 325.397 390.528C325.397 390.432 325.349 390.288 325.301 390.096C325.253 389.952 325.061 389.808 324.773 389.664L324.293 389.472L324.773 387.792C324.869 387.792 325.013 387.792 325.253 387.792C325.445 387.84 325.685 387.888 326.021 387.888C326.309 387.984 326.693 388.032 327.173 388.128C327.989 388.32 328.565 388.512 328.901 388.608C329.189 388.752 329.429 388.896 329.669 389.04C330.053 389.376 330.197 389.616 330.005 389.808C329.909 389.904 329.861 389.952 329.813 390C329.717 390.096 329.717 390.24 329.717 390.432C329.669 390.624 329.717 390.768 329.909 390.864C330.005 391.008 330.197 391.104 330.485 391.2L331.301 391.344C331.925 391.632 332.789 391.968 333.845 392.352C334.901 392.784 335.909 393.504 336.869 394.512C337.637 395.376 338.26 396.384 338.645 397.488C339.029 398.64 339.221 400.08 339.221 401.76C339.221 403.2 338.932 404.496 338.357 405.552C337.781 406.704 337.061 407.616 336.245 408.384ZM350.741 424.944C350.645 425.712 350.501 426.192 350.309 426.576C350.021 426.864 349.637 427.152 349.109 427.44C348.629 427.632 348.053 427.728 347.381 427.728C346.805 427.728 346.373 427.68 346.037 427.584C345.653 427.44 345.317 427.296 344.981 427.2C344.597 427.056 344.213 426.864 343.877 426.576C343.493 426.24 343.253 426 343.109 425.76L343.541 425.04C343.925 425.136 344.261 425.184 344.549 425.136C344.933 425.088 345.173 424.944 345.269 424.656C345.317 424.416 345.365 424.08 345.365 423.696V383.904C345.365 383.664 345.269 383.424 345.173 383.184C345.029 382.992 344.885 382.752 344.741 382.56L345.749 381.936C347.477 382.176 348.725 382.464 349.541 382.848C350.309 383.28 350.741 383.616 350.741 383.808V424.944ZM322.517 406.416C323.093 407.232 323.765 407.856 324.533 408.288C325.253 408.768 326.117 409.008 327.125 409.008C328.037 409.008 328.853 408.816 329.621 408.432C330.341 408.048 331.061 407.424 331.733 406.512C332.213 405.792 332.597 405.024 332.885 404.208C333.125 403.44 333.269 402.432 333.269 401.28C333.269 398.88 332.837 397.104 331.973 395.904C330.629 394.176 328.997 393.312 327.125 393.312C326.069 393.312 325.205 393.504 324.437 393.888C323.621 394.32 322.901 394.992 322.277 395.904C321.797 396.624 321.461 397.392 321.269 398.16C320.981 399.024 320.885 400.032 320.885 401.28C320.885 402.48 321.029 403.488 321.365 404.256C321.653 405.072 322.037 405.792 322.517 406.416ZM411.627 403.248C411.627 404.208 411.531 404.832 411.339 405.216C411.099 405.648 410.667 405.984 410.043 406.272C409.563 406.464 408.987 406.56 408.315 406.56C407.739 406.56 407.307 406.512 406.923 406.416C406.539 406.32 406.155 406.224 405.819 406.032C405.435 405.888 405.051 405.648 404.715 405.36C404.331 405.072 404.091 404.832 403.947 404.592L404.379 403.872C404.523 403.968 404.715 404.016 404.907 404.016C405.051 404.064 405.195 404.064 405.387 403.968C405.723 403.92 405.963 403.776 406.059 403.488C406.155 403.296 406.203 402.96 406.203 402.528V395.808C404.811 395.904 403.755 396 402.987 396.144C402.219 396.336 401.595 396.576 401.163 396.768C401.019 396.864 400.875 396.912 400.731 396.96C400.539 397.056 400.347 397.104 400.155 397.104C400.011 397.104 399.819 397.104 399.531 397.008C399.243 396.96 398.811 396.72 398.331 396.24C398.331 396.432 398.331 396.576 398.379 396.72C398.379 396.912 398.379 397.104 398.379 397.248C398.379 398.64 398.043 399.888 397.371 400.944C396.699 402.048 395.835 402.96 394.779 403.68C393.675 404.448 392.475 404.976 391.131 405.36C389.787 405.792 388.443 405.984 387.099 405.984C385.851 405.984 384.555 405.792 383.307 405.36C381.963 404.976 380.811 404.4 379.803 403.632C378.747 402.864 377.883 401.952 377.259 400.8C376.587 399.744 376.251 398.448 376.251 397.008C376.251 395.664 376.443 394.464 376.923 393.408C377.355 392.4 377.979 391.488 378.795 390.72C379.563 389.952 380.523 389.328 381.627 388.8C382.683 388.32 383.835 387.984 385.083 387.696C385.323 387.6 385.467 387.504 385.515 387.312C385.515 387.168 385.515 387.024 385.467 386.832C385.419 386.688 385.227 386.544 384.939 386.4L384.459 386.208L384.939 384.528C385.611 384.48 386.475 384.528 387.435 384.72C388.395 384.96 389.163 385.296 389.835 385.776C390.219 386.112 390.363 386.352 390.171 386.544C390.075 386.64 390.027 386.688 389.979 386.736C389.883 386.832 389.883 386.976 389.883 387.168C389.835 387.456 389.979 387.648 390.267 387.744C390.555 387.936 390.795 388.032 390.987 388.08C392.523 388.56 393.819 389.136 394.971 389.856C396.075 390.624 396.939 391.68 397.563 392.928C397.899 393.12 398.283 393.216 398.715 393.312C399.099 393.408 399.531 393.456 400.011 393.456H406.203V384.096C406.203 383.856 406.107 383.616 406.011 383.376C405.867 383.184 405.723 382.944 405.579 382.752L406.539 381.936C408.267 382.128 409.515 382.464 410.379 382.848C411.195 383.28 411.627 383.568 411.627 383.76V403.248ZM396.315 409.248C396.939 409.44 397.467 409.632 397.899 409.872C398.283 410.16 398.523 410.448 398.523 410.736C398.523 411.024 398.427 411.264 398.283 411.552C398.091 411.84 397.947 412.128 397.803 412.32V424.128C397.803 424.32 397.755 424.56 397.707 424.8L397.899 424.704C398.523 424.272 399.243 423.504 400.059 422.4C400.827 421.344 401.595 419.952 402.411 418.32C403.131 416.88 403.611 415.68 403.851 414.768C404.043 413.904 404.187 413.28 404.187 412.8C404.187 412.512 404.139 412.224 404.139 411.936C404.043 411.696 403.899 411.36 403.659 410.928C403.515 410.784 403.419 410.64 403.371 410.496C403.275 410.4 403.227 410.352 403.179 410.256C403.083 410.208 403.083 410.16 403.083 410.112L404.475 409.104C404.859 409.296 405.195 409.488 405.579 409.632C405.867 409.824 406.203 409.968 406.587 410.16C406.923 410.352 407.259 410.544 407.547 410.688C408.267 411.168 408.795 411.552 409.131 411.84C409.419 412.176 409.563 412.608 409.515 413.088C409.419 413.712 409.323 414.288 409.131 414.864C408.939 415.488 408.603 416.16 408.219 416.832L409.659 418.704C410.139 419.184 410.571 419.424 411.003 419.376C411.387 419.376 411.579 419.376 411.675 419.28L412.971 419.424C413.307 419.904 413.547 420.384 413.739 420.864C413.835 421.392 413.979 421.92 414.171 422.448C414.171 422.64 414.267 423.024 414.363 423.504C414.411 424.08 414.459 424.608 414.459 425.184C414.411 425.76 414.315 426.192 414.219 426.624C414.027 427.008 413.739 427.2 413.355 427.2C413.067 427.152 412.779 426.96 412.395 426.624C412.011 426.24 411.627 425.904 411.243 425.424C410.859 424.944 410.475 424.512 410.187 424.032C409.803 423.6 409.563 423.264 409.419 423.072C408.939 422.544 408.459 421.968 407.979 421.296C407.451 420.672 406.923 420.048 406.443 419.376C406.251 419.664 406.107 419.904 405.915 420.096C405.723 420.384 405.483 420.624 405.291 420.864C404.619 421.632 403.995 422.4 403.371 423.12C402.699 423.888 402.027 424.512 401.355 425.088C400.683 425.664 399.963 426.048 399.291 426.432C398.571 426.72 397.851 426.912 397.083 426.912C396.651 426.912 396.363 426.816 396.171 426.672C395.931 426.48 395.787 426.288 395.739 426.192C395.643 426.192 395.499 426.24 395.355 426.24H387.867V426.576C387.387 426.864 386.859 427.056 386.283 427.2C385.659 427.296 385.035 427.392 384.411 427.392C383.691 427.392 383.019 427.296 382.395 427.2C381.723 427.008 381.099 426.72 380.523 426.24L380.667 425.328C380.955 425.424 381.291 425.376 381.579 425.232C382.059 425.04 382.347 424.752 382.491 424.416C382.587 424.128 382.635 423.744 382.635 423.264V411.744C382.635 411.456 382.539 411.12 382.443 410.832C382.299 410.592 382.155 410.352 382.011 410.064L382.923 409.152C384.603 409.344 385.803 409.632 386.523 410.016C387.195 410.4 387.531 410.688 387.531 410.88V416.64C388.155 415.968 388.971 415.296 389.979 414.72C390.939 414.144 391.947 413.808 393.003 413.664V411.12C393.003 410.88 392.955 410.64 392.907 410.4C392.811 410.208 392.715 410.064 392.619 409.92L392.859 408.96C393.483 408.96 394.059 408.96 394.587 408.96C395.067 409.008 395.643 409.104 396.315 409.248ZM381.771 396.816C381.771 397.68 381.867 398.448 382.155 399.216C382.395 400.032 382.779 400.752 383.259 401.328C383.691 401.952 384.267 402.432 384.939 402.816C385.611 403.2 386.379 403.392 387.243 403.392C388.059 403.392 388.827 403.2 389.499 402.816C390.171 402.432 390.747 401.952 391.227 401.28C391.659 400.704 391.995 399.984 392.283 399.168C392.523 398.4 392.667 397.632 392.667 396.816C392.667 396.048 392.571 395.232 392.379 394.416C392.139 393.648 391.803 392.88 391.371 392.208C390.891 391.584 390.363 391.056 389.691 390.624C389.019 390.24 388.203 390 387.243 390C386.283 390 385.515 390.192 384.843 390.576C384.171 390.96 383.595 391.488 383.163 392.112C382.683 392.784 382.347 393.504 382.155 394.272C381.915 395.136 381.771 395.952 381.771 396.816ZM392.907 415.968C391.851 416.352 390.891 416.832 389.931 417.456C388.971 418.128 388.155 418.848 387.531 419.616V423.936H391.707C392.331 423.936 392.715 423.792 392.811 423.408C392.859 423.072 392.907 422.544 392.907 421.776V415.968ZM453.509 410.496C454.949 410.88 455.717 411.36 455.717 411.984C455.717 412.272 455.621 412.512 455.477 412.752C455.285 413.04 455.189 413.28 455.141 413.376L454.997 413.568V424.08C454.997 424.752 454.757 425.28 454.373 425.616C453.893 426 453.317 426.192 452.549 426.192H433.973V426.528C433.781 426.624 433.637 426.72 433.445 426.864C433.253 426.96 432.917 427.008 432.485 427.104C431.669 427.248 430.853 427.344 430.037 427.344C429.077 427.344 428.309 427.248 427.733 427.056C427.349 426.96 427.061 426.864 426.821 426.72C426.533 426.528 426.293 426.336 426.149 426.192L426.293 425.28C426.581 425.376 426.917 425.328 427.205 425.184C427.685 424.992 427.973 424.704 428.117 424.368C428.213 424.08 428.261 423.696 428.261 423.216V412.992C428.261 412.704 428.165 412.368 428.069 412.08C427.925 411.84 427.781 411.6 427.637 411.312L428.549 410.4C430.277 410.592 431.621 410.88 432.581 411.264C433.493 411.648 433.973 411.936 433.973 412.128V418.416C435.029 417.792 436.229 417.264 437.477 416.832C438.725 416.448 439.685 416.16 440.405 415.968C441.365 415.728 442.325 415.536 443.285 415.392C444.245 415.296 445.109 415.248 445.973 415.2C446.741 415.2 447.461 415.152 448.085 415.152C448.661 415.152 449.093 415.152 449.381 415.152V412.368C449.381 412.128 449.333 411.888 449.285 411.648C449.189 411.456 449.093 411.312 448.997 411.168L449.237 410.208C449.381 410.208 449.573 410.208 449.861 410.16C450.101 410.16 450.389 410.16 450.725 410.16C451.253 410.16 451.781 410.208 452.261 410.256C452.693 410.352 453.125 410.4 453.509 410.496ZM439.973 393.648C437.765 395.184 435.749 396.432 433.925 397.296C432.053 398.256 430.229 399.024 428.405 399.6C427.685 399.888 426.917 399.984 426.101 399.984C425.813 399.984 425.621 399.984 425.477 399.888C425.285 399.888 425.093 399.84 424.997 399.744C424.853 399.696 424.757 399.648 424.661 399.552L424.853 398.064C424.997 398.112 425.189 398.16 425.429 398.16C425.621 398.208 425.813 398.208 426.101 398.16C426.293 398.16 426.581 398.112 426.869 398.016C427.781 397.728 428.933 397.104 430.373 396.192C431.765 395.328 433.301 393.984 435.029 392.16C436.229 390.864 437.189 389.76 437.861 388.896C438.485 388.032 438.821 387.264 438.917 386.544C439.013 385.824 438.677 384.96 438.005 383.904L439.493 383.04C440.213 383.328 441.029 383.664 441.989 384.144C442.853 384.624 443.669 385.2 444.437 385.824C444.965 386.304 445.301 386.64 445.397 386.832C445.445 387.072 445.445 387.36 445.445 387.696C445.397 388.656 444.869 389.616 443.909 390.576C444.533 390.96 445.205 391.296 445.925 391.68C446.597 392.064 447.221 392.448 447.893 392.736C448.517 393.072 449.093 393.36 449.621 393.552C450.101 393.792 450.533 393.936 450.821 393.936C451.253 394.032 451.637 394.032 451.973 393.936C452.261 393.888 452.453 393.84 452.645 393.744L453.989 393.936C454.133 394.128 454.373 394.464 454.709 394.848C454.997 395.28 455.237 395.712 455.429 396.096C455.525 396.48 455.669 396.864 455.813 397.248C455.909 397.728 456.005 398.112 456.101 398.496C456.101 398.928 456.101 399.312 456.053 399.6C455.957 399.936 455.765 400.128 455.477 400.224C455.189 400.32 454.901 400.32 454.613 400.176C454.277 400.08 453.941 399.936 453.653 399.744C453.269 399.6 452.981 399.408 452.693 399.168C452.357 398.976 452.069 398.832 451.877 398.64C451.301 398.256 450.581 397.824 449.765 397.296C448.901 396.816 448.037 396.288 447.125 395.712C446.165 395.184 445.253 394.608 444.341 394.032C443.381 393.504 442.469 392.976 441.653 392.448C441.365 392.64 441.125 392.832 440.885 393.024C440.597 393.216 440.261 393.456 439.973 393.648ZM457.301 406.704C456.869 406.704 456.389 406.656 455.813 406.656C455.189 406.656 454.565 406.656 453.893 406.656H430.373C429.413 406.656 428.597 406.704 427.973 406.752C427.301 406.848 426.773 406.944 426.341 407.04C425.861 407.136 425.525 407.28 425.237 407.376C424.901 407.52 424.613 407.616 424.421 407.712C424.229 407.808 423.989 407.952 423.701 408.048C423.413 408.192 423.125 408.24 422.885 408.24C422.693 408.24 422.405 408.144 421.925 407.952C421.445 407.76 420.965 407.376 420.485 406.8C419.909 406.176 419.477 405.504 419.189 404.832C418.901 404.16 418.661 403.584 418.517 403.104L420.101 402.384C420.149 402.48 420.245 402.528 420.341 402.528C420.389 402.576 420.437 402.624 420.533 402.672C420.917 402.912 421.349 403.152 421.925 403.344C422.405 403.584 422.933 403.728 423.461 403.824C423.941 403.968 424.469 404.064 425.093 404.064C425.669 404.112 426.101 404.112 426.485 404.112H452.453C454.085 404.112 455.285 403.872 456.005 403.344C456.677 402.864 457.109 402.432 457.253 401.952L458.645 401.568C458.837 401.712 459.077 401.856 459.365 402C459.557 402.192 459.845 402.384 460.133 402.576C460.421 402.816 460.709 403.104 460.997 403.392C461.429 403.872 461.765 404.304 461.957 404.64C462.149 405.024 462.245 405.36 462.341 405.552C462.437 405.888 462.485 406.176 462.485 406.416C462.485 406.704 462.341 406.896 462.101 407.088C461.813 407.328 461.525 407.424 461.141 407.328C460.757 407.328 460.421 407.232 460.133 407.136C459.557 407.04 459.125 406.944 458.741 406.848C458.309 406.8 457.829 406.752 457.301 406.704ZM449.285 417.456C448.277 417.456 447.269 417.456 446.261 417.456C445.397 417.552 444.437 417.6 443.381 417.696C442.325 417.84 441.317 418.08 440.357 418.368C439.205 418.752 438.101 419.136 436.997 419.568C435.845 420.048 434.837 420.528 433.973 420.96V423.888H447.605C448.373 423.888 448.853 423.696 449.045 423.264C449.189 422.88 449.285 422.304 449.285 421.536V417.456ZM502.813 424.944C502.717 425.712 502.573 426.192 502.381 426.576C502.093 426.864 501.709 427.152 501.181 427.44C500.701 427.632 500.125 427.728 499.453 427.728C498.877 427.728 498.445 427.68 498.109 427.584C497.725 427.44 497.389 427.296 497.053 427.2C496.669 427.056 496.285 426.864 495.949 426.576C495.565 426.24 495.325 426 495.181 425.76L495.613 425.04C495.997 425.136 496.333 425.184 496.621 425.136C497.005 425.088 497.245 424.944 497.341 424.656C497.389 424.416 497.437 424.08 497.437 423.696V383.904C497.437 383.664 497.341 383.424 497.245 383.184C497.101 382.992 496.957 382.752 496.813 382.56L497.821 381.936C499.549 382.176 500.797 382.464 501.613 382.848C502.381 383.28 502.813 383.616 502.813 383.808V424.944ZM492.109 407.76C492.541 408.144 492.829 408.528 493.021 408.912C493.165 409.392 493.261 409.92 493.261 410.592C493.261 410.688 493.213 410.832 493.213 411.024C493.117 411.216 493.021 411.408 492.877 411.6C492.685 411.792 492.397 411.984 492.061 412.08C491.677 412.224 491.149 412.272 490.477 412.272H476.557C476.269 412.272 476.029 412.32 475.741 412.368C475.405 412.464 475.021 412.608 474.541 412.704C474.061 412.8 473.677 412.896 473.341 412.992C472.957 413.136 472.669 413.184 472.381 413.184C471.997 413.184 471.565 413.088 471.181 412.848C470.701 412.656 470.317 412.368 469.981 412.032C469.597 411.744 469.261 411.408 469.069 411.072C468.829 410.784 468.733 410.544 468.733 410.352C468.733 410.352 468.733 410.208 468.829 410.016C468.877 409.824 468.973 409.536 469.069 409.2C469.117 408.912 469.165 408.528 469.213 408.096V391.776C469.213 391.104 468.973 390.72 468.493 390.528C468.349 390.48 468.253 390.432 468.157 390.432C468.061 390.432 468.013 390.432 467.965 390.432C467.869 390.432 467.821 390.432 467.773 390.336C467.581 390.24 467.533 390.048 467.533 389.808C467.533 389.712 467.629 389.52 467.821 389.328C468.109 389.04 468.493 388.896 469.069 388.848C469.549 388.8 469.981 388.752 470.461 388.752C470.893 388.752 471.517 388.8 472.285 388.896C472.957 388.992 473.581 389.232 474.061 389.616C474.493 390 474.733 390.528 474.733 391.104V408.384C474.781 408.576 474.829 408.72 474.925 408.912C474.973 409.104 475.069 409.296 475.261 409.44C475.549 409.728 475.885 409.872 476.269 409.872C476.557 409.968 476.893 409.968 477.277 409.968H485.821C486.685 409.968 487.357 409.92 487.933 409.824C488.413 409.728 488.845 409.536 489.181 409.152C489.421 408.912 489.565 408.672 489.565 408.432C489.517 408.24 489.469 408.048 489.469 407.856L489.853 407.136H490.045C490.237 407.136 490.573 407.184 491.005 407.232C491.389 407.328 491.773 407.472 492.109 407.76ZM556.03 403.584C555.838 403.776 555.598 403.776 555.31 403.68C554.974 403.632 554.686 403.584 554.446 403.488C554.158 403.44 553.918 403.392 553.63 403.392C553.294 403.392 552.91 403.392 552.526 403.392H546.814V424.368C546.814 425.328 546.67 426 546.478 426.384C546.238 426.768 545.806 427.104 545.23 427.392C544.75 427.584 544.174 427.68 543.502 427.68C542.926 427.68 542.494 427.632 542.11 427.584C541.678 427.488 541.294 427.344 540.958 427.2C540.574 427.008 540.238 426.816 539.902 426.528C539.518 426.192 539.278 425.952 539.086 425.76L539.566 425.04C539.71 425.088 539.902 425.136 540.094 425.136C540.238 425.184 540.382 425.184 540.574 425.088C540.91 425.04 541.15 424.896 541.246 424.608C541.294 424.416 541.342 424.08 541.342 423.696V384.144C541.342 383.952 541.246 383.712 541.15 383.424C541.006 383.232 540.862 383.04 540.718 382.848L541.726 381.984C543.454 382.224 544.702 382.512 545.566 382.896C546.382 383.328 546.814 383.616 546.814 383.808V401.136L547.438 401.088C548.398 401.04 549.166 400.944 549.79 400.752C550.366 400.656 550.846 400.464 551.23 400.272C551.518 400.128 551.758 399.936 551.95 399.696C552.046 399.504 552.142 399.36 552.238 399.168L553.678 398.928C553.966 399.216 554.398 399.6 554.974 400.128C555.502 400.704 555.886 401.376 556.126 402.192C556.174 402.48 556.222 402.72 556.27 402.96C556.27 403.248 556.174 403.488 556.03 403.584ZM521.662 412.32C521.374 412.32 521.086 412.368 520.702 412.416C520.318 412.512 519.886 412.656 519.406 412.752C518.926 412.848 518.494 412.944 518.11 413.04C517.63 413.184 517.246 413.232 516.958 413.232C516.574 413.232 516.142 413.136 515.758 412.896C515.278 412.704 514.894 412.416 514.558 412.08C514.174 411.792 513.886 411.456 513.694 411.12C513.406 410.832 513.31 410.592 513.31 410.4C513.31 410.4 513.31 410.256 513.406 410.064C513.502 409.824 513.598 409.488 513.694 409.104C513.79 408.72 513.838 408.288 513.838 407.808V391.776C513.838 391.392 513.79 391.104 513.742 390.912C513.646 390.768 513.55 390.672 513.406 390.576L512.638 390.48C512.398 390.432 512.254 390.288 512.206 390.096C512.11 389.904 512.158 389.664 512.398 389.424C512.446 389.376 512.59 389.28 512.782 389.184C512.926 389.088 513.214 389.04 513.646 388.944C514.126 388.896 514.606 388.848 515.086 388.848C515.518 388.896 516.094 388.944 516.862 389.04C517.726 389.136 518.446 389.28 519.118 389.424L520.078 389.664H525.502C527.278 389.664 528.574 389.52 529.438 389.232C530.254 388.992 530.878 388.608 531.262 388.08C531.358 387.984 531.406 387.84 531.502 387.648L532.51 387.456H532.558C532.942 387.696 533.374 387.984 533.854 388.32C534.286 388.704 534.67 389.232 534.958 389.952C535.102 390.288 535.198 390.672 535.246 391.152C535.246 391.68 535.198 392.016 535.054 392.112C534.862 392.256 534.718 392.304 534.526 392.256C534.334 392.256 534.142 392.256 533.998 392.16C533.422 392.064 532.798 392.016 532.03 392.016H519.55V408C519.55 408.144 519.598 408.384 519.694 408.672C519.694 409.008 519.838 409.296 520.126 409.488C520.414 409.776 520.702 409.92 520.99 409.92C521.23 410.016 521.518 410.016 521.902 410.016H530.11C530.974 410.016 531.646 409.968 532.222 409.824C532.702 409.728 533.134 409.44 533.518 409.056C533.71 408.768 533.854 408.528 533.854 408.288C533.854 408.096 533.806 407.952 533.806 407.76L534.142 407.136H534.334C534.574 407.136 534.91 407.184 535.294 407.28C535.63 407.376 535.966 407.568 536.35 407.808C536.782 408.192 537.118 408.576 537.31 408.96C537.502 409.392 537.598 409.968 537.598 410.64C537.598 410.736 537.55 410.88 537.55 411.072C537.454 411.264 537.358 411.456 537.166 411.6C536.974 411.792 536.686 411.984 536.35 412.08C535.966 412.272 535.438 412.32 534.766 412.32H521.662ZM566.207 421.632C566.207 422.352 566.063 422.976 565.679 423.456C565.295 423.984 564.671 424.224 563.855 424.224H562.127C561.359 424.224 560.783 424.032 560.351 423.552C559.871 423.168 559.631 422.64 559.631 421.968V419.088L560.735 417.936H563.663C564.335 417.936 564.911 418.176 565.439 418.608C565.919 419.088 566.207 419.568 566.207 420.096V421.632Z" fill="black"/>
<g filter="url(#filter0_i_317_30)">
<circle cx="285" cy="165" r="165" fill="#9E9E9E"/>
</g>
<path d="M295.576 172L342.826 124.825C344.238 123.413 345.031 121.497 345.031 119.5C345.031 117.503 344.238 115.587 342.826 114.175C341.413 112.763 339.498 111.969 337.501 111.969C335.503 111.969 333.588 112.763 332.176 114.175L285.001 161.425L237.826 114.175C236.413 112.763 234.498 111.969 232.501 111.969C230.503 111.969 228.588 112.763 227.176 114.175C225.763 115.587 224.97 117.503 224.97 119.5C224.97 121.497 225.763 123.413 227.176 124.825L274.426 172L227.176 219.175C226.473 219.872 225.915 220.702 225.534 221.616C225.153 222.53 224.957 223.51 224.957 224.5C224.957 225.49 225.153 226.47 225.534 227.384C225.915 228.298 226.473 229.128 227.176 229.825C227.873 230.528 228.702 231.086 229.616 231.467C230.53 231.848 231.51 232.044 232.501 232.044C233.491 232.044 234.471 231.848 235.385 231.467C236.299 231.086 237.128 230.528 237.826 229.825L285.001 182.575L332.176 229.825C332.873 230.528 333.702 231.086 334.616 231.467C335.53 231.848 336.51 232.044 337.501 232.044C338.491 232.044 339.471 231.848 340.385 231.467C341.299 231.086 342.128 230.528 342.826 229.825C343.528 229.128 344.086 228.298 344.467 227.384C344.848 226.47 345.044 225.49 345.044 224.5C345.044 223.51 344.848 222.53 344.467 221.616C344.086 220.702 343.528 219.872 342.826 219.175L295.576 172Z" fill="white"/>
<defs>
<filter id="filter0_i_317_30" x="120" y="0" width="332" height="332" filterUnits="userSpaceOnUse" color-interpolation-filters="sRGB">
<feFlood flood-opacity="0" result="BackgroundImageFix"/>
<feBlend mode="normal" in="SourceGraphic" in2="BackgroundImageFix" result="shape"/>
<feColorMatrix in="SourceAlpha" type="matrix" values="0 0 0 0 0 0 0 0 0 0 0 0 0 0 0 0 0 0 127 0" result="hardAlpha"/>
<feOffset dx="2" dy="2"/>
<feGaussianBlur stdDeviation="1.5"/>
<feComposite in2="hardAlpha" operator="arithmetic" k2="-1" k3="1"/>
<feColorMatrix type="matrix" values="0 0 0 0 0 0 0 0 0 0 0 0 0 0 0 0 0 0 0.25 0"/>
<feBlend mode="normal" in2="shape" result="effect1_innerShadow_317_30"/>
</filter>
</defs>
</svg>
