<svg width="55" height="53" viewBox="0 0 55 53" fill="none" xmlns="http://www.w3.org/2000/svg">
<mask id="path-1-inside-1_93_17412" fill="white">
<path fill-rule="evenodd" clip-rule="evenodd" d="M7.48951 6.02207H41.6635C44.4249 6.02207 46.6635 8.26065 46.6635 11.0221V46.6635H47.6206C49.5536 46.6635 51.1206 45.0965 51.1206 43.1635V6.5C51.1206 4.567 49.5536 3 47.6206 3H10.9572C9.18628 3 7.72258 4.31518 7.48951 6.02207ZM46.4541 49.1219C45.8369 51.1832 43.9256 52.6855 41.6635 52.6855H5C2.23858 52.6855 0 50.447 0 47.6855V11.0221C0 8.43881 1.95904 6.3131 4.47252 6.04957C4.70385 2.66984 7.51871 0 10.9572 0H47.6206C51.2105 0 54.1206 2.91015 54.1206 6.5V43.1635C54.1206 46.7533 51.2105 49.6635 47.6206 49.6635H46.4541V49.1219ZM5 9.02207H41.6635C42.768 9.02207 43.6635 9.91751 43.6635 11.0221V47.6855C43.6635 48.7901 42.768 49.6855 41.6635 49.6855H5C3.89543 49.6855 3 48.7901 3 47.6855V11.0221C3 9.9175 3.89543 9.02207 5 9.02207Z"/>
</mask>
<path fill-rule="evenodd" clip-rule="evenodd" d="M7.48951 6.02207H41.6635C44.4249 6.02207 46.6635 8.26065 46.6635 11.0221V46.6635H47.6206C49.5536 46.6635 51.1206 45.0965 51.1206 43.1635V6.5C51.1206 4.567 49.5536 3 47.6206 3H10.9572C9.18628 3 7.72258 4.31518 7.48951 6.02207ZM46.4541 49.1219C45.8369 51.1832 43.9256 52.6855 41.6635 52.6855H5C2.23858 52.6855 0 50.447 0 47.6855V11.0221C0 8.43881 1.95904 6.3131 4.47252 6.04957C4.70385 2.66984 7.51871 0 10.9572 0H47.6206C51.2105 0 54.1206 2.91015 54.1206 6.5V43.1635C54.1206 46.7533 51.2105 49.6635 47.6206 49.6635H46.4541V49.1219ZM5 9.02207H41.6635C42.768 9.02207 43.6635 9.91751 43.6635 11.0221V47.6855C43.6635 48.7901 42.768 49.6855 41.6635 49.6855H5C3.89543 49.6855 3 48.7901 3 47.6855V11.0221C3 9.9175 3.89543 9.02207 5 9.02207Z" fill="white"/>
<path d="M7.48951 6.02207L1.54467 5.21035L0.614587 12.0221H7.48951V6.02207ZM46.6635 46.6635H40.6635V52.6635H46.6635V46.6635ZM46.4541 49.1219H52.4541L40.7062 47.401L46.4541 49.1219ZM4.47252 6.04957L5.09818 12.0169L10.1141 11.4909L10.4585 6.45929L4.47252 6.04957ZM46.4541 49.6635H40.4541V55.6635H46.4541V49.6635ZM41.6635 0.0220733H7.48951V12.0221H41.6635V0.0220733ZM52.6635 11.0221C52.6635 4.94694 47.7386 0.0220733 41.6635 0.0220733V12.0221C41.1112 12.0221 40.6635 11.5744 40.6635 11.0221H52.6635ZM52.6635 46.6635V11.0221H40.6635V46.6635H52.6635ZM46.6635 52.6635H47.6206V40.6635H46.6635V52.6635ZM47.6206 52.6635C52.8673 52.6635 57.1206 48.4102 57.1206 43.1635H45.1206C45.1206 41.7827 46.2399 40.6635 47.6206 40.6635V52.6635ZM57.1206 43.1635V6.5H45.1206V43.1635H57.1206ZM57.1206 6.5C57.1206 1.25329 52.8673 -3 47.6206 -3V9C46.2399 9 45.1206 7.88071 45.1206 6.5H57.1206ZM47.6206 -3H10.9572V9H47.6206V-3ZM10.9572 -3C6.14555 -3 2.17807 0.571522 1.54467 5.21035L13.4344 6.83379C13.2671 8.05883 12.227 9 10.9572 9V-3ZM41.6635 58.6855C46.6491 58.6855 50.8456 55.3734 52.202 50.8428L40.7062 47.401C40.8283 46.9931 41.2021 46.6855 41.6635 46.6855V58.6855ZM5 58.6855H41.6635V46.6855H5V58.6855ZM-6 47.6855C-6 53.7607 -1.07513 58.6855 5 58.6855V46.6855C5.55228 46.6855 6 47.1332 6 47.6855H-6ZM-6 11.0221V47.6855H6V11.0221H-6ZM3.84686 0.0822763C-1.68919 0.662722 -6 5.33507 -6 11.0221H6C6 11.5425 5.60728 11.9635 5.09818 12.0169L3.84686 0.0822763ZM10.4585 6.45929C10.4759 6.20516 10.6951 6 10.9572 6V-6C4.34229 -6 -1.06821 -0.865474 -1.51348 5.63985L10.4585 6.45929ZM10.9572 6H47.6206V-6H10.9572V6ZM47.6206 6C47.8968 6 48.1206 6.22386 48.1206 6.5H60.1206C60.1206 -0.403562 54.5242 -6 47.6206 -6V6ZM48.1206 6.5V43.1635H60.1206V6.5H48.1206ZM48.1206 43.1635C48.1206 43.4396 47.8968 43.6635 47.6206 43.6635V55.6635C54.5242 55.6635 60.1206 50.067 60.1206 43.1635H48.1206ZM47.6206 43.6635H46.4541V55.6635H47.6206V43.6635ZM52.4541 49.6635V49.1219H40.4541V49.6635H52.4541ZM41.6635 3.02207H5V15.0221H41.6635V3.02207ZM49.6635 11.0221C49.6635 6.6038 46.0817 3.02207 41.6635 3.02207V15.0221C39.4543 15.0221 37.6635 13.2312 37.6635 11.0221H49.6635ZM49.6635 47.6855V11.0221H37.6635V47.6855H49.6635ZM41.6635 55.6855C46.0817 55.6855 49.6635 52.1038 49.6635 47.6855H37.6635C37.6635 45.4764 39.4543 43.6855 41.6635 43.6855V55.6855ZM5 55.6855H41.6635V43.6855H5V55.6855ZM-3 47.6855C-3 52.1038 0.581725 55.6855 5 55.6855V43.6855C7.20914 43.6855 9 45.4764 9 47.6855H-3ZM-3 11.0221V47.6855H9V11.0221H-3ZM5 3.02207C0.581723 3.02207 -3 6.6038 -3 11.0221H9C9 13.2312 7.20914 15.0221 5 15.0221V3.02207Z" fill="white" mask="url(#path-1-inside-1_93_17412)"/>
<path d="M39.5599 13.6462C39.392 13.2419 39.0707 12.9206 38.6664 12.7527C38.4674 12.6679 38.2538 12.6229 38.0376 12.6203H28.1092C27.6703 12.6203 27.2494 12.7946 26.9391 13.105C26.6288 13.4153 26.4545 13.8362 26.4545 14.275C26.4545 14.7139 26.6288 15.1348 26.9391 15.4451C27.2494 15.7554 27.6703 15.9298 28.1092 15.9298H34.0497L9.90712 40.0723V34.1318C9.90712 33.693 9.73278 33.2721 9.42246 32.9618C9.11214 32.6514 8.69125 32.4771 8.25239 32.4771C7.81353 32.4771 7.39264 32.6514 7.08232 32.9618C6.77199 33.2721 6.59766 33.693 6.59766 34.1318V44.0602C6.60027 44.2765 6.64524 44.4901 6.73003 44.689C6.89795 45.0934 7.21926 45.4147 7.62359 45.5826C7.82253 45.6674 8.03615 45.7123 8.25239 45.715H18.1808C18.6196 45.715 19.0405 45.5406 19.3509 45.2303C19.6612 44.92 19.8355 44.4991 19.8355 44.0602C19.8355 43.6214 19.6612 43.2005 19.3509 42.8902C19.0405 42.5798 18.6196 42.4055 18.1808 42.4055H12.2403L36.3828 18.2629V24.2034C36.3828 24.6423 36.5572 25.0632 36.8675 25.3735C37.1778 25.6838 37.5987 25.8582 38.0376 25.8582C38.4764 25.8582 38.8973 25.6838 39.2077 25.3735C39.518 25.0632 39.6923 24.6423 39.6923 24.2034V14.275C39.6897 14.0588 39.6447 13.8452 39.5599 13.6462Z" fill="white"/>
</svg>
