<svg width="117" height="207" viewBox="0 0 117 207" fill="none" xmlns="http://www.w3.org/2000/svg">
<g filter="url(#filter0_d_186_198)">
<path fill-rule="evenodd" clip-rule="evenodd" d="M52 -41L5.00005 -41L5 196.35L99 196.35L99.0001 -41L52 -41ZM6.17505 196.35L51.0674 146.054L97.6224 196.35L6.17505 196.35Z" fill="#D6B27F"/>
</g>
<g filter="url(#filter1_d_186_198)">
<path fill-rule="evenodd" clip-rule="evenodd" d="M51.4129 -34.8062L8.52543 -34.8062L8.52539 185.981L9.59723 185.981L9.59716 185.981L93.0428 185.981L93.0427 185.981L94.3004 185.981L94.3004 -34.8062L51.4129 -34.8062ZM9.59723 185.981L93.0427 185.981L50.5614 139.195L9.59723 185.981Z" fill="#5D180A"/>
</g>
<g filter="url(#filter2_i_186_198)">
<path d="M34.5605 45.724C34.7045 45.364 34.8485 45.004 34.9925 44.68C35.0645 44.392 35.1725 44.068 35.2445 43.78C35.3165 43.492 35.3525 43.204 35.3885 42.88C35.3885 42.592 35.4245 42.304 35.4245 41.944V32.116H25.8125C24.9125 32.116 24.2285 32.188 23.7605 32.296C23.2565 32.44 22.8605 32.548 22.5365 32.656L22.5725 32.62C22.1405 32.8 21.7445 32.872 21.3845 32.872C21.2045 32.872 20.8805 32.8 20.4485 32.584C19.9805 32.44 19.5845 32.116 19.2605 31.612C19.1165 31.396 18.9365 31.036 18.7205 30.568C18.5045 30.136 18.3245 29.74 18.2165 29.38L20.1245 29.02C20.2325 29.092 20.3765 29.164 20.5565 29.236C20.7005 29.344 20.8445 29.416 20.9885 29.452C21.5645 29.668 21.9965 29.776 22.2485 29.776C22.4645 29.848 22.5725 29.848 22.6085 29.848L35.2085 29.812C35.4965 29.74 35.8565 29.596 36.2525 29.452C36.6125 29.344 37.0085 29.236 37.4045 29.092C37.7645 29.02 38.0885 28.912 38.4485 28.84C38.7725 28.768 39.0605 28.732 39.2765 28.732C39.4205 28.732 39.6725 28.804 39.9605 28.912C40.2485 29.056 40.5365 29.236 40.8245 29.38C41.1125 29.596 41.3645 29.776 41.5805 29.956C41.7605 30.172 41.8685 30.352 41.8685 30.496C41.8685 30.82 41.7605 31.216 41.5445 31.684C41.2925 32.188 41.0765 32.584 40.9325 32.872C40.8965 32.908 40.8965 32.944 40.8965 32.944C40.8965 32.98 40.8965 32.98 40.8965 32.98C40.8605 33.016 40.8605 33.052 40.8605 33.088L40.8965 32.98C40.8965 33.196 40.8965 33.664 40.8965 34.42C40.8965 35.212 40.8605 36.076 40.8605 37.012C40.7885 37.948 40.7525 38.884 40.6805 39.784C40.6085 40.72 40.4645 41.404 40.3205 41.836C39.9605 42.736 39.4925 43.6 38.8445 44.464C38.1605 45.328 37.2605 46.012 36.1445 46.48L34.5605 45.724ZM40.6445 53.104H22.2485C21.5645 53.104 20.9885 53.14 20.5205 53.176C20.0165 53.248 19.6205 53.32 19.2965 53.392C18.9365 53.464 18.6125 53.572 18.3965 53.644C18.1085 53.752 17.8925 53.86 17.6765 53.932C17.5685 54.004 17.4245 54.04 17.2445 54.112C17.0285 54.22 16.7765 54.256 16.5605 54.256C16.3445 54.256 16.0565 54.22 15.6965 54.076C15.3005 54.004 14.9045 53.716 14.5085 53.212C14.0045 52.636 13.6445 52.096 13.3565 51.52C13.0325 50.98 12.8165 50.512 12.7085 50.116L14.2565 49.252C14.6525 49.468 15.1205 49.72 15.6245 49.972C16.1285 50.26 16.6325 50.44 17.2085 50.512C17.4965 50.584 17.7845 50.584 18.0725 50.584C18.3245 50.62 18.6125 50.62 18.9725 50.62H37.7285C38.0885 50.62 38.5205 50.62 38.9885 50.62C39.4205 50.62 39.8525 50.584 40.2845 50.476C40.6805 50.404 41.0765 50.296 41.4365 50.08C41.7605 49.9 42.0485 49.612 42.2645 49.18L43.9925 48.604C44.4965 49 45.0005 49.396 45.5045 49.828C46.0085 50.26 46.4045 50.728 46.6925 51.232C46.8725 51.52 46.9805 51.88 47.0525 52.312C47.0885 52.78 46.9805 53.14 46.6925 53.428C46.5125 53.572 46.2605 53.644 45.9365 53.644C45.5765 53.644 45.2165 53.608 44.8565 53.536C44.4245 53.464 44.0285 53.392 43.6685 53.284C43.2725 53.212 42.9485 53.176 42.6965 53.176L40.6445 53.104ZM54.8294 45.292C54.1814 45.292 53.5694 45.22 52.9934 45.076C52.3814 44.968 51.8054 44.68 51.2294 44.176L51.4094 42.916C51.9134 43.06 52.2734 43.096 52.4894 42.988C52.6334 42.916 52.7054 42.772 52.7774 42.556C52.7774 42.412 52.8134 42.124 52.8134 41.764V30.172C52.8134 29.992 52.7774 29.812 52.7054 29.668C52.5974 29.56 52.4894 29.416 52.3814 29.2L53.6414 28.264C54.3974 28.372 55.0814 28.516 55.6574 28.66C56.2334 28.876 56.7014 29.056 57.0974 29.236C57.4574 29.452 57.7454 29.632 57.9614 29.776C58.1414 29.956 58.2494 30.1 58.2494 30.172V30.568C58.2854 30.532 58.5014 30.424 58.8614 30.208C59.1854 30.028 59.6534 29.812 60.3014 29.524C61.2374 29.164 62.1374 28.912 62.9294 28.696C63.6854 28.552 64.5494 28.444 65.4854 28.444C65.9174 28.444 66.4214 28.552 66.9254 28.732C67.3934 28.948 67.8254 29.128 68.2574 29.308C68.7614 29.596 69.1574 29.812 69.4814 30.028C69.7694 30.244 69.9854 30.46 70.1654 30.604C70.3094 30.784 70.3814 30.928 70.4534 31C70.4894 31.108 70.5254 31.18 70.5254 31.216C70.5254 31.396 70.4534 31.684 70.3814 32.08C70.2374 32.512 70.0934 32.908 69.9494 33.304C69.9494 33.304 69.9494 33.52 69.9494 33.916C69.9134 34.348 69.9134 34.852 69.9134 35.464C69.8774 36.112 69.8414 36.796 69.8414 37.516C69.8054 38.272 69.7694 38.956 69.7694 39.604C69.7334 40.288 69.6974 40.864 69.6974 41.332C69.6614 41.836 69.6614 42.16 69.6614 42.268C69.5894 42.844 69.3374 43.312 68.9414 43.6C68.5094 43.924 68.0054 44.104 67.3934 44.104H58.2494V44.5C57.6734 44.788 57.1334 45.004 56.5934 45.112C56.0174 45.256 55.4414 45.292 54.8294 45.292ZM78.4814 48.028C78.4814 48.424 78.4454 48.748 78.4094 48.964C78.3374 49.252 78.2654 49.468 78.1574 49.612C78.0134 49.828 77.8694 49.972 77.7254 50.08C77.5094 50.224 77.2934 50.368 77.0054 50.512C76.7894 50.656 76.5734 50.728 76.3214 50.728C76.0334 50.8 75.7454 50.8 75.4214 50.8C73.9454 50.8 72.6494 50.224 71.5334 49.036L72.1094 48.1C72.2894 48.172 72.4694 48.208 72.6494 48.244C72.7934 48.316 72.9014 48.352 73.0454 48.28C73.1174 48.244 73.1534 48.136 73.1894 47.992C73.1894 47.848 73.2254 47.704 73.2254 47.488V26.608C73.2254 26.464 73.1534 26.284 73.0814 26.068C72.9374 25.888 72.8294 25.708 72.6854 25.564L73.8734 24.664C75.4214 24.844 76.5734 25.132 77.3654 25.492C78.0854 25.888 78.4814 26.176 78.4814 26.356V36.976C78.9854 36.94 79.4534 36.832 79.8134 36.688C80.1374 36.544 80.4254 36.4 80.6414 36.184C80.8214 36.04 80.9654 35.86 81.0734 35.68C81.1454 35.536 81.2174 35.392 81.2894 35.248L83.0894 34.996C83.2334 35.14 83.4134 35.284 83.6294 35.5C83.8094 35.716 84.0254 35.968 84.2414 36.22C84.4574 36.508 84.6374 36.832 84.8174 37.12C84.9614 37.444 85.1054 37.768 85.1774 38.056C85.2134 38.308 85.2494 38.56 85.2494 38.776C85.2494 39.064 85.1054 39.28 84.8894 39.424C84.6734 39.568 84.4574 39.64 84.2414 39.568C83.9894 39.568 83.7374 39.532 83.5214 39.46C83.1254 39.388 82.6214 39.316 81.9734 39.316H78.4814V48.028ZM75.7814 54.4C76.1414 54.4 76.5734 54.436 77.0054 54.508C77.4014 54.58 77.7974 54.724 78.1574 54.94C78.4814 55.156 78.7694 55.408 79.0214 55.732C79.2374 56.092 79.3454 56.56 79.3454 57.1C79.3454 57.208 79.3094 57.352 79.3094 57.532C79.2374 57.748 79.1294 57.928 78.9854 58.108C78.7694 58.252 78.5174 58.432 78.1574 58.576C77.7974 58.72 77.2934 58.792 76.6814 58.792H61.1294C60.1214 58.792 59.3294 58.468 58.7534 57.892C58.1414 57.316 57.8534 56.524 57.8534 55.552V50.296C57.8534 49.936 57.7814 49.684 57.6374 49.576C57.5294 49.54 57.4214 49.504 57.3494 49.468C57.2054 49.468 57.0974 49.468 57.0254 49.432C56.8814 49.432 56.8094 49.36 56.7374 49.252C56.6654 49.18 56.6294 49.072 56.6294 48.856C56.6294 48.532 56.8094 48.28 57.1694 48.1C57.4934 47.956 57.8894 47.884 58.3934 47.812C58.8254 47.812 59.2934 47.812 59.7974 47.812C60.2294 47.884 60.5894 47.92 60.8054 47.92C61.4534 48.028 62.0294 48.244 62.5334 48.568C63.0374 48.928 63.2894 49.36 63.2894 49.864V55.3C63.2894 55.696 63.3974 55.984 63.6134 56.2C63.8294 56.416 64.1174 56.524 64.4774 56.524H73.1894C73.6934 56.524 74.0894 56.524 74.3774 56.452C74.6294 56.416 74.8814 56.272 75.1334 56.056C75.2774 55.948 75.3494 55.804 75.3854 55.624C75.3854 55.48 75.3494 55.372 75.3134 55.228L75.7814 54.4ZM58.2494 41.8H63.9734C64.2254 41.8 64.4054 41.764 64.5134 41.62C64.5854 41.512 64.6214 41.26 64.6214 40.9V30.784C64.1534 30.784 63.6494 30.856 63.1094 31C62.5334 31.144 61.8854 31.396 61.1294 31.684C60.6974 31.864 60.3374 32.044 60.0134 32.224C59.6534 32.44 59.3654 32.656 59.1134 32.836C58.7894 33.052 58.5014 33.268 58.2494 33.484V41.8ZM44.2049 108.68C43.8809 108.68 43.5209 108.644 43.0889 108.644C42.6569 108.644 42.1889 108.644 41.6849 108.644H24.0449C23.3249 108.644 22.6049 108.68 21.8489 108.752C21.0569 108.824 20.3369 109.04 19.7249 109.364C19.5089 109.436 19.2929 109.544 19.0769 109.616C18.8249 109.724 18.6089 109.76 18.4289 109.76C18.2129 109.76 17.9249 109.688 17.4929 109.544C17.0249 109.4 16.5929 109.112 16.1969 108.644C15.6929 108.176 15.3329 107.672 15.1169 107.132C14.8289 106.628 14.6489 106.16 14.5409 105.764L16.5209 104.972C17.0969 105.548 17.7809 105.908 18.6449 106.052C19.4369 106.196 20.2649 106.304 21.1289 106.304H29.7329V99.824C29.7329 99.68 29.6969 99.5 29.6249 99.32C29.5529 99.176 29.4809 99.068 29.4089 98.924H27.3569V99.536C26.7449 99.824 26.1689 100.04 25.6289 100.148C25.0529 100.292 24.4409 100.328 23.8289 100.328C23.2529 100.328 22.6769 100.256 22.1009 100.112C21.4889 100.004 20.9129 99.716 20.3729 99.212L20.5529 98.096C21.4529 98.24 21.9209 97.772 21.9209 96.728V85.964C21.9209 85.712 21.8849 85.46 21.8129 85.244C21.7049 85.028 21.5969 84.848 21.4889 84.668L22.4609 83.696C24.0089 83.912 25.2329 84.164 26.0969 84.488C26.9249 84.848 27.3569 85.136 27.3569 85.316V90.212C28.9409 89.456 30.5609 88.88 32.2529 88.52C33.9089 88.196 35.6369 87.944 37.4369 87.764V84.776C37.4369 84.416 37.3289 84.092 37.1849 83.876L37.4009 82.868C38.0849 82.868 38.7689 82.868 39.4529 82.868C40.1009 82.904 40.6769 82.976 41.2529 83.084C42.0449 83.264 42.5849 83.48 42.9089 83.696C43.1969 83.984 43.3409 84.236 43.3409 84.488C43.3409 84.704 43.2689 84.884 43.1969 85.1C43.0529 85.316 42.9449 85.532 42.8009 85.712C42.8009 86.18 42.8009 86.72 42.8369 87.332C42.8369 87.98 42.8369 88.628 42.8369 89.312C42.8369 90.032 42.8369 90.716 42.8369 91.4C42.8369 92.12 42.8369 92.768 42.8369 93.344C42.8369 94.352 42.8369 95.18 42.8369 95.864C42.8009 96.584 42.8009 97.016 42.8009 97.124C42.8009 97.7 42.5849 98.132 42.1529 98.456C41.7209 98.816 41.1089 98.96 40.3889 98.96H33.7649C34.4849 99.284 34.8449 99.536 34.8449 99.68V105.332C34.8449 105.62 34.8809 105.836 34.9529 106.016C34.9889 106.232 35.0969 106.34 35.2769 106.34H40.6769C41.1809 106.34 41.6489 106.304 42.0449 106.196C42.4049 106.124 42.6929 106.016 42.9449 105.872C43.1609 105.764 43.3409 105.62 43.4849 105.476C43.5929 105.332 43.6649 105.188 43.7369 105.044L45.2129 104.54C45.4289 104.684 45.6809 104.792 45.9689 104.9C46.1849 105.044 46.4009 105.152 46.6889 105.296C46.9409 105.476 47.1929 105.656 47.4089 105.872C47.8049 106.304 48.0929 106.628 48.2729 106.88C48.4169 107.168 48.4889 107.348 48.5609 107.492C48.6329 107.78 48.6689 107.996 48.6689 108.212C48.5969 108.428 48.4529 108.68 48.2009 108.896C47.9849 109.112 47.6609 109.184 47.2649 109.148C46.8329 109.148 46.5089 109.076 46.2209 109.004C45.7889 108.932 45.4649 108.86 45.1769 108.788C44.8529 108.752 44.5289 108.716 44.2049 108.68ZM37.4009 90.176C35.6729 90.248 33.9809 90.536 32.2889 91.04C30.5609 91.544 28.9409 92.264 27.3569 93.128V96.656H36.7169C37.0409 96.656 37.2569 96.584 37.3289 96.44C37.3649 96.296 37.4009 96.008 37.4009 95.504V90.176ZM79.0923 112.82C79.0203 113.18 78.8763 113.504 78.6603 113.72C78.4083 113.936 78.0483 114.116 77.6163 114.332C77.2563 114.476 76.7523 114.584 76.1043 114.584C75.6363 114.584 75.2763 114.548 75.0603 114.512C74.8083 114.44 74.5923 114.368 74.3763 114.296L74.1243 114.188C73.7643 114.044 73.4043 113.828 73.0803 113.54C72.7203 113.252 72.4323 113 72.2883 112.82L72.8643 111.884C73.0443 111.956 73.2603 111.992 73.4763 111.992C73.6923 112.064 73.8363 112.064 73.9083 112.064C73.9803 111.992 74.0163 111.74 74.0163 111.272V81.428C74.0163 81.284 73.9443 81.104 73.8723 80.888C73.7283 80.744 73.6203 80.564 73.4763 80.384L74.7003 79.628C76.2123 79.844 77.3643 80.132 78.1203 80.492C78.8403 80.888 79.2003 81.176 79.2003 81.356V112.82H79.0923ZM65.9523 95.036C65.1243 96.044 64.2963 96.944 63.5043 97.808C62.6763 98.672 61.8123 99.5 60.9123 100.22C59.9763 101.012 59.0043 101.696 57.9963 102.344C56.9163 102.992 55.7643 103.604 54.5043 104.144C54.0723 104.36 53.7123 104.468 53.3883 104.504C53.0283 104.576 52.6683 104.576 52.2723 104.576C51.8403 104.576 51.5523 104.504 51.3723 104.324C51.1563 104.18 50.9403 104 50.7963 103.856L51.4083 101.912C51.7683 102.236 52.0923 102.38 52.3443 102.38C52.4883 102.38 52.7043 102.344 52.9563 102.236C53.1723 102.164 53.3523 102.056 53.5683 101.912C54.4683 101.372 55.3683 100.688 56.3043 99.86C57.1683 99.068 58.1403 98.024 59.1483 96.656C60.2643 95.144 61.2003 93.74 61.9563 92.372C62.6763 91.04 63.2523 89.636 63.6843 88.196H58.9683C58.2843 88.232 57.7803 88.268 57.4923 88.34C57.1683 88.448 56.9163 88.556 56.7003 88.628C56.4843 88.7 56.2683 88.772 56.0523 88.844C55.8363 88.916 55.5843 88.952 55.3323 88.952C55.1523 88.952 54.8643 88.844 54.4323 88.628C53.9643 88.448 53.5683 88.124 53.2443 87.62C53.0283 87.368 52.8483 87.008 52.6683 86.54C52.4523 86.108 52.3083 85.748 52.2363 85.46L53.9643 85.064C54.1803 85.244 54.5403 85.424 55.0083 85.568C55.4043 85.712 55.7643 85.784 56.0523 85.82C56.3403 85.892 56.4843 85.928 56.5563 85.928L63.4323 85.892C63.7203 85.82 64.0443 85.676 64.4403 85.532C64.8003 85.424 65.1963 85.316 65.5923 85.172C65.9523 85.1 66.2763 84.992 66.6363 84.92C66.9243 84.848 67.1763 84.812 67.3923 84.812C67.5003 84.812 67.7163 84.884 68.0043 85.028C68.2923 85.208 68.5803 85.388 68.8683 85.604C69.1563 85.82 69.4083 86.072 69.6603 86.288C69.8763 86.54 69.9843 86.756 69.9843 86.9C69.9843 87.332 69.8403 87.872 69.5883 88.592C69.3003 89.348 68.9403 90.104 68.5443 90.896C68.1123 91.724 67.6443 92.516 67.2123 93.236C66.7083 94.028 66.3123 94.604 65.9523 95.036Z" fill="white"/>
</g>
<defs>
<filter id="filter0_d_186_198" x="5" y="-43" width="112" height="249.35" filterUnits="userSpaceOnUse" color-interpolation-filters="sRGB">
<feFlood flood-opacity="0" result="BackgroundImageFix"/>
<feColorMatrix in="SourceAlpha" type="matrix" values="0 0 0 0 0 0 0 0 0 0 0 0 0 0 0 0 0 0 127 0" result="hardAlpha"/>
<feOffset dx="12" dy="4"/>
<feGaussianBlur stdDeviation="3"/>
<feComposite in2="hardAlpha" operator="out"/>
<feColorMatrix type="matrix" values="0 0 0 0 0 0 0 0 0 0 0 0 0 0 0 0 0 0 0.3 0"/>
<feBlend mode="normal" in2="BackgroundImageFix" result="effect1_dropShadow_186_198"/>
<feBlend mode="normal" in="SourceGraphic" in2="effect1_dropShadow_186_198" result="shape"/>
</filter>
<filter id="filter1_d_186_198" x="0.525391" y="-42.8062" width="109.775" height="244.787" filterUnits="userSpaceOnUse" color-interpolation-filters="sRGB">
<feFlood flood-opacity="0" result="BackgroundImageFix"/>
<feColorMatrix in="SourceAlpha" type="matrix" values="0 0 0 0 0 0 0 0 0 0 0 0 0 0 0 0 0 0 127 0" result="hardAlpha"/>
<feOffset dx="4" dy="4"/>
<feGaussianBlur stdDeviation="6"/>
<feComposite in2="hardAlpha" operator="out"/>
<feColorMatrix type="matrix" values="0 0 0 0 0 0 0 0 0 0 0 0 0 0 0 0 0 0 0.25 0"/>
<feBlend mode="normal" in2="BackgroundImageFix" result="effect1_dropShadow_186_198"/>
<feBlend mode="normal" in="SourceGraphic" in2="effect1_dropShadow_186_198" result="shape"/>
</filter>
<filter id="filter2_i_186_198" x="12.709" y="24.664" width="74.541" height="91.92" filterUnits="userSpaceOnUse" color-interpolation-filters="sRGB">
<feFlood flood-opacity="0" result="BackgroundImageFix"/>
<feBlend mode="normal" in="SourceGraphic" in2="BackgroundImageFix" result="shape"/>
<feColorMatrix in="SourceAlpha" type="matrix" values="0 0 0 0 0 0 0 0 0 0 0 0 0 0 0 0 0 0 127 0" result="hardAlpha"/>
<feOffset dx="2" dy="2"/>
<feGaussianBlur stdDeviation="1"/>
<feComposite in2="hardAlpha" operator="arithmetic" k2="-1" k3="1"/>
<feColorMatrix type="matrix" values="0 0 0 0 0 0 0 0 0 0 0 0 0 0 0 0 0 0 0.25 0"/>
<feBlend mode="normal" in2="shape" result="effect1_innerShadow_186_198"/>
</filter>
</defs>
</svg>
