<svg width="93" height="113" viewBox="0 0 93 113" fill="none" xmlns="http://www.w3.org/2000/svg">
<g filter="url(#filter0_d_189_1605)">
<path d="M75.8739 10.165H12.6128C11.269 10.165 10.1797 11.1624 10.1797 12.3927V16.8481C10.1797 18.0784 11.269 19.0758 12.6128 19.0758H75.8739C77.2177 19.0758 78.307 18.0784 78.307 16.8481V12.3927C78.307 11.1624 77.2177 10.165 75.8739 10.165Z" fill="#382512" stroke="#23170C" stroke-width="2" stroke-miterlimit="10"/>
<path d="M78.4642 16.023H13.5811L11.959 11.5676H75.2201L78.4642 16.023Z" fill="#EACF84"/>
<path d="M10.311 11.5676C10.2209 8.51487 10.1308 93.2493 10.2209 96.3021C10.311 99.3548 12.472 100 12.472 100V15.3481C12.472 15.3481 10.4012 14.6204 10.311 11.5676Z" fill="#382512" stroke="#23170C" stroke-width="2" stroke-miterlimit="10"/>
<path d="M77.8409 15.3481H12.6855V100H77.8409C79.0358 100 80.0036 99.1138 80.0036 98.0198V17.3282C80.0036 16.2342 79.0358 15.3481 77.8409 15.3481Z" fill="#382512" stroke="#23170C" stroke-width="2" stroke-miterlimit="10"/>
<path d="M76.9428 95.7773V96.1898H76.4922" stroke="#EACF84" stroke-miterlimit="10"/>
<path d="M75.5886 96.1898H16.4043" stroke="#EACF84" stroke-miterlimit="10"/>
<path d="M15.9545 96.1898H15.5039V95.7773" stroke="#EACF84" stroke-miterlimit="10"/>
<path d="M15.5039 94.9555V19.8992" stroke="#EACF84" stroke-miterlimit="10"/>
<path d="M15.5039 19.4883V19.0757H15.9545" stroke="#EACF84" stroke-miterlimit="10"/>
<path d="M16.8574 19.0757H76.0399" stroke="#EACF84" stroke-miterlimit="10"/>
<path d="M76.4922 19.0757H76.9428V19.4883" stroke="#EACF84" stroke-miterlimit="10"/>
<path d="M76.9434 20.3084V95.3664" stroke="#EACF84" stroke-miterlimit="10"/>
<path d="M23.716 82.6653C23.8726 82.6653 24.0293 82.6721 24.1836 82.6859C21.8914 82.894 20.1006 84.7264 20.1006 86.9546C20.1006 89.3245 22.1228 91.2438 24.6198 91.2438C26.9674 91.2438 28.898 89.5441 29.1173 87.3686C29.1294 87.515 29.139 87.6637 29.139 87.8124C29.139 90.6559 26.7119 92.9595 23.716 92.9595C20.7201 92.9595 18.293 90.6559 18.293 87.8124C18.293 84.9689 20.7201 82.6653 23.716 82.6653Z" fill="#FF9900"/>
<path d="M23.716 32.4051C23.8726 32.4051 24.0293 32.3987 24.1836 32.3858C21.8914 32.1898 20.1006 30.4652 20.1006 28.3682C20.1006 26.1376 22.1228 24.3312 24.6198 24.3312C26.9674 24.3312 28.898 25.9309 29.1173 27.9785C29.1294 27.8407 29.139 27.7007 29.139 27.5608C29.139 24.8845 26.7119 22.7164 23.716 22.7164C20.7201 22.7164 18.293 24.8845 18.293 27.5608C18.293 30.237 20.7201 32.4051 23.716 32.4051Z" fill="#FF9900"/>
<path d="M68.3761 32.4052C68.2195 32.4052 68.0628 32.3987 67.9086 32.3858C70.2007 32.1898 71.9915 30.4653 71.9915 28.3682C71.9915 26.1376 69.9693 24.3312 67.4723 24.3312C65.1247 24.3312 63.1941 25.9309 62.9748 27.9785C62.9628 27.8407 62.9531 27.7007 62.9531 27.5608C62.9531 24.8846 65.3802 22.7164 68.3761 22.7164C71.372 22.7164 73.7991 24.8846 73.7991 27.5608C73.7991 30.237 71.372 32.4052 68.3761 32.4052Z" fill="#FF9900"/>
<path d="M68.3761 82.6653C68.2195 82.6653 68.0628 82.6721 67.9086 82.6859C70.2007 82.894 71.9915 84.7264 71.9915 86.9546C71.9915 89.3245 69.9693 91.2438 67.4723 91.2438C65.1247 91.2438 63.1941 89.5441 62.9748 87.3686C62.9628 87.515 62.9531 87.6637 62.9531 87.8124C62.9531 90.6559 65.3802 92.9595 68.3761 92.9595C71.372 92.9595 73.7991 90.6559 73.7991 87.8124C73.7991 84.9689 71.372 82.6653 68.3761 82.6653Z" fill="#FF9900"/>
<path d="M45.9351 32.6877C45.9351 32.6877 41.9898 25.5063 45.9351 25.508C49.8803 25.5096 45.9351 32.6877 45.9351 32.6877Z" stroke="#FF9900" stroke-miterlimit="10"/>
<path d="M51.4298 36.3114C47.7189 35.2306 45.949 32.6828 45.949 32.6828C45.949 32.6828 44.1774 35.2306 40.4682 36.3114C36.7572 37.3922 33.5527 38.0094 33.5527 38.0094L45.949 63.2201L58.3453 38.0094C58.3453 38.0094 55.1408 37.3922 51.4298 36.3114Z" stroke="#FF9900" stroke-miterlimit="10"/>
<path d="M45.9277 42.643C45.9348 42.6525 45.9418 42.662 45.9489 42.6731" stroke="#FF9900" stroke-miterlimit="10"/>
<path d="M45.9274 42.643C43.3807 38.8345 39.2552 37.2899 33.5527 38.0111" stroke="#FF9900" stroke-miterlimit="10"/>
<path d="M45.9492 42.6743C48.4959 38.8658 52.5997 37.2899 58.3023 38.0111" stroke="#FF9900" stroke-miterlimit="10"/>
<path d="M45.9492 42.6743V63.2218" stroke="#FF9900" stroke-miterlimit="10"/>
<path d="M47.7085 44.0736L46.117 49.7979L44.2354 44.1446L44.1777 41.2271L45.8431 39.0523L45.8413 39.0341L45.8485 39.0424L45.8557 39.0341V39.0523L47.6237 41.1578L47.7085 44.0736Z" fill="#FF0000"/>
<path d="M47.6255 41.1578L45.8574 39.0341L47.894 37.3526L48.7952 38.8542L47.6255 41.1578Z" fill="#CE0000"/>
<path d="M44.1916 41.2271L45.8551 39.0341L43.7392 37.4384L42.9102 38.9747L44.1916 41.2271Z" fill="#CE0000"/>
<path d="M43.7402 37.4384L45.7895 36.5869L47.8928 37.3526L45.8561 39.0341L43.7402 37.4384Z" fill="#700000"/>
<path d="M46.1191 49.7979L47.7106 44.0736L48.2819 46.2089L46.1191 49.7979Z" fill="#FF8993"/>
<path d="M46.119 49.7979L44.25 44.1446L43.7832 46.3013L46.119 49.7979Z" fill="#FF8993"/>
<path d="M44.1923 41.2271L43.1523 41.7552L44.2481 44.1446L44.1923 41.2271Z" fill="#D97B89"/>
<path d="M43.1541 41.7552L41.9375 41.5258L42.6476 39.3592L43.1541 41.7552Z" fill="#D97B89"/>
<path d="M49.7772 43.6462L48.9409 41.6364L48.7949 38.8542L49.9015 41.6182L49.7772 43.6462Z" fill="#FF0000"/>
<path d="M46.1187 49.7979L46.1763 52.1411C46.1763 52.1411 44.4011 50.3392 43.4873 48.3326C42.5735 46.3244 42.1878 44.7436 41.986 43.5159C41.7823 42.2882 41.9373 41.5258 41.9373 41.5258L43.1539 41.7535L44.2497 44.1429L43.7829 46.2997L46.1187 49.7979Z" fill="#CE0000"/>
<path d="M43.1529 41.7552L42.6465 39.3592L42.9114 38.9747L44.1929 41.2271L43.1529 41.7552Z" fill="#FF0000"/>
<path d="M47.7097 44.0736L47.625 41.1578L48.7947 38.8542L48.9407 41.6364L47.7097 44.0736Z" fill="#D97B89"/>
<path d="M47.7106 44.0736L48.2819 46.2089L46.1191 49.7979L46.1768 52.1411C46.1768 52.1411 47.853 49.8986 48.5108 48.4828C49.1686 47.0669 49.4877 45.93 49.6427 45.1676C49.7977 44.4053 49.7796 43.6446 49.7796 43.6446L48.9416 41.6364L47.7124 44.0736H47.7106Z" fill="#CE0000"/>
<path d="M45.939 81.6191C45.939 81.6191 41.9937 88.8005 45.939 88.7988C49.8843 88.7972 45.939 81.6191 45.939 81.6191Z" stroke="#FF9900" stroke-miterlimit="10"/>
<path d="M51.4298 77.9938C47.7189 79.0746 45.949 81.6224 45.949 81.6224C45.949 81.6224 44.1774 79.0746 40.4682 77.9938C36.7572 76.9129 33.5527 76.2958 33.5527 76.2958L45.949 51.085L58.3453 76.2958C58.3453 76.2958 55.1408 76.9129 51.4298 77.9938Z" stroke="#FF9900" stroke-miterlimit="10"/>
<path d="M45.9277 71.6609C45.9348 71.6514 45.9418 71.6419 45.9489 71.6308" stroke="#FF9900" stroke-miterlimit="10"/>
<path d="M45.9274 71.6622C43.3807 75.4708 39.2552 77.0153 33.5527 76.2942" stroke="#FF9900" stroke-miterlimit="10"/>
<path d="M45.9492 71.6325C48.4959 75.441 52.5997 77.0169 58.3023 76.2958" stroke="#FF9900" stroke-miterlimit="10"/>
<path d="M45.9492 71.6325V51.085" stroke="#FF9900" stroke-miterlimit="10"/>
<path d="M47.7085 70.2332L46.117 64.5073L44.2354 70.1623L44.1777 73.0781L45.8431 75.2546L45.8413 75.2711L45.8485 75.2628L45.8557 75.2711V75.2546L47.6237 73.149L47.7085 70.2332Z" fill="#FF0000"/>
<path d="M47.6255 73.149L45.8574 75.2711L47.894 76.9526L48.7952 75.4526L47.6255 73.149Z" fill="#CE0000"/>
<path d="M44.1916 73.0797L45.8551 75.2711L43.7392 76.8684L42.9102 75.3322L44.1916 73.0797Z" fill="#CE0000"/>
<path d="M43.7402 76.8684L45.7895 77.7199L47.8928 76.9526L45.8561 75.2711L43.7402 76.8684Z" fill="#700000"/>
<path d="M46.1191 64.5073L47.7106 70.2332L48.2819 68.098L46.1191 64.5073Z" fill="#FF8993"/>
<path d="M46.119 64.5073L44.25 70.1623L43.7832 68.0055L46.119 64.5073Z" fill="#FF8993"/>
<path d="M44.1923 73.0797L43.1523 72.5517L44.2481 70.1623L44.1923 73.0797Z" fill="#D97B89"/>
<path d="M43.1541 72.5517L41.9375 72.7794L42.6476 74.9477L43.1541 72.5517Z" fill="#D97B89"/>
<path d="M49.7772 70.6606L48.9409 72.6688L48.7949 75.4526L49.9015 72.6886L49.7772 70.6606Z" fill="#FF0000"/>
<path d="M46.1187 64.5073L46.1763 62.1641C46.1763 62.1641 44.4011 63.966 43.4873 65.9726C42.5735 67.9808 42.1878 69.5616 41.986 70.7893C41.7823 72.017 41.9373 72.7794 41.9373 72.7794L43.1539 72.5517L44.2497 70.1623L43.7829 68.0055L46.1187 64.5073Z" fill="#CE0000"/>
<path d="M43.1529 72.5517L42.6465 74.9477L42.9114 75.3321L44.1929 73.0797L43.1529 72.5517Z" fill="#FF0000"/>
<path d="M47.7097 70.2332L47.625 73.149L48.7947 75.4526L48.9407 72.6688L47.7097 70.2332Z" fill="#D97B89"/>
<path d="M47.7106 70.2331L48.2819 68.0978L46.1191 64.5088L46.1768 62.1656C46.1768 62.1656 47.853 64.4081 48.5108 65.824C49.1686 67.2398 49.4877 68.3767 49.6427 69.1391C49.7977 69.9015 49.7796 70.6622 49.7796 70.6622L48.9416 72.6704L47.7124 70.2331H47.7106Z" fill="#CE0000"/>
</g>
<defs>
<filter id="filter0_d_189_1605" x="0.179688" y="0.165024" width="91.8242" height="112.177" filterUnits="userSpaceOnUse" color-interpolation-filters="sRGB">
<feFlood flood-opacity="0" result="BackgroundImageFix"/>
<feColorMatrix in="SourceAlpha" type="matrix" values="0 0 0 0 0 0 0 0 0 0 0 0 0 0 0 0 0 0 127 0" result="hardAlpha"/>
<feOffset dx="1" dy="1"/>
<feGaussianBlur stdDeviation="5"/>
<feComposite in2="hardAlpha" operator="out"/>
<feColorMatrix type="matrix" values="0 0 0 0 1 0 0 0 0 1 0 0 0 0 1 0 0 0 0.5 0"/>
<feBlend mode="normal" in2="BackgroundImageFix" result="effect1_dropShadow_189_1605"/>
<feBlend mode="normal" in="SourceGraphic" in2="effect1_dropShadow_189_1605" result="shape"/>
</filter>
</defs>
</svg>
