<svg width="721" height="344" viewBox="0 0 721 344" fill="none" xmlns="http://www.w3.org/2000/svg">
<g filter="url(#filter0_d_14_7837)">
<path d="M133.699 101.16C133.779 101.72 133.819 102.28 133.819 102.84C133.819 108.92 129.979 114.88 122.299 120.72C121.899 120.88 120.539 121.92 118.219 123.84C116.299 125.44 114.819 126.04 113.779 125.64C112.419 125.16 109.219 123.56 104.179 120.84C98.8989 118.04 95.7789 116.16 94.8189 115.2L94.3389 129L75.3789 127.56L84.3789 121.56L84.7389 63.36L81.6189 14.52L80.7789 11.52L95.6589 12.48V19.44C101.019 13.28 106.779 9.8 112.939 9C120.779 9 125.939 10.2 128.419 12.6C131.939 16.04 133.699 23.56 133.699 35.16V101.16ZM121.219 38.88C121.379 38.08 121.459 37.24 121.459 36.36C121.459 33 120.659 29.68 119.059 26.4C115.379 23.52 113.059 22.08 112.099 22.08C111.779 22.08 111.619 22.2 111.619 22.44L96.0189 28.56L96.4989 103.2C102.659 106 108.419 107.4 113.779 107.4C114.819 107.4 115.699 107.36 116.419 107.28C117.059 104.72 117.619 100.76 118.099 95.4C119.459 82.52 120.499 63.68 121.219 38.88ZM234.942 103.08L201.822 112.44L204.222 100.92L170.502 57.96C174.502 54.52 177.542 51.68 179.622 49.44C182.262 46.4 183.582 42.48 183.582 37.68C183.582 34.64 182.982 32.56 181.782 31.44C180.662 30.64 178.862 30.24 176.382 30.24C174.062 30.24 171.342 30.64 168.222 31.44V116.52C171.182 119.72 174.782 121.92 179.022 123.12C183.182 124 186.222 124.44 188.142 124.44V129C176.542 128.2 166.702 126.68 158.622 124.44C155.022 123.32 147.782 121.56 136.902 119.16L138.102 114.48C140.822 114.96 142.822 114.32 144.102 112.56C147.302 107.04 148.902 101.96 148.902 97.32V34.68L143.502 34.08L144.102 30.12L166.422 9L168.222 21.48L187.182 11.04C193.662 17.52 197.862 23.88 199.782 30.12C200.982 34.52 201.582 37.52 201.582 39.12C201.582 41.6 200.582 43.44 198.582 44.64C198.102 44.96 196.782 46.44 194.622 49.08C192.462 51.72 190.102 53.88 187.542 55.56L218.022 97.92L234.942 103.08ZM310.348 9L307.108 13.44C307.108 43.92 307.108 57.96 307.108 55.56C306.628 77.16 305.988 91.04 305.188 97.2C304.228 105.04 302.148 110.88 298.948 114.72C291.028 124.24 283.868 129 277.468 129C267.948 129 260.268 125.32 254.428 117.96C252.748 115.8 251.268 113.64 249.988 111.48C246.868 106.36 244.908 101.76 244.108 97.68L242.548 38.52L239.428 23.76L234.988 18.96L263.068 15.6L254.908 24.72L256.348 46.32L265.588 107.52C266.548 113.68 269.308 116.68 273.868 116.52C275.708 116.12 277.428 115.4 279.028 114.36C282.868 111.8 285.548 107.92 287.068 102.72L290.428 18.96L279.988 9.35999L310.348 9ZM398.18 129L367.58 128.16L373.1 123.72L372.98 115.56L335.9 33.72L334.1 107.64L350.18 116.4H310.34L317.66 110.52L318.26 14.88L311.54 9H348.38L344.3 12.12L343.82 17.88L376.94 89.04L378.62 15.6L369.38 9L397.58 9.83999L392.66 13.8L391.46 123.6L398.18 129ZM478.39 97.8L448.75 118.2L449.59 102.96L425.47 74.4L421.75 119.76C423.99 121.92 426.71 125 429.91 129L398.95 128.88C396.71 129.52 399.15 126.48 406.27 119.76L411.79 35.64L399.07 41.88C412.03 25.48 420.31 14.52 423.91 9L427.27 56.64L461.95 11.04L478.39 35.64L461.95 37.56C448.83 53.64 440.91 62.76 438.19 64.92L461.95 92.28L478.39 97.8ZM555.787 115.8L511.147 129L512.587 121.92L485.587 127.2L494.707 121.08L495.067 74.88C489.947 73.76 486.467 72.36 484.627 70.68C480.467 66.92 478.387 63.68 478.387 60.96C478.387 60.16 478.627 59.44 479.107 58.8C481.267 56.72 486.307 55.8 494.227 56.04C492.307 56.52 490.667 57.36 489.307 58.56C487.787 60.08 487.027 61 487.027 61.32C487.027 61.8 487.667 62.32 488.947 62.88C489.907 63.28 491.947 63.72 495.067 64.2V61.92L491.947 12.12L491.107 9L512.467 9.47999L512.827 16.56C528.267 15.12 537.907 14.6 541.747 15L550.627 10.32L550.987 26.4L540.187 22.44L514.627 26.16L512.467 65.64C514.627 65.64 516.187 65.56 517.147 65.4C520.747 64.68 527.147 62.72 536.347 59.52C539.307 58.64 542.747 58.2 546.667 58.2C548.107 58.2 549.547 58.28 550.987 58.44C540.987 62.2 532.867 66.32 526.627 70.8C524.787 72.24 522.347 73.24 519.307 73.8C516.987 74.2 514.667 74.56 512.347 74.88L512.587 109.44L554.707 107.52L555.787 115.8ZM643.57 129L612.97 128.16L618.49 123.72L618.37 115.56L581.29 33.72L579.49 107.64L595.57 116.4H555.73L563.05 110.52L563.65 14.88L556.93 9H593.77L589.69 12.12L589.21 17.88L622.33 89.04L624.01 15.6L614.77 9L642.97 9.83999L638.05 13.8L636.85 123.6L643.57 129ZM219.349 303.24L217.589 310.92L196.149 329L148.309 304.68L107.829 223.72L77.2694 310.6L23.8294 189.96L9.10938 178.92L50.5494 169L42.8694 182.28L75.3494 263.24L97.7494 203.56L81.2694 182.44L128.629 176.52L117.269 197.16L146.389 257.32L170.069 194.28L156.309 170.6H199.669L187.829 192.2L160.309 270.92C179.189 304.52 189.696 321.32 191.829 321.32C192.576 321.107 193.429 320.68 194.389 320.04C196.629 318.44 199.189 315.667 202.069 311.72L187.509 304.04L219.349 303.24ZM251.582 239.08L248.542 276.52L241.022 264.52L239.262 300.84L233.342 293.16L230.942 329L222.142 267.72L227.422 272.2L221.022 230.76L226.942 234.6L222.782 172.84L221.662 169L249.822 169.48L250.302 178.44L251.582 239.08ZM374.891 316.36L254.891 329L344.331 184.2L283.211 181.64L261.451 214.76L263.691 169L372.811 174.12L289.771 308.68L359.691 298.6L370.571 252.84L374.891 316.36ZM497.131 329H459.531L464.971 323.4L447.531 258.76C446.464 259.08 444.224 260.52 440.811 263.08C436.331 265.96 431.797 267.4 427.211 267.4H424.811L418.251 307.24L425.611 314.76H385.611L392.971 307.24L399.531 269.8C398.357 269.053 396.491 268.04 393.931 266.76C389.557 264.84 384.651 262.173 379.211 258.76C376.117 254.6 374.571 251.187 374.571 248.52C374.571 247.773 374.677 247.08 374.891 246.44C375.531 244.947 376.917 243.613 379.051 242.44C381.291 241.267 383.211 240.733 384.811 240.84C385.771 240.84 388.224 241.053 392.171 241.48C390.677 242.227 388.597 243.453 385.931 245.16C384.757 245.907 384.171 247.08 384.171 248.68C384.171 251.987 385.611 254.12 388.491 255.08C389.664 255.4 394.944 256.04 404.331 257L414.891 177.16L408.011 169.8L431.531 169L461.931 170.6L456.971 175.56L472.811 238.44C473.984 238.44 475.637 238.013 477.771 237.16C480.117 236.413 483.424 236.413 487.691 237.16L482.731 240.84C482.304 240.52 481.771 240.36 481.131 240.36C480.171 240.36 479.104 240.733 477.931 241.48C476.757 242.12 474.677 243.987 471.691 247.08L490.251 322.28L497.131 329ZM447.531 247.08L436.651 175.08L436.331 175.4L426.411 255.56C426.624 255.773 426.997 255.88 427.531 255.88C429.131 255.88 431.477 254.973 434.571 253.16C436.704 251.987 441.024 249.96 447.531 247.08ZM627.798 294.44L583.638 306.92L586.838 291.56L541.878 234.28C547.211 229.693 551.265 225.907 554.038 222.92C557.558 218.867 559.318 213.64 559.318 207.24C559.318 203.187 558.518 200.413 556.918 198.92C555.425 197.853 553.025 197.32 549.718 197.32C546.625 197.32 542.998 197.853 538.838 198.92V312.36C542.785 316.627 547.585 319.56 553.238 321.16C558.785 322.333 562.838 322.92 565.398 322.92V329C549.931 327.933 536.811 325.907 526.038 322.92C521.238 321.427 511.585 319.08 497.078 315.88L498.678 309.64C502.305 310.28 504.971 309.427 506.678 307.08C510.945 299.72 513.078 292.947 513.078 286.76V203.24L505.878 202.44L506.678 197.16L536.438 169L538.838 185.64L564.118 171.72C572.758 180.36 578.358 188.84 580.918 197.16C582.518 203.027 583.318 207.027 583.318 209.16C583.318 212.467 581.985 214.92 579.318 216.52C578.678 216.947 576.918 218.92 574.038 222.44C571.158 225.96 568.011 228.84 564.598 231.08L605.238 287.56L627.798 294.44ZM705.619 291.88C705.726 292.627 705.779 293.373 705.779 294.12C705.779 302.227 700.659 310.173 690.419 317.96C689.886 318.173 688.073 319.56 684.979 322.12C682.419 324.253 680.446 325.053 679.059 324.52C677.246 323.88 672.979 321.747 666.259 318.12C659.219 314.387 655.059 311.88 653.779 310.6L653.139 329L627.859 327.08L639.859 319.08L640.339 241.48L636.179 176.36L635.059 172.36L654.899 173.64V182.92C662.046 174.707 669.726 170.067 677.939 169C688.393 169 695.273 170.6 698.579 173.8C703.273 178.387 705.619 188.413 705.619 203.88V291.88ZM688.979 208.84C689.193 207.773 689.299 206.653 689.299 205.48C689.299 201 688.233 196.573 686.099 192.2C681.193 188.36 678.099 186.44 676.819 186.44C676.393 186.44 676.179 186.6 676.179 186.92L655.379 195.08L656.019 294.6C664.233 298.333 671.913 300.2 679.059 300.2C680.446 300.2 681.619 300.147 682.579 300.04C683.433 296.627 684.179 291.347 684.819 284.2C686.633 267.027 688.019 241.907 688.979 208.84Z" fill="url(#paint0_angular_14_7837)"/>
</g>
<defs>
<filter id="filter0_d_14_7837" x="0.109375" y="0" width="720.67" height="344" filterUnits="userSpaceOnUse" color-interpolation-filters="sRGB">
<feFlood flood-opacity="0" result="BackgroundImageFix"/>
<feColorMatrix in="SourceAlpha" type="matrix" values="0 0 0 0 0 0 0 0 0 0 0 0 0 0 0 0 0 0 127 0" result="hardAlpha"/>
<feOffset dx="3" dy="3"/>
<feGaussianBlur stdDeviation="6"/>
<feComposite in2="hardAlpha" operator="out"/>
<feColorMatrix type="matrix" values="0 0 0 0 0.776471 0 0 0 0 0.364706 0 0 0 0 0 0 0 0 1 0"/>
<feBlend mode="normal" in2="BackgroundImageFix" result="effect1_dropShadow_14_7837"/>
<feBlend mode="normal" in="SourceGraphic" in2="effect1_dropShadow_14_7837" result="shape"/>
</filter>
<radialGradient id="paint0_angular_14_7837" cx="0" cy="0" r="1" gradientUnits="userSpaceOnUse" gradientTransform="translate(359.5 275.584) rotate(-90) scale(160.366 387.221)">
<stop offset="0.23317" stop-color="#DACB98"/>
<stop offset="0.753372" stop-color="#F2E7BE"/>
<stop offset="1" stop-color="white"/>
</radialGradient>
</defs>
</svg>
