<svg width="633" height="300" viewBox="0 0 633 300" fill="none" xmlns="http://www.w3.org/2000/svg">
<g filter="url(#filter0_d_12_4545)">
<path d="M82.4781 9.84H44.6781L52.4781 20.04V95.76L44.6781 105.96H82.4781C105.878 103.08 117.878 82.56 117.878 56.76C117.878 31.56 105.878 12.24 82.4781 9.84ZM73.2381 101.52V13.92L75.7581 13.2C87.6381 9.96 95.0781 32.88 95.0781 56.76C95.0781 80.16 89.5581 102.72 77.4381 102.72L73.2381 101.52ZM166.081 105.96H201.241L193.441 95.76V81.72C193.441 65.28 189.481 60.84 175.441 59.52L171.841 59.16C184.681 55.68 195.241 46.44 195.241 33.48C195.241 21.72 187.801 11.64 168.481 9.84H126.241L134.041 20.04V95.76L126.241 105.96H154.801V60.24L160.801 60.36C166.561 60.48 168.961 61.2 170.281 62.76C172.801 65.64 172.681 69.36 172.681 81.12V95.76L166.081 105.96ZM156.601 57.36H154.801V14.4L159.121 13.32C167.041 11.4 172.441 20.76 172.441 34.68C172.441 47.88 167.881 57.36 156.601 57.36ZM264.005 22.44V69.96C264.005 93 256.445 98.64 248.525 98.64C235.685 98.64 232.205 85.56 232.205 67.32V20.04L240.005 9.84H203.645L211.445 20.04V70.32C211.445 94.68 221.405 107.76 242.285 107.76C259.685 107.76 268.805 93.6 268.805 71.16V22.44L278.405 9.84H254.405L264.005 22.44ZM341.411 26.04V79.08L303.371 9.84H279.731L288.011 24.96V89.76L277.211 105.96H304.331L292.331 89.76V32.88L332.411 105.96H345.731V26.04L356.531 9.84H329.411L341.411 26.04ZM359.561 9.84L367.361 20.04V95.76L359.561 105.96H392.921L388.121 95.76V20.04L395.921 9.84H359.561ZM404.081 46.32L419.201 27.12L433.601 9.84H405.161L413.801 27.12L388.121 59.76L409.121 95.76L404.321 105.96H438.881L404.081 46.32ZM504.358 39.24V9.84H441.358L449.158 20.04V95.76L441.358 105.96H504.358V76.56L480.358 101.64H469.918V60H474.358L494.758 75.6V40.08L474.358 55.68H469.918V14.16H480.358L504.358 39.24ZM576.372 26.04V79.08L538.332 9.84H514.692L522.972 24.96V89.76L512.172 105.96H539.292L527.292 89.76V32.88L567.372 105.96H580.692V26.04L591.492 9.84H564.372L576.372 26.04ZM132.831 177.72L117.311 248.44L100.511 169.72L110.271 156.12H63.5513L72.9913 169.72L78.9113 196.12L66.9113 249.72L47.2313 169.72L56.8313 156.12H9.31125L18.9113 169.72L48.1913 284.28H65.1513L81.7913 209.24L98.2713 284.28H115.071L138.591 177.72L154.911 156.12H117.631L132.831 177.72ZM205.53 284.28L195.13 270.68V169.72L205.53 156.12H157.05L167.45 169.72V270.68L157.05 284.28H205.53ZM296.775 156.12H217.575V196.12L249.575 161.88H264.455L213.575 284.28H293.575V244.28L261.575 278.52H245.895L296.775 156.12ZM411.944 284.28L401.544 270.68L361.864 156.12H350.824L314.504 263.48L298.344 284.28H336.264L320.584 263.96L327.464 244.12H363.464L372.584 270.68L361.704 284.28H411.944ZM345.544 191.32L361.544 238.36H329.384L345.544 191.32ZM466.733 284.28H513.613L503.213 270.68V251.96C503.213 230.04 497.933 224.12 479.213 222.36L474.413 221.88C491.533 217.24 505.613 204.92 505.613 187.64C505.613 171.96 495.693 158.52 469.933 156.12H413.613L424.013 169.72V270.68L413.613 284.28H451.693V223.32L459.693 223.48C467.373 223.64 470.573 224.6 472.333 226.68C475.693 230.52 475.533 235.48 475.533 251.16V270.68L466.733 284.28ZM454.093 219.48H451.693V162.2L457.453 160.76C468.013 158.2 475.213 170.68 475.213 189.24C475.213 206.84 469.133 219.48 454.093 219.48ZM570.419 156.12H520.019L530.419 169.72V270.68L520.019 284.28H570.419C601.619 280.44 617.619 253.08 617.619 218.68C617.619 185.08 601.619 159.32 570.419 156.12ZM558.099 278.36V161.56L561.459 160.6C577.299 156.28 587.219 186.84 587.219 218.68C587.219 249.88 579.859 279.96 563.699 279.96L558.099 278.36Z" fill="url(#paint0_angular_12_4545)"/>
</g>
<defs>
<filter id="filter0_d_12_4545" x="0.311279" y="0.839996" width="632.307" height="298.44" filterUnits="userSpaceOnUse" color-interpolation-filters="sRGB">
<feFlood flood-opacity="0" result="BackgroundImageFix"/>
<feColorMatrix in="SourceAlpha" type="matrix" values="0 0 0 0 0 0 0 0 0 0 0 0 0 0 0 0 0 0 127 0" result="hardAlpha"/>
<feOffset dx="3" dy="3"/>
<feGaussianBlur stdDeviation="6"/>
<feComposite in2="hardAlpha" operator="out"/>
<feColorMatrix type="matrix" values="0 0 0 0 0.776471 0 0 0 0 0.364706 0 0 0 0 0 0 0 0 1 0"/>
<feBlend mode="normal" in2="BackgroundImageFix" result="effect1_dropShadow_12_4545"/>
<feBlend mode="normal" in="SourceGraphic" in2="effect1_dropShadow_12_4545" result="shape"/>
</filter>
<radialGradient id="paint0_angular_12_4545" cx="0" cy="0" r="1" gradientUnits="userSpaceOnUse" gradientTransform="translate(316 219) rotate(-90) scale(142 340.269)">
<stop offset="0.23317" stop-color="#DACB98"/>
<stop offset="0.753372" stop-color="#F2E7BE"/>
<stop offset="1" stop-color="white"/>
</radialGradient>
</defs>
</svg>
