<svg width="438" height="83" viewBox="0 0 438 83" fill="none" xmlns="http://www.w3.org/2000/svg">
<path d="M19.5941 11.8516L0 0H438L415.463 11.8516H19.5941Z" fill="#FBF4CE"/>
<path d="M438 0L415.463 11.8516V71.5766L438 83V0Z" fill="#FEEFA3"/>
<path d="M19.5943 71.5766L0.231445 83H438L415.463 71.5766H19.5943Z" fill="#3A3625"/>
<path d="M19.5941 11.8516L0 0L0.231269 83L19.5941 71.5766V11.8516Z" fill="#7B7450"/>
<path d="M428 6H10V77H428V6Z" fill="#FFD600"/>
<path d="M67.9932 11.8516L86.2315 15.644L103.864 12.7968L129.056 11.8516H67.9932Z" fill="#FBF4CE"/>
<path d="M67.9932 11.8516C67.9932 11.8516 85.3463 9.14333 98.5287 9.31308C111.711 9.48283 129.064 11.8516 129.064 11.8516H67.9932Z" fill="#3A3625"/>
<path d="M276.096 71.5766L284.158 78.6868L307.676 64.4664L276.096 71.5766Z" fill="#3A3625"/>
<path d="M307.676 64.4664L301.384 77.2902L284.158 78.6868L307.676 64.4664Z" fill="#FBF4CE"/>
<path d="M336.497 63.0467C336.497 63.0467 361.873 61.326 373.827 61.4379C385.781 61.5498 393.581 62.2404 393.581 62.2404L416.221 61.4379L419.379 63.6524L415.017 62.5413L391.651 63.0467H336.497Z" fill="#3A3625"/>
<path d="M56.1025 71.5766L98.5205 74.3929L138.538 71.5766H56.1025Z" fill="#FBF4CE"/>
<path d="M56.1025 71.5766L82.3077 68.7333L113.76 70.1569H129.056L138.538 71.5766H56.1025Z" fill="#3A3625"/>
<path d="M416.444 23.6994L408.031 22.7697L380.789 28.1515L398.126 27.1716L429.18 27.0211L416.444 23.6994Z" fill="#3A3625"/>
<path d="M380.789 28.1515L415.463 31.0874L429.18 27.0211L415.463 27.1716H398.126L380.789 28.1515Z" fill="#FBF4CE"/>
<path d="M374.999 57.3446L385.087 56.3531L392.568 56.8508L411.077 56.0252L435.057 57.3446H374.999Z" fill="#3A3625"/>
<path d="M19.5938 28.1515C19.5938 28.1515 26.4522 30.3389 36.2532 30.3389H61.6689L19.6018 31.8204L9.80078 34.0233L19.6018 28.1515H19.5938Z" fill="#3A3625"/>
<g filter="url(#filter0_i_17_8627)">
<path d="M150.857 31.368L152.417 33.408V48.552L150.857 50.592H157.529L156.569 48.552V33.408L158.129 31.368H150.857ZM159.761 38.664L162.785 34.824L165.665 31.368H159.977L161.705 34.824L156.569 41.352L160.769 48.552L159.809 50.592H166.721L159.761 38.664ZM178.112 48.672V41.784C178.112 38.136 176.576 36.288 173.216 36.696L167.336 37.416L171.392 42.36C171.248 40.368 171.752 37.368 172.976 37.272C173.84 37.2 174.272 38.496 174.272 41.016V42.6L168.728 43.896C167.768 44.424 167.408 45.744 167.408 47.04C167.408 49.344 168.584 50.904 171.344 50.952L174.44 49.56V50.592H179.672L178.112 48.672ZM171.416 46.872C171.416 45.312 171.608 44.016 172.304 43.632L174.272 43.68V48.48C173.648 48.984 172.784 49.584 172.544 49.68C171.704 49.608 171.416 48.336 171.416 46.872ZM189.123 41.352L190.803 39.648L193.491 36.984H187.899L189.627 39.648L185.643 43.632V30.36L180.123 31.584L181.803 33.648V48.672L180.243 50.592H186.483L185.643 48.672V43.848H186.171L188.691 48.528L187.779 50.592H194.235L189.123 41.352ZM205.487 48.672V41.784C205.487 38.136 203.951 36.288 200.591 36.696L194.711 37.416L198.767 42.36C198.623 40.368 199.127 37.368 200.351 37.272C201.215 37.2 201.647 38.496 201.647 41.016V42.6L196.103 43.896C195.143 44.424 194.783 45.744 194.783 47.04C194.783 49.344 195.959 50.904 198.719 50.952L201.815 49.56V50.592H207.047L205.487 48.672ZM198.791 46.872C198.791 45.312 198.983 44.016 199.679 43.632L201.647 43.68V48.48C201.023 48.984 200.159 49.584 199.919 49.68C199.079 49.608 198.791 48.336 198.791 46.872ZM213.623 50.952C216.599 50.952 219.575 48.288 219.575 43.776C219.575 39.264 216.599 36.624 213.623 36.624C210.647 36.624 207.671 39.264 207.671 43.776C207.671 48.288 210.647 50.952 213.623 50.952ZM213.623 50.376C212.375 50.376 211.799 47.664 211.799 43.776C211.799 39.888 212.375 37.2 213.623 37.2C214.871 37.2 215.447 39.888 215.447 43.776C215.447 47.664 214.871 50.376 213.623 50.376ZM232.366 49.728V33.408L234.166 31.368H226.654L228.214 33.408V48.552L226.654 50.592H238.774V44.232L233.734 49.728H232.366ZM246.014 50.952C248.99 50.952 251.966 48.288 251.966 43.776C251.966 39.264 248.99 36.624 246.014 36.624C243.038 36.624 240.062 39.264 240.062 43.776C240.062 48.288 243.038 50.952 246.014 50.952ZM246.014 50.376C244.766 50.376 244.19 47.664 244.19 43.776C244.19 39.888 244.766 37.2 246.014 37.2C247.262 37.2 247.838 39.888 247.838 43.776C247.838 47.664 247.262 50.376 246.014 50.376ZM262.825 48.696C261.529 48.576 259.777 48.48 258.481 48.384C257.545 48.312 257.281 47.952 257.281 47.592C257.281 47.112 257.713 46.752 258.553 46.704C259.009 46.8 259.465 46.848 259.921 46.848C263.113 46.848 265.777 44.544 265.777 41.736C265.777 40.056 264.817 38.568 263.377 37.632L266.233 37.224V34.176L262.777 37.272C261.937 36.864 260.953 36.624 259.921 36.624C256.729 36.624 254.065 38.928 254.065 41.736C254.065 43.872 255.601 45.72 257.737 46.464C255.865 46.896 254.161 47.88 254.161 49.56C254.137 50.856 255.001 51.744 256.129 52.056C254.713 52.392 253.825 53.232 253.801 54.288C253.753 56.088 255.793 57.36 259.945 57.36C263.881 57.36 266.449 55.728 266.521 52.56C266.569 50.256 264.985 48.888 262.825 48.696ZM259.921 37.2C261.097 37.2 261.769 39.168 261.769 41.736C261.769 44.304 261.097 46.272 259.921 46.272C258.745 46.272 258.073 44.304 258.073 41.736C258.073 39.168 258.745 37.2 259.921 37.2ZM259.945 56.712C256.585 56.712 256.105 55.488 256.105 54.24C256.105 53.088 256.993 52.464 258.265 52.248C259.777 52.344 261.145 52.416 262.441 52.536C263.809 52.68 264.241 53.232 264.241 54.192C264.241 56.088 262.417 56.712 259.945 56.712ZM270.839 34.944C272.087 34.944 273.167 33.864 273.167 32.592C273.167 31.32 272.111 30.24 270.839 30.24C269.591 30.24 268.511 31.32 268.511 32.592C268.511 33.864 269.591 34.944 270.839 34.944ZM268.991 48.672L267.431 50.592H274.391L272.831 48.672V36.384L267.311 37.608L268.991 39.672V48.672ZM288.825 50.592L287.265 48.672V41.928C287.265 38.736 285.753 36.624 283.281 36.624C282.609 36.624 281.193 37.704 280.377 38.352V36.384L274.905 37.608L276.585 39.672V48.672L275.025 50.592H281.553L280.425 48.672V39.936C280.761 39.384 281.769 37.824 282.105 37.824C282.489 37.824 283.089 38.664 283.281 39.936C283.425 40.896 283.425 41.928 283.425 42.84V48.672L282.297 50.592H288.825Z" fill="white"/>
</g>
<defs>
<filter id="filter0_i_17_8627" x="150.856" y="30.24" width="139.969" height="29.12" filterUnits="userSpaceOnUse" color-interpolation-filters="sRGB">
<feFlood flood-opacity="0" result="BackgroundImageFix"/>
<feBlend mode="normal" in="SourceGraphic" in2="BackgroundImageFix" result="shape"/>
<feColorMatrix in="SourceAlpha" type="matrix" values="0 0 0 0 0 0 0 0 0 0 0 0 0 0 0 0 0 0 127 0" result="hardAlpha"/>
<feOffset dx="2" dy="2"/>
<feGaussianBlur stdDeviation="1.5"/>
<feComposite in2="hardAlpha" operator="arithmetic" k2="-1" k3="1"/>
<feColorMatrix type="matrix" values="0 0 0 0 0 0 0 0 0 0 0 0 0 0 0 0 0 0 0.25 0"/>
<feBlend mode="normal" in2="shape" result="effect1_innerShadow_17_8627"/>
</filter>
</defs>
</svg>
