<svg width="211" height="83" viewBox="0 0 211 83" fill="none" xmlns="http://www.w3.org/2000/svg">
<path d="M200.14 11.8516H9.43945V71.5804H200.14V11.8516Z" fill="#787070"/>
<path d="M9.43916 11.8516L0 0H211L200.143 11.8516H9.43916Z" fill="#B9B5B5"/>
<path d="M211 0L200.144 11.8516V71.5766L211 83V0Z" fill="#8D8C8C"/>
<path d="M9.43908 71.5766L0.111328 83H211L200.143 71.5766H9.43908Z" fill="#212121"/>
<path d="M32.7549 11.8516L41.5409 15.644L50.035 12.7968L62.1711 11.8516H32.7549Z" fill="#B9B5B5"/>
<path d="M32.7549 11.8516C32.7549 11.8516 41.1145 9.14336 47.4649 9.31311C53.8153 9.48286 62.1749 11.8516 62.1749 11.8516H32.7549Z" fill="#212121"/>
<path d="M133.005 71.5766L136.889 78.6868L148.218 64.4664L133.005 71.5766Z" fill="#212121"/>
<path d="M148.218 64.4664L145.187 77.2902L136.889 78.6868L148.218 64.4664Z" fill="#B9B5B5"/>
<path d="M162.103 63.0467C162.103 63.0467 174.327 61.326 180.086 61.4379C185.845 61.5498 189.602 62.2404 189.602 62.2404L200.508 61.4379L202.03 63.6524L199.928 62.5413L188.672 63.0467H162.103Z" fill="#212121"/>
<path d="M27.0264 71.5766L47.4606 74.3929L66.7385 71.5766H27.0264Z" fill="#B9B5B5"/>
<path d="M27.0264 71.5766L39.6503 68.7333L54.8022 70.1569H62.1706L66.7385 71.5766H27.0264Z" fill="#212121"/>
<path d="M200.616 23.6994L196.563 22.7697L183.439 28.1515L191.791 27.1716L206.751 27.0211L200.616 23.6994Z" fill="#212121"/>
<path d="M183.439 28.1515L200.143 31.0874L206.751 27.0211L200.143 27.1716H191.791L183.439 28.1515Z" fill="#B9B5B5"/>
<path d="M180.65 57.3446L185.51 56.3531L189.114 56.8508L198.03 56.0252L209.583 57.3446H180.65Z" fill="#212121"/>
<path d="M9.43916 11.8516L0 0L0.111411 83L9.43916 71.5766V11.8516Z" fill="#454545"/>
<path d="M9.43934 28.1515C9.43934 28.1515 12.7432 30.3389 17.4647 30.3389H29.7084L9.44318 31.8204L4.72168 34.0233L9.44318 28.1515H9.43934Z" fill="#212121"/>
<g filter="url(#filter0_i_17_8562)">
<path d="M66.0122 50.592H73.0442L71.4842 48.552V45.744C71.4842 42.456 70.6922 41.568 67.8842 41.304L67.1642 41.232C69.7322 40.536 71.8442 38.688 71.8442 36.096C71.8442 33.744 70.3562 31.728 66.4922 31.368H58.0442L59.6042 33.408V48.552L58.0442 50.592H63.7562V41.448L64.9562 41.472C66.1082 41.496 66.5882 41.64 66.8522 41.952C67.3562 42.528 67.3322 43.272 67.3322 45.624V48.552L66.0122 50.592ZM64.1162 40.872H63.7562V32.28L64.6202 32.064C66.2042 31.68 67.2842 33.552 67.2842 36.336C67.2842 38.976 66.3722 40.872 64.1162 40.872ZM83.992 45.096C84.184 47.328 82.984 49.512 81.064 49.512C79.192 49.512 78.304 47.64 78.232 43.2L85.312 42.816C85.24 39.144 83.2 36.6 79.984 36.6C76.744 36.6 74.104 39.336 74.104 43.608C74.104 49.272 77.56 51 79.888 51C83.2 51 85.216 48.384 84.928 45.096C84.808 44.064 83.776 44.424 83.992 45.096ZM80.008 37.176C81.064 37.176 81.424 39 81.472 41.52L78.232 42.576C78.256 39.528 78.808 37.176 80.008 37.176ZM95.95 48.696C94.654 48.576 92.902 48.48 91.606 48.384C90.67 48.312 90.406 47.952 90.406 47.592C90.406 47.112 90.838 46.752 91.678 46.704C92.134 46.8 92.59 46.848 93.046 46.848C96.238 46.848 98.902 44.544 98.902 41.736C98.902 40.056 97.942 38.568 96.502 37.632L99.358 37.224V34.176L95.902 37.272C95.062 36.864 94.078 36.624 93.046 36.624C89.854 36.624 87.19 38.928 87.19 41.736C87.19 43.872 88.726 45.72 90.862 46.464C88.99 46.896 87.286 47.88 87.286 49.56C87.262 50.856 88.126 51.744 89.254 52.056C87.838 52.392 86.95 53.232 86.926 54.288C86.878 56.088 88.918 57.36 93.07 57.36C97.006 57.36 99.574 55.728 99.646 52.56C99.694 50.256 98.11 48.888 95.95 48.696ZM93.046 37.2C94.222 37.2 94.894 39.168 94.894 41.736C94.894 44.304 94.222 46.272 93.046 46.272C91.87 46.272 91.198 44.304 91.198 41.736C91.198 39.168 91.87 37.2 93.046 37.2ZM93.07 56.712C89.71 56.712 89.23 55.488 89.23 54.24C89.23 53.088 90.118 52.464 91.39 52.248C92.902 52.344 94.27 52.416 95.566 52.536C96.934 52.68 97.366 53.232 97.366 54.192C97.366 56.088 95.542 56.712 93.07 56.712ZM103.964 34.944C105.212 34.944 106.292 33.864 106.292 32.592C106.292 31.32 105.236 30.24 103.964 30.24C102.716 30.24 101.636 31.32 101.636 32.592C101.636 33.864 102.716 34.944 103.964 34.944ZM102.116 48.672L100.556 50.592H107.516L105.956 48.672V36.384L100.436 37.608L102.116 39.672V48.672ZM112.878 50.952C116.502 51.36 118.83 49.608 118.83 47.064C118.83 44.928 117.582 44.016 115.398 42.288C113.766 41.016 112.83 40.248 112.83 39C112.83 38.088 113.31 37.2 114.318 37.2C115.902 37.2 116.31 39.768 116.142 41.544L119.502 38.016L115.326 36.84C111.99 35.904 108.942 37.68 108.942 40.344C108.942 42.432 110.406 43.416 112.326 44.952C113.766 46.08 114.918 47.112 114.918 48.648C114.918 49.488 114.534 50.424 113.526 50.424C111.966 50.424 111.126 48.072 111.27 45.912L108.03 50.4L112.878 50.952ZM129.286 46.344C129.214 45.216 128.134 45.576 128.35 46.248C128.494 48.552 127.654 49.44 126.934 49.464C125.902 49.488 125.518 48.432 125.518 45.144V37.776H129.19V36.984H125.518V32.856L120.118 37.776H121.678V45.384C121.678 48.96 123.118 50.952 125.71 50.952C128.326 50.952 129.478 48.936 129.286 46.344ZM140.219 45.096C140.411 47.328 139.211 49.512 137.291 49.512C135.419 49.512 134.531 47.64 134.459 43.2L141.539 42.816C141.467 39.144 139.427 36.6 136.211 36.6C132.971 36.6 130.331 39.336 130.331 43.608C130.331 49.272 133.787 51 136.115 51C139.427 51 141.443 48.384 141.155 45.096C141.035 44.064 140.003 44.424 140.219 45.096ZM136.235 37.176C137.291 37.176 137.651 39 137.699 41.52L134.459 42.576C134.483 39.528 135.035 37.176 136.235 37.176ZM153.665 37.488C152.513 37.056 151.217 36.576 150.593 36.576C150.521 36.576 150.401 36.576 150.017 36.96C149.489 37.488 148.721 38.328 148.121 39.024V36.384L142.601 37.608L144.281 39.672V48.672L142.721 50.592H149.801L148.121 48.672V41.352C148.289 40.536 149.153 38.304 149.681 38.28C150.449 38.256 151.049 40.224 151.025 42.12L153.665 37.488Z" fill="white"/>
</g>
<defs>
<filter id="filter0_i_17_8562" x="58.0439" y="30.24" width="97.6201" height="29.12" filterUnits="userSpaceOnUse" color-interpolation-filters="sRGB">
<feFlood flood-opacity="0" result="BackgroundImageFix"/>
<feBlend mode="normal" in="SourceGraphic" in2="BackgroundImageFix" result="shape"/>
<feColorMatrix in="SourceAlpha" type="matrix" values="0 0 0 0 0 0 0 0 0 0 0 0 0 0 0 0 0 0 127 0" result="hardAlpha"/>
<feOffset dx="2" dy="2"/>
<feGaussianBlur stdDeviation="1.5"/>
<feComposite in2="hardAlpha" operator="arithmetic" k2="-1" k3="1"/>
<feColorMatrix type="matrix" values="0 0 0 0 0 0 0 0 0 0 0 0 0 0 0 0 0 0 0.25 0"/>
<feBlend mode="normal" in2="shape" result="effect1_innerShadow_17_8562"/>
</filter>
</defs>
</svg>
