<svg width="211" height="83" viewBox="0 0 211 83" fill="none" xmlns="http://www.w3.org/2000/svg">
<path d="M200.14 11.8516H9.43945V71.5804H200.14V11.8516Z" fill="#787070"/>
<path d="M9.43916 11.8516L0 0H211L200.143 11.8516H9.43916Z" fill="#B9B5B5"/>
<path d="M211 0L200.144 11.8516V71.5766L211 83V0Z" fill="#8D8C8C"/>
<path d="M9.43908 71.5766L0.111328 83H211L200.143 71.5766H9.43908Z" fill="#212121"/>
<path d="M32.7549 11.8516L41.5409 15.644L50.035 12.7968L62.1711 11.8516H32.7549Z" fill="#B9B5B5"/>
<path d="M32.7549 11.8516C32.7549 11.8516 41.1145 9.14333 47.4649 9.31308C53.8153 9.48283 62.1749 11.8516 62.1749 11.8516H32.7549Z" fill="#212121"/>
<path d="M133.005 71.5766L136.889 78.6868L148.218 64.4664L133.005 71.5766Z" fill="#212121"/>
<path d="M148.218 64.4664L145.187 77.2902L136.889 78.6868L148.218 64.4664Z" fill="#B9B5B5"/>
<path d="M162.103 63.0467C162.103 63.0467 174.327 61.326 180.086 61.4379C185.845 61.5498 189.602 62.2404 189.602 62.2404L200.508 61.4379L202.03 63.6524L199.928 62.5413L188.672 63.0467H162.103Z" fill="#212121"/>
<path d="M27.0264 71.5766L47.4606 74.3929L66.7385 71.5766H27.0264Z" fill="#B9B5B5"/>
<path d="M27.0264 71.5766L39.6503 68.7333L54.8022 70.1569H62.1706L66.7385 71.5766H27.0264Z" fill="#212121"/>
<path d="M200.616 23.6994L196.563 22.7697L183.439 28.1515L191.791 27.1716L206.751 27.0211L200.616 23.6994Z" fill="#212121"/>
<path d="M183.439 28.1515L200.143 31.0874L206.751 27.0211L200.143 27.1716H191.791L183.439 28.1515Z" fill="#B9B5B5"/>
<path d="M180.65 57.3446L185.51 56.3531L189.114 56.8508L198.03 56.0252L209.583 57.3446H180.65Z" fill="#212121"/>
<path d="M9.43916 11.8516L0 0L0.111411 83L9.43916 71.5766V11.8516Z" fill="#454545"/>
<path d="M9.43934 28.1515C9.43934 28.1515 12.7432 30.3389 17.4647 30.3389H29.7084L9.44318 31.8204L4.72168 34.0233L9.44318 28.1515H9.43934Z" fill="#212121"/>
<g filter="url(#filter0_i_45_4317)">
<path d="M75.5048 30.96C72.0488 30.96 68.3288 33.96 68.3288 40.656C68.3288 48.624 72.2888 50.952 75.2648 50.952C76.6568 50.952 77.8568 50.376 78.7928 49.464C80.5688 47.784 81.1928 44.952 80.9528 42.312C80.8568 41.256 79.6568 41.496 79.9448 42.36C80.1608 45.888 78.9368 48.984 76.4168 48.984C73.9688 48.984 72.7688 45.36 72.8888 39.408C72.9848 34.152 74.7608 31.536 76.0088 31.656C77.4248 31.8 77.8568 36.384 77.4008 39.696L82.3688 33.696L79.1048 32.184C77.8088 31.584 76.7048 30.96 75.5048 30.96ZM93.7527 48.672V41.784C93.7527 38.136 92.2167 36.288 88.8567 36.696L82.9767 37.416L87.0327 42.36C86.8887 40.368 87.3927 37.368 88.6167 37.272C89.4807 37.2 89.9127 38.496 89.9127 41.016V42.6L84.3687 43.896C83.4087 44.424 83.0487 45.744 83.0487 47.04C83.0487 49.344 84.2247 50.904 86.9847 50.952L90.0807 49.56V50.592H95.3127L93.7527 48.672ZM87.0567 46.872C87.0567 45.312 87.2487 44.016 87.9447 43.632L89.9127 43.68V48.48C89.2887 48.984 88.4247 49.584 88.1847 49.68C87.3447 49.608 87.0567 48.336 87.0567 46.872ZM109.731 50.592L108.171 48.672V41.928C108.171 38.736 106.659 36.624 104.187 36.624C103.515 36.624 102.099 37.704 101.283 38.352V36.384L95.8115 37.608L97.4915 39.672V48.672L95.9315 50.592H102.459L101.331 48.672V39.936C101.667 39.384 102.675 37.824 103.011 37.824C103.395 37.824 103.995 38.664 104.187 39.936C104.331 40.896 104.331 41.928 104.331 42.84V48.672L103.203 50.592H109.731ZM120.259 44.616C120.475 47.304 119.299 49.464 117.403 49.464C115.723 49.464 114.835 47.496 114.835 42.888C114.835 39.144 115.627 37.104 116.803 37.2C117.931 37.296 118.219 40.824 117.907 43.032L122.395 38.52L119.563 37.44C118.507 37.032 117.571 36.6 116.683 36.6C113.611 36.6 110.659 39.024 110.659 43.632C110.659 49.488 114.235 51 116.371 51C119.515 51 121.531 48.288 121.195 44.616C121.075 43.584 120.043 43.944 120.259 44.616ZM133.273 45.096C133.465 47.328 132.265 49.512 130.345 49.512C128.473 49.512 127.585 47.64 127.513 43.2L134.593 42.816C134.521 39.144 132.481 36.6 129.265 36.6C126.025 36.6 123.385 39.336 123.385 43.608C123.385 49.272 126.841 51 129.169 51C132.481 51 134.497 48.384 134.209 45.096C134.089 44.064 133.057 44.424 133.273 45.096ZM129.289 37.176C130.345 37.176 130.705 39 130.753 41.52L127.513 42.576C127.537 39.528 128.089 37.176 129.289 37.176ZM137.035 33.648V48.672L135.475 50.592H142.435L140.875 48.672V30.36L135.355 31.584L137.035 33.648Z" fill="white"/>
</g>
<defs>
<filter id="filter0_i_45_4317" x="68.3291" y="30.36" width="76.1055" height="22.64" filterUnits="userSpaceOnUse" color-interpolation-filters="sRGB">
<feFlood flood-opacity="0" result="BackgroundImageFix"/>
<feBlend mode="normal" in="SourceGraphic" in2="BackgroundImageFix" result="shape"/>
<feColorMatrix in="SourceAlpha" type="matrix" values="0 0 0 0 0 0 0 0 0 0 0 0 0 0 0 0 0 0 127 0" result="hardAlpha"/>
<feOffset dx="2" dy="2"/>
<feGaussianBlur stdDeviation="1.5"/>
<feComposite in2="hardAlpha" operator="arithmetic" k2="-1" k3="1"/>
<feColorMatrix type="matrix" values="0 0 0 0 0 0 0 0 0 0 0 0 0 0 0 0 0 0 0.25 0"/>
<feBlend mode="normal" in2="shape" result="effect1_innerShadow_45_4317"/>
</filter>
</defs>
</svg>
