<svg width="211" height="83" viewBox="0 0 211 83" fill="none" xmlns="http://www.w3.org/2000/svg">
<path d="M200.14 11.8517H9.43945V71.5805H200.14V11.8517Z" fill="#5B2E2E"/>
<path d="M9.43916 11.8516L0 0H211L200.143 11.8516H9.43916Z" fill="#89504E"/>
<path d="M210.999 0L200.143 11.8516V71.5766L210.999 83V0Z" fill="#9A736F"/>
<path d="M9.43908 71.5767L0.111328 83.0001H211L200.143 71.5767H9.43908Z" fill="#391E1E"/>
<path d="M32.7539 11.8517L41.54 15.6441L50.0341 12.7969L62.1701 11.8517H32.7539Z" fill="#89504E"/>
<path d="M32.7539 11.8516C32.7539 11.8516 41.1135 9.14333 47.4639 9.31308C53.8143 9.48283 62.174 11.8516 62.174 11.8516H32.7539Z" fill="#391E1E"/>
<path d="M133.006 71.5766L136.89 78.6868L148.219 64.4664L133.006 71.5766Z" fill="#391E1E"/>
<path d="M148.218 64.4664L145.187 77.2903L136.889 78.6868L148.218 64.4664Z" fill="#89504E"/>
<path d="M162.102 63.0466C162.102 63.0466 174.326 61.326 180.085 61.4378C185.844 61.5497 189.601 62.2403 189.601 62.2403L200.507 61.4378L202.029 63.6523L199.927 62.5412L188.671 63.0466H162.102Z" fill="#391E1E"/>
<path d="M27.0273 71.5767L47.4616 74.393L66.7394 71.5767H27.0273Z" fill="#89504E"/>
<path d="M27.0273 71.5766L39.6513 68.7333L54.8031 70.1569H62.1716L66.7394 71.5766H27.0273Z" fill="#391E1E"/>
<path d="M200.616 23.6994L196.563 22.7697L183.439 28.1515L191.791 27.1716L206.751 27.0211L200.616 23.6994Z" fill="#391E1E"/>
<path d="M183.439 28.1515L200.143 31.0874L206.751 27.0211L200.143 27.1716H191.791L183.439 28.1515Z" fill="#89504E"/>
<path d="M180.65 57.3446L185.51 56.3531L189.114 56.8507L198.03 56.0251L209.583 57.3446H180.65Z" fill="#391E1E"/>
<path d="M9.43916 11.8516L0 0L0.111411 83L9.43916 71.5766V11.8516Z" fill="#441F1F"/>
<path d="M9.43836 28.1515C9.43836 28.1515 12.7423 30.3389 17.4638 30.3389H29.7074L9.4422 31.8204L4.7207 34.0233L9.4422 28.1515H9.43836Z" fill="#391E1E"/>
<g filter="url(#filter0_i_103_15)">
<path d="M85.7957 50.928C90.1157 51.408 92.8997 49.248 92.9717 46.056C93.0197 43.512 91.6277 42.072 88.8437 39.216C86.6357 36.96 85.4837 36 85.4837 34.128C85.4597 32.76 86.1077 31.536 87.5237 31.68C89.3237 31.872 89.8997 34.848 89.4917 37.728L93.8117 32.904L88.7237 31.344C84.8597 30.168 81.3077 32.208 81.3077 35.496C81.3077 38.208 82.9397 39.552 85.8437 42.648C87.7397 44.64 88.7957 45.744 88.7957 47.784C88.8197 49.296 88.2677 50.352 87.0917 50.4C85.1717 50.472 84.1157 47.76 84.6917 44.184L80.1797 50.304L85.7957 50.928ZM103.346 41.352L105.026 39.648L107.714 36.984H102.122L103.85 39.648L99.8655 43.632V30.36L94.3455 31.584L96.0255 33.648V48.672L94.4655 50.592H100.706L99.8655 48.672V43.848H100.394L102.914 48.528L102.002 50.592H108.458L103.346 41.352ZM112.078 34.944C113.326 34.944 114.406 33.864 114.406 32.592C114.406 31.32 113.35 30.24 112.078 30.24C110.83 30.24 109.75 31.32 109.75 32.592C109.75 33.864 110.83 34.944 112.078 34.944ZM110.23 48.672L108.67 50.592H115.63L114.07 48.672V36.384L108.55 37.608L110.23 39.672V48.672ZM123.968 36.624C123.392 36.624 122.312 37.392 121.496 38.016V36.384L116.024 37.608L117.704 39.672V55.2L116.144 57.12H123.104L121.544 55.2V50.352C122.288 50.616 122.96 50.832 123.464 50.952C126.128 50.952 129.008 48.024 129.008 43.44C129.008 39.864 127.016 36.624 123.968 36.624ZM123.608 49.224C123.368 49.584 122.96 50.136 122.696 50.136C122.408 50.064 121.976 49.656 121.544 49.176V39.24C121.976 38.568 122.552 37.824 122.792 37.824C123.248 37.824 124.064 38.904 124.472 40.032C124.808 40.992 125 42.288 125 43.656C125 46.08 124.52 47.856 123.608 49.224Z" fill="white"/>
</g>
<defs>
<filter id="filter0_i_103_15" x="80.1797" y="30.168" width="50.8281" height="28.952" filterUnits="userSpaceOnUse" color-interpolation-filters="sRGB">
<feFlood flood-opacity="0" result="BackgroundImageFix"/>
<feBlend mode="normal" in="SourceGraphic" in2="BackgroundImageFix" result="shape"/>
<feColorMatrix in="SourceAlpha" type="matrix" values="0 0 0 0 0 0 0 0 0 0 0 0 0 0 0 0 0 0 127 0" result="hardAlpha"/>
<feOffset dx="2" dy="2"/>
<feGaussianBlur stdDeviation="1.5"/>
<feComposite in2="hardAlpha" operator="arithmetic" k2="-1" k3="1"/>
<feColorMatrix type="matrix" values="0 0 0 0 0 0 0 0 0 0 0 0 0 0 0 0 0 0 0.25 0"/>
<feBlend mode="normal" in2="shape" result="effect1_innerShadow_103_15"/>
</filter>
</defs>
</svg>
