<svg width="211" height="83" viewBox="0 0 211 83" fill="none" xmlns="http://www.w3.org/2000/svg">
<path d="M200.14 11.8516H9.43945V71.5804H200.14V11.8516Z" fill="#5B2E2E"/>
<path d="M9.43916 11.8516L0 0H211L200.143 11.8516H9.43916Z" fill="#89504E"/>
<path d="M210.999 0L200.143 11.8516V71.5766L210.999 83V0Z" fill="#9A736F"/>
<path d="M9.43908 71.5766L0.111328 83H211L200.143 71.5766H9.43908Z" fill="#391E1E"/>
<path d="M32.7539 11.8516L41.54 15.644L50.0341 12.7968L62.1701 11.8516H32.7539Z" fill="#89504E"/>
<path d="M32.7539 11.8516C32.7539 11.8516 41.1135 9.14333 47.4639 9.31308C53.8143 9.48283 62.174 11.8516 62.174 11.8516H32.7539Z" fill="#391E1E"/>
<path d="M133.006 71.5766L136.89 78.6868L148.219 64.4664L133.006 71.5766Z" fill="#391E1E"/>
<path d="M148.218 64.4664L145.187 77.2902L136.889 78.6868L148.218 64.4664Z" fill="#89504E"/>
<path d="M162.102 63.0467C162.102 63.0467 174.326 61.326 180.085 61.4379C185.844 61.5498 189.601 62.2404 189.601 62.2404L200.507 61.4379L202.029 63.6524L199.927 62.5413L188.671 63.0467H162.102Z" fill="#391E1E"/>
<path d="M27.0273 71.5766L47.4616 74.3929L66.7394 71.5766H27.0273Z" fill="#89504E"/>
<path d="M27.0273 71.5766L39.6513 68.7333L54.8031 70.1569H62.1716L66.7394 71.5766H27.0273Z" fill="#391E1E"/>
<path d="M200.616 23.6994L196.563 22.7697L183.439 28.1515L191.791 27.1716L206.751 27.0211L200.616 23.6994Z" fill="#391E1E"/>
<path d="M183.439 28.1515L200.143 31.0874L206.751 27.0211L200.143 27.1716H191.791L183.439 28.1515Z" fill="#89504E"/>
<path d="M180.65 57.3446L185.51 56.3531L189.114 56.8508L198.03 56.0252L209.583 57.3446H180.65Z" fill="#391E1E"/>
<path d="M9.43916 11.8516L0 0L0.111411 83L9.43916 71.5766V11.8516Z" fill="#441F1F"/>
<path d="M9.43836 28.1515C9.43836 28.1515 12.7423 30.3389 17.4638 30.3389H29.7074L9.4422 31.8204L4.7207 34.0233L9.4422 28.1515H9.43836Z" fill="#391E1E"/>
<g filter="url(#filter0_i_276_29)">
<path d="M115.003 53.216L94.4833 41.384L115.003 29.576V53.216Z" fill="white"/>
</g>
<defs>
<filter id="filter0_i_276_29" x="94.4824" y="29.576" width="22.5215" height="25.64" filterUnits="userSpaceOnUse" color-interpolation-filters="sRGB">
<feFlood flood-opacity="0" result="BackgroundImageFix"/>
<feBlend mode="normal" in="SourceGraphic" in2="BackgroundImageFix" result="shape"/>
<feColorMatrix in="SourceAlpha" type="matrix" values="0 0 0 0 0 0 0 0 0 0 0 0 0 0 0 0 0 0 127 0" result="hardAlpha"/>
<feOffset dx="2" dy="2"/>
<feGaussianBlur stdDeviation="1.5"/>
<feComposite in2="hardAlpha" operator="arithmetic" k2="-1" k3="1"/>
<feColorMatrix type="matrix" values="0 0 0 0 0 0 0 0 0 0 0 0 0 0 0 0 0 0 0.25 0"/>
<feBlend mode="normal" in2="shape" result="effect1_innerShadow_276_29"/>
</filter>
</defs>
</svg>
