<svg width="211" height="83" viewBox="0 0 211 83" fill="none" xmlns="http://www.w3.org/2000/svg">
<path d="M200.14 11.8516H9.43945V71.5804H200.14V11.8516Z" fill="#5B2E2E"/>
<path d="M9.43916 11.8516L0 0H211L200.143 11.8516H9.43916Z" fill="#89504E"/>
<path d="M211 0L200.144 11.8516V71.5766L211 83V0Z" fill="#9A736F"/>
<path d="M9.43908 71.5766L0.111328 83H211L200.143 71.5766H9.43908Z" fill="#391E1E"/>
<path d="M32.7549 11.8516L41.5409 15.644L50.035 12.7968L62.1711 11.8516H32.7549Z" fill="#89504E"/>
<path d="M32.7549 11.8516C32.7549 11.8516 41.1145 9.14336 47.4649 9.31311C53.8153 9.48286 62.1749 11.8516 62.1749 11.8516H32.7549Z" fill="#391E1E"/>
<path d="M133.005 71.5766L136.889 78.6868L148.218 64.4664L133.005 71.5766Z" fill="#391E1E"/>
<path d="M148.218 64.4664L145.187 77.2902L136.889 78.6868L148.218 64.4664Z" fill="#89504E"/>
<path d="M162.103 63.0467C162.103 63.0467 174.327 61.326 180.086 61.4379C185.845 61.5498 189.602 62.2404 189.602 62.2404L200.508 61.4379L202.03 63.6524L199.928 62.5413L188.672 63.0467H162.103Z" fill="#391E1E"/>
<path d="M27.0264 71.5766L47.4606 74.3929L66.7385 71.5766H27.0264Z" fill="#89504E"/>
<path d="M27.0264 71.5766L39.6503 68.7333L54.8022 70.1569H62.1706L66.7385 71.5766H27.0264Z" fill="#391E1E"/>
<path d="M200.616 23.6994L196.563 22.7697L183.439 28.1515L191.791 27.1716L206.751 27.0211L200.616 23.6994Z" fill="#391E1E"/>
<path d="M183.439 28.1515L200.143 31.0874L206.751 27.0211L200.143 27.1716H191.791L183.439 28.1515Z" fill="#89504E"/>
<path d="M180.65 57.3446L185.51 56.3531L189.114 56.8508L198.03 56.0252L209.583 57.3446H180.65Z" fill="#391E1E"/>
<path d="M9.43916 11.8516L0 0L0.111411 83L9.43916 71.5766V11.8516Z" fill="#441F1F"/>
<path d="M9.43934 28.1515C9.43934 28.1515 12.7432 30.3389 17.4647 30.3389H29.7084L9.44318 31.8204L4.72168 34.0233L9.44318 28.1515H9.43934Z" fill="#391E1E"/>
<g filter="url(#filter0_i_17_8561)">
<path d="M80.4672 49.728V33.408L82.2672 31.368H74.7552L76.3152 33.408V48.552L74.7552 50.592H86.8752V44.232L81.8352 49.728H80.4672ZM94.1157 50.952C97.0917 50.952 100.068 48.288 100.068 43.776C100.068 39.264 97.0917 36.624 94.1157 36.624C91.1397 36.624 88.1637 39.264 88.1637 43.776C88.1637 48.288 91.1397 50.952 94.1157 50.952ZM94.1157 50.376C92.8677 50.376 92.2917 47.664 92.2917 43.776C92.2917 39.888 92.8677 37.2 94.1157 37.2C95.3637 37.2 95.9397 39.888 95.9397 43.776C95.9397 47.664 95.3637 50.376 94.1157 50.376ZM110.927 48.696C109.631 48.576 107.879 48.48 106.583 48.384C105.647 48.312 105.383 47.952 105.383 47.592C105.383 47.112 105.815 46.752 106.655 46.704C107.111 46.8 107.567 46.848 108.023 46.848C111.215 46.848 113.879 44.544 113.879 41.736C113.879 40.056 112.919 38.568 111.479 37.632L114.335 37.224V34.176L110.879 37.272C110.039 36.864 109.055 36.624 108.023 36.624C104.831 36.624 102.167 38.928 102.167 41.736C102.167 43.872 103.703 45.72 105.839 46.464C103.967 46.896 102.263 47.88 102.263 49.56C102.239 50.856 103.103 51.744 104.231 52.056C102.815 52.392 101.927 53.232 101.903 54.288C101.855 56.088 103.895 57.36 108.047 57.36C111.983 57.36 114.551 55.728 114.623 52.56C114.671 50.256 113.087 48.888 110.927 48.696ZM108.023 37.2C109.199 37.2 109.871 39.168 109.871 41.736C109.871 44.304 109.199 46.272 108.023 46.272C106.847 46.272 106.175 44.304 106.175 41.736C106.175 39.168 106.847 37.2 108.023 37.2ZM108.047 56.712C104.687 56.712 104.207 55.488 104.207 54.24C104.207 53.088 105.095 52.464 106.367 52.248C107.879 52.344 109.247 52.416 110.543 52.536C111.911 52.68 112.343 53.232 112.343 54.192C112.343 56.088 110.519 56.712 108.047 56.712ZM118.941 34.944C120.189 34.944 121.269 33.864 121.269 32.592C121.269 31.32 120.213 30.24 118.941 30.24C117.693 30.24 116.613 31.32 116.613 32.592C116.613 33.864 117.693 34.944 118.941 34.944ZM117.093 48.672L115.533 50.592H122.493L120.933 48.672V36.384L115.413 37.608L117.093 39.672V48.672ZM136.927 50.592L135.367 48.672V41.928C135.367 38.736 133.855 36.624 131.383 36.624C130.711 36.624 129.295 37.704 128.479 38.352V36.384L123.007 37.608L124.687 39.672V48.672L123.127 50.592H129.655L128.527 48.672V39.936C128.863 39.384 129.871 37.824 130.207 37.824C130.591 37.824 131.191 38.664 131.383 39.936C131.527 40.896 131.527 41.928 131.527 42.84V48.672L130.399 50.592H136.927Z" fill="white"/>
</g>
<defs>
<filter id="filter0_i_17_8561" x="74.7549" y="30.24" width="64.1719" height="29.12" filterUnits="userSpaceOnUse" color-interpolation-filters="sRGB">
<feFlood flood-opacity="0" result="BackgroundImageFix"/>
<feBlend mode="normal" in="SourceGraphic" in2="BackgroundImageFix" result="shape"/>
<feColorMatrix in="SourceAlpha" type="matrix" values="0 0 0 0 0 0 0 0 0 0 0 0 0 0 0 0 0 0 127 0" result="hardAlpha"/>
<feOffset dx="2" dy="2"/>
<feGaussianBlur stdDeviation="1.5"/>
<feComposite in2="hardAlpha" operator="arithmetic" k2="-1" k3="1"/>
<feColorMatrix type="matrix" values="0 0 0 0 0 0 0 0 0 0 0 0 0 0 0 0 0 0 0.25 0"/>
<feBlend mode="normal" in2="shape" result="effect1_innerShadow_17_8561"/>
</filter>
</defs>
</svg>
